<svg class="vectors" xmlns="http://www.w3.org/2000/svg" viewBox="0 0 238.93 239.29"><title>svgs</title><path d="M178.59,117a15.61,15.61,0,0,0-1.5-.64c-.59-.12-1.18-.26-1.76-.43s-.93-.29-1.39-.46a32.13,32.13,0,0,0-5.42-.71l-.16.06a1.8,1.8,0,0,1,.09,1.4,1.44,1.44,0,0,1,.31.06l.43.15a20.87,20.87,0,0,1,4.55.91,32.38,32.38,0,0,1,5.81,3,18.14,18.14,0,0,1,2.17.62l.2.06C180.91,119.57,180,117.94,178.59,117Z" style="fill:#d8e9ff;opacity:0.5"/><path d="M91,110.57a15,15,0,0,0,2.88,0,1,1,0,0,1,.59-.18h.84a23.29,23.29,0,0,0,3.89-1.05,1.83,1.83,0,0,1,.86-1.32v-.14q-2.39.31-4.81.39a29.15,29.15,0,0,1-9-.71,1.6,1.6,0,0,0-2.07,1.33A40.61,40.61,0,0,0,91,110.57Z" style="fill:#d8e9ff;opacity:0.5"/><path d="M200,137.55a43.45,43.45,0,0,1-6.37-4.82A31.28,31.28,0,0,0,188,127.8c-2.27-1.33-4.83-2-7.21-3.13l-.14-.05a1.7,1.7,0,0,1-.93-.09,2,2,0,0,0-1.45,1.32c1.73,1,3.46,2.07,5.25,3,2,1,4.06,1.71,5.82,3a19.63,19.63,0,0,1,4.78,5.7c.73.56,1.49,1.09,2.25,1.61.73.21,1.46.42,2.2.61a1.72,1.72,0,0,1,.9.54c.42,0,.84.05,1.26.06a1.73,1.73,0,0,1,1.13.4c.36.1.72.21,1.07.34.58.22,1.09.63,1.67.83a2,2,0,0,0,.28.06l.2-.12a8.88,8.88,0,0,0,.73-.52Z" style="fill:#d8e9ff;opacity:0.5"/><path d="M59.3,110a14.52,14.52,0,0,1,5.06-2,1.25,1.25,0,0,0-.59-.27,39.66,39.66,0,0,0-26.63,5c-2,1.19-4.3,2.56-5.69,4.52a1.43,1.43,0,0,1,.3,1,4.9,4.9,0,0,0,.08,1.54,11.13,11.13,0,0,0,1.57-.46l.85-.24a9.28,9.28,0,0,1,2.13-1.82c.89-.63,1.81-1.23,2.75-1.78a21.45,21.45,0,0,1,8.47-4.56,42.56,42.56,0,0,1,11.13-1.12A1.9,1.9,0,0,1,59.3,110Z" style="fill:#d8e9ff;opacity:0.5"/><path d="M58,113.81a1.69,1.69,0,0,0,2.14.35A14.38,14.38,0,0,1,66,111.45a30.77,30.77,0,0,1,6.61-.28,1.51,1.51,0,0,0,1.55-1.08C68.63,109.34,61.86,109.08,58,113.81Z" style="fill:#d8e9ff;opacity:0.5"/><path d="M175,121.67c-.93-.2-1.84-.45-2.76-.73l-.16-.06a1.83,1.83,0,0,0-.19.27,1.14,1.14,0,0,1,1.06.22.84.84,0,0,1,.56,1.17,7.85,7.85,0,0,1-3.25,3.95l-.16.19c-1.37,1.45-3.88,1.05-5.66,1a22.89,22.89,0,0,1-2.94-.19c-.85-.16-.8-.95-1.33-1.55a1.34,1.34,0,0,0-.55-.49c-.52-.24-1-.51-1.52-.78q-.51-.68-1-1.37a2,2,0,0,0-1.27-1.53,52.86,52.86,0,0,1,6.32-1.75,1.6,1.6,0,0,0,.18.31,5,5,0,0,0,2.45-1.33.78.78,0,0,1,.44-.27,1.55,1.55,0,0,0-1.57-1.15,1.63,1.63,0,0,0-1,.3,1.89,1.89,0,0,1,0-.22,35.57,35.57,0,0,0-8.23,1.25,29.3,29.3,0,0,1-6.79,1h-.07l-.18,0a6.11,6.11,0,0,1-4.25-.42c-1.72-1.08-2.09-2.88-2-4.73-1.39,1.42-3.12,2.92-5.16,2.62a8.9,8.9,0,0,1-3.24-1.46l-1.09-.67a1.7,1.7,0,0,1-1.57-.09,13.68,13.68,0,0,1-3.64-2.54,34.18,34.18,0,0,0-4.85-1.56c-1-.24-2.38-.14-2.87-1.15A8.82,8.82,0,0,1,118,106a1.53,1.53,0,0,0-.8-1.42c-.56,2.57-.33,5.23-.38,7.87a1.54,1.54,0,0,0-1.14-.39l-4.23.15-.26,0a34.63,34.63,0,0,0,.5-5,20.16,20.16,0,0,0-.15-3.46.94.94,0,0,1-.39-.54c-.14-.5-.27-1-.38-1.51a13.83,13.83,0,0,0-1-1.57,1.87,1.87,0,0,0,0,.5c.51,2.73,1.12,5.81-.11,8.44s-4.25,3.32-6.82,4c-5.69,1.44-11.59,1.51-17.43,1.41l-4-.09a1.7,1.7,0,0,0-.54-.18,50.14,50.14,0,0,0-34.26,6.65,1.72,1.72,0,0,0-.58.57c-4.78,2.71-9.07,6.29-13.49,9.55l0,0a1.93,1.93,0,0,1,0,.48,2.32,2.32,0,0,0,.24,1.46,1.49,1.49,0,0,0,.26.08,4.12,4.12,0,0,0,.61,0,8.53,8.53,0,0,0,2.34-.44l4.67-3.45.07-.1a32.23,32.23,0,0,1,4.46-4.72,13,13,0,0,1,3.46-3.09A31.22,31.22,0,0,1,55,118c5.19-2,10.86-1.12,16.31-1.59a4.75,4.75,0,0,1,2-.25l.39-.07a2.06,2.06,0,0,1,1.67.38c.42.08.85.16,1.29.21a2.39,2.39,0,0,1,1.15.45q1,.12,2.08.29a1.74,1.74,0,0,0,1.65-.6c1.68.16,3.37.31,5,.59a1.41,1.41,0,0,1,.79.43c6.18.05,12.32-.25,18.29-2.12a16.79,16.79,0,0,0,3.32-1.4.87.87,0,0,1,.59-.43,22.19,22.19,0,0,1,7.64-.2,2,2,0,0,0,0-.45,4.13,4.13,0,0,0,1.28.6c1.56.43,3.16.67,4.71,1.17a30.41,30.41,0,0,1,4.6,1.92c2.76,1.43,5.4,3.82,8.67,3.84a7.13,7.13,0,0,0,2.92-.63c1.8,3.42,8.4,3.3,11.76,2.8.48-.07,1-.16,1.46-.26.46-.91,2.06-.79,1.93.37a6.14,6.14,0,0,0-.15,2.19c.19.6.88.83,1.4,1.09a7.77,7.77,0,0,1,2.19,1.35c.59.6.83,1.61,1.4,2.19,2.27-.88,5.13-.44,7.46-.53a7.62,7.62,0,0,0,4.75-1.68,11.35,11.35,0,0,0,2.75-4.34,1.06,1.06,0,0,1,.54-.57c0-.26.06-.52.09-.77A1.24,1.24,0,0,0,175,121.67Z" style="fill:#d8e9ff;opacity:0.5"/><g class="body-fill"><ellipse cx="148.92" cy="119.4" rx="0.94" ry="1.02" style="fill:#d2d8db"/><path d="M84.18,108.84a.54.54,0,0,1,.73-.57c9.76,4,14.61-.11,14.66-.15a.54.54,0,0,1,.75,0,.53.53,0,0,1,0,.75c-.21.19-5.36,4.6-15.76.34A.54.54,0,0,1,84.18,108.84Z" style="fill:#d2d8db"/><path d="M182.06,120.18a.49.49,0,0,1-.81.24c-7-6.64-12.54-4.73-12.59-4.71a.49.49,0,0,1-.63-.29.48.48,0,0,1,.29-.63c.24-.09,6.1-2.17,13.6,4.92A.5.5,0,0,1,182.06,120.18Z" style="fill:#d2d8db"/><path d="M73.84,109.66a.54.54,0,0,1-.55.75c-10.49-1.16-14,4.11-14.06,4.17a.54.54,0,0,1-.74.16.53.53,0,0,1-.16-.74c.15-.24,3.89-5.89,15.07-4.65A.54.54,0,0,1,73.84,109.66Z" style="fill:#d2d8db"/></g><g class="body-line"><path d="M162.7,117.78c3.87.79,13.55,5,20.32,8.47s15.48,1.06,16.93,2.12,2.66,4.24,3.14,4.24a1,1,0,0,0,.73-.26c2.66,4,4.35,3.71,5.81,4s-1.45-2.65-4.11-6.62-3.87-5.56-3.87-5.56c-12.58-5.56-18.63-7.23-18.63-7.23s-9.25-4.88-11.85-6.62a63.22,63.22,0,0,0-9.43-4.69,67.09,67.09,0,0,0-16-6.88c-8.22-2.12-20.42,2.82-27.44-1.68,0,0-.5,9.15-1.59,15.91a38,38,0,0,1,9.56,2.59s0,1.59,2.9,1.59a7.25,7.25,0,0,0,5.32,2.38s2.9,1.32,5.32.53c0,0,2.9,4.77,15.48,1.59a61.43,61.43,0,0,0,9.91-3.12" style="fill:none;stroke:#d0d2d3;stroke-linecap:round;stroke-miterlimit:10;stroke-width:1.5px"/><path d="M103.58,97.66a11.85,11.85,0,0,1,7.29-3.18,11,11,0,0,1,7.57,2.65L116.76,113s-2.24,1.06-7,.53c0,0,3.36-4,.56-11.12S103.58,97.66,103.58,97.66Z" style="fill:none;stroke:#d0d2d3;stroke-linecap:round;stroke-miterlimit:10;stroke-width:1.5px"/><path d="M140,120.43a5.06,5.06,0,0,1,0-3.71" style="fill:none;stroke:#d0d2d3;stroke-linecap:round;stroke-miterlimit:10;stroke-width:1.5px"/><path d="M103.68,97.66a9,9,0,0,1-3.3,2.91c-1.89.79-12.75,1.59-20.06,5.56a31.31,31.31,0,0,1-9.68,0c-5.9-.79-21.24,10.86-22.89,10.59s-2.36.53-4-1.06-3.54.26-4,2.91-5.43,6.09-5.43,6.09-1.42,1.32-1.18,1.59-.47,1.06,0,2.12-.71,1.06-.24,1.85-.47,1.85,0,2.65,3.3-1.06,5.43-2.91,11.33-9.53,15.81-11.12,21-3.44,21-3.44,4.48,1.85,7.08,1.32c0,0,10.62,2.91,26.67-2.91" style="fill:none;stroke:#d0d2d3;stroke-linecap:round;stroke-miterlimit:10;stroke-width:1.5px"/><path d="M100.38,100.57a39.89,39.89,0,0,0-16,0c-8.26,1.85-8.5-.26-12.27,0s-20.77,6.09-24.31,4.24-5.19-3.44-6.61-.79-5.66,6.35-7.08,7.15-3.3,2.65-2.36,2.65c0,0-.47,1.59,0,1.59,0,0-.71.79-.24,1.32s-.24,3.18,1.18,2.65,9.52-7.17,13.69-8.21,7.26-2.08,13.42-1.57" style="fill:none;stroke:#d0d2d3;stroke-linecap:round;stroke-miterlimit:10;stroke-width:1.5px"/><path d="M175.42,122.62a50.19,50.19,0,0,0,7.36,5.75c3.87,2.38,8.47,3.44,9.43,5.56a10,10,0,0,0,4.84,4.77c2.42,1.32,3.39,2.12,2.9.53,0,0,4.35,2.65,5.08,2.38s-.48-1.59-3.14-3.71-9.52-8.36-10.81-9.74" style="fill:none;stroke:#d0d2d3;stroke-linecap:round;stroke-miterlimit:10;stroke-width:1.5px"/><path d="M155.44,121.75s-2.18,3.44-1,4,1.94.26,1.94.79,1.45.26,1.45.26l.24,1.59h1s-.24,1.85.24,1.85,2.66-1.06,3.63-.79,5.81,1.06,8.47-1.59a8.47,8.47,0,0,0,2.52-5.89" style="fill:none;stroke:#d0d2d3;stroke-linecap:round;stroke-miterlimit:10;stroke-width:1.5px"/><line x1="114.59" y1="113.55" x2="115.37" y2="103.17" style="fill:none;stroke:#d0d2d3;stroke-linecap:round;stroke-miterlimit:10;stroke-width:1.5px"/></g></svg>