<svg class="vectors" xmlns="http://www.w3.org/2000/svg" viewBox="0 0 239.24 239.24"><title>svgs</title><path d="M115.37,159.95a2.72,2.72,0,0,1-.2-.68,2.15,2.15,0,0,1-1.07-1.49,10,10,0,0,1,2.15-8,3.35,3.35,0,0,1,1-.87,55.86,55.86,0,0,1,3.37-8.94,2.76,2.76,0,0,1-.3-3,2.5,2.5,0,0,1-.84.15,2.32,2.32,0,0,1-1.62-.6,57.85,57.85,0,0,0-5.92,17.84c-1.06,7,.29,14.09-1.1,21-1.24,6.16-2.35,11.66-2,18,.15,3.06,1,6.09-2.78,8.17-.81.44-2,.31-2.81.8a3.92,3.92,0,0,0-1.13,1,8.71,8.71,0,0,1,2.21-.94c2.34-.6,4.7.3,7.05.28a9.58,9.58,0,0,0,1.63-4.75c-4.42-8.48-.39-17.35,2.4-25.65.21-2.81,0-5.62-.07-8.47C115.24,162.51,115.29,161.23,115.37,159.95Z" style="fill:#d8e9ff;opacity:0.5"/><path d="M127.35,60.38a2.46,2.46,0,0,1-.51-3.82c0-2.17,2.92-6.26,3.53-8.47a2.76,2.76,0,0,1-.29-.37c-1.26-2-1-4-1-6.21a8.19,8.19,0,0,0-3-5.9,2.33,2.33,0,0,1-.7-1.07,7.74,7.74,0,0,0-2.89-1,2.73,2.73,0,0,1-.68-.17,2,2,0,0,0,.47.8c3.2,3.4,5.2,10.35,3.44,14.77-1.2,3-3.44,6.35-2.63,9.81s5.66,4.09,10.35,3.76A16.11,16.11,0,0,1,127.35,60.38Z" style="fill:#d8e9ff;opacity:0.5"/><path d="M97.62,97.38a2.66,2.66,0,0,1-.35-.21,2.51,2.51,0,0,1-2.18-.09,2.21,2.21,0,0,1-2-.22c-2.31-1.62-3.42-4.46-4.53-6.95a3.32,3.32,0,0,1-.28-1.22c-.16-.24-.32-.49-.48-.74-2.52-.65-2.3-4.91.67-4.91a2.39,2.39,0,0,1,1.34.38,2.5,2.5,0,0,1,1.08-.21c2.23,0,6.15,1.14,7.7-1a2.56,2.56,0,0,1,2.68-1c.53-1.56-1.75-3.35-3.43-2-3.31,2.65-10.57,1.67-14.55,1.59a2,2,0,0,0-1.93,2.53c1.49,4.5,3.45,9.09,7.14,12.23a18.44,18.44,0,0,0,4.73,2.76q4.47.56.86,3.89-.38,4.09-3,2.3a5.2,5.2,0,0,1-1.43-.32c1.43,1.26,2.17,2.83,4.17,3.31,1.25.3,3.77.27,4.6-.88a2.51,2.51,0,0,1,1.84-1.07l.15-.08a2.57,2.57,0,0,1-.18-.55C99.86,102.71,99.9,98.48,97.62,97.38Z" style="fill:#d8e9ff;opacity:0.5"/><path d="M157.31,81.21s0,0,0,0a2.47,2.47,0,0,0-.11-.34,17.75,17.75,0,0,1-12.69-.8,10.61,10.61,0,0,1-2.09-1.18,13.29,13.29,0,0,1-2.87-1,11.06,11.06,0,0,1-1.18-.66,1.55,1.55,0,0,0-1.75.78l-.05,0a16.63,16.63,0,0,1-1,5c-1,5.46-5.65,9.4-6.45,15.35a40.7,40.7,0,0,0,.45,13.13c0,.13,0,.26-.07.4.39,2.06-.14,4-2.67,4.5-.34.07-.69.12-1,.17a23.68,23.68,0,0,1-4,1.24,91.49,91.49,0,0,1,10.56-.26,2,2,0,0,0,.13.51,33.69,33.69,0,0,1,2.41,9.44h-.17a2.17,2.17,0,0,1-.07.25,2.34,2.34,0,0,1-2.4,2.34,2.62,2.62,0,0,1-.79-.12,2.22,2.22,0,0,1-1.71,1.28,1.72,1.72,0,0,0,2.16.84c.14-.06.29-.09.43-.13a3.25,3.25,0,0,1,2,.94,14.62,14.62,0,0,1,2.27,4.67c.2.56.39,1.13.58,1.7-.15,2.7-.56,5.39-.89,8.15-.56,4.59-.3,9.11-.45,13.72-.28,8.55-2.2,16.92-3.08,25.41-.37,3.55-1.06,7.46.2,10.46,2,1.29,4.52,2.28,6,3.35,1.06.77,2.07,1.49,3.1,2.15a29.2,29.2,0,0,0,4.6.61c-.06-.42-.1-.84-.14-1.27a2.69,2.69,0,0,1-.48-.4c-1-1.07-2.53-1.06-3.86-1.51a7.45,7.45,0,0,1-4-3.17,2.54,2.54,0,0,1-1.54-1c-2.06-2.8-1.65-5.51-1.34-8.75s0-6.27,1.68-9.16a2.42,2.42,0,0,1,.88-.9c.42-2.13.83-4.22,1.09-6.18a88.57,88.57,0,0,0,.64-9.47,2.61,2.61,0,0,1-.19-.85c-.09-2.07-.28-4.11-.41-6.13a2.73,2.73,0,0,1-.12-3.53,23.22,23.22,0,0,1,.69-5.95,58.71,58.71,0,0,0-.42-8.6,34,34,0,0,1-.51-7.36,4,4,0,0,0-1.7-1.09,11.64,11.64,0,0,1,1.63-.87,2.2,2.2,0,0,1-.1-.4c-.53-3.5-1.87-6.78-2.62-10.22a2.12,2.12,0,0,0-1.11-.59c-.24-.75-.48-1.52-.69-2.3,0-1.5-.19-3-.32-4.28,0-.3,0-.6,0-.89a1.83,1.83,0,0,0-1-1.69,22.81,22.81,0,0,1,1.39-11.67c1-2.33,2.93-4.06,4.14-6.29a45.2,45.2,0,0,0,1.14-6.7A35.51,35.51,0,0,0,149,83.76a2.3,2.3,0,0,1,1.75-.72c3.1,0,3.2,4.63.33,5a2.57,2.57,0,0,1-.47,2.41,24.73,24.73,0,0,1-4.42,4.69l-.18.12a2.3,2.3,0,0,1-2.36,2,2.58,2.58,0,0,1-.82-.14,7.83,7.83,0,0,0-1.9,1.48,2.6,2.6,0,0,1-.52.44,14.07,14.07,0,0,0-1.68,2.86,2.4,2.4,0,0,1-.68.86,2.66,2.66,0,0,1,.74,3,2.49,2.49,0,0,1,1,.84h0A2.26,2.26,0,0,1,142,108a21.57,21.57,0,0,0,3.89-.28,9.55,9.55,0,0,1,2-3,13.5,13.5,0,0,1-2.66.3q-3,.4-2.62-4.44a6.26,6.26,0,0,1,1.76-1.7,9,9,0,0,0,5.37-2.92c2.36-2.54,3.55-5.9,4.67-9.16.5-.85,1.05-1.69,1.64-2.5a11.6,11.6,0,0,1,.84-1.88C157.35,81.59,157.32,82.13,157.31,81.21Z" style="fill:#d8e9ff;opacity:0.5"/><path class="body-fill" d="M167.87,78c-3-6.67-16.21-9.68-18.3-10.13-4.16-5.06-8.54-4.85-11.62-4.71a20.84,20.84,0,0,1-11.16-3.27,18.85,18.85,0,0,1,.07-4.73,5.5,5.5,0,0,0,1.25-3.06c.87-.26,1.31-1.49,1.6-2.65.39-.62,1.56-2.64.9-3.88a1.56,1.56,0,0,0-1-.78c.06-2.42-.43-10.45-8.71-12.09a7.61,7.61,0,0,0-2.56,0c-8.29,1.67-8.78,9.68-8.73,12.1a1.6,1.6,0,0,0-1,.78c-.67,1.25.5,3.28.89,3.88.3,1.14.73,2.39,1.6,2.65a5.53,5.53,0,0,0,1.25,3.06,19.62,19.62,0,0,1,.07,4.73,21,21,0,0,1-11.16,3.27c-3.09-.12-7.47-.33-11.64,4.75-2,.62-16.29,5.21-18.53,11.8A5.65,5.65,0,0,0,72,85c.28.86,2,5,11.33,11.51a17.21,17.21,0,0,1,3.44,3.27,12.94,12.94,0,0,1,.67,1.19,12.35,12.35,0,0,0,4.51,5.13c.25.58,1,2,2.29,2a2,2,0,0,0,.78-.17,6.74,6.74,0,0,0,1.12.11,2.23,2.23,0,0,0,1.68-.56,3.32,3.32,0,0,0,2.4-2.17,1.87,1.87,0,0,0,.59-.41,2.53,2.53,0,0,0,.53-2.06c-.05-.18-1.33-4.56-4.69-6.11a.79.79,0,0,0-.23-.07l-2.15-.22c-1.73-1.66-4.43-4.3-4.78-4.86A14.85,14.85,0,0,1,88.3,89a20.1,20.1,0,0,0-2.5-4.91c.79,0,1.8.09,2.94.09,3.75,0,8.36-.47,11-2.48,0,2.52.76,7.14,4.34,13.41A45.94,45.94,0,0,1,105.39,112c-.67,1.25-5.47,10.53-4.72,19-.53,1.33-3.49,9.61,0,20.89-.35,1.89-2.88,16.82,1.9,28.61,1.09,5.59,1.83,14,0,15.14-2.35,1.9-6.72,4.91-8.51,4.91h0a.84.84,0,0,0-.4.07,3,3,0,0,0-1.44,1.64,1.87,1.87,0,0,0,.11,1.21,2,2,0,0,0,0,1.41,1.74,1.74,0,0,0,1.06.93,3.21,3.21,0,0,0,2.33.77c2.29,0,5.49-1.38,9.38-4a3.41,3.41,0,0,1,1.05-.14,6.22,6.22,0,0,1,2.44.56,4.94,4.94,0,0,0,.84.06,4,4,0,0,0,3.18-1.31c.78-1,1-2.43.52-4.33,0-.1-2.81-10.4-.06-18.3a44.1,44.1,0,0,0,2.64-15.87,16.55,16.55,0,0,0-.38-2.9,17.15,17.15,0,0,1-.17-6.61,20.41,20.41,0,0,1,1.94-5.38,39.41,39.41,0,0,0,2.5-6.44,40.79,40.79,0,0,0,2.5,6.44,20.4,20.4,0,0,1,1.93,5.38,16.9,16.9,0,0,1-.16,6.6,17.9,17.9,0,0,0-.38,2.91,43.71,43.71,0,0,0,2.63,15.85c2.76,7.91,0,18.21-.06,18.35-.44,1.87-.26,3.31.52,4.3a3.94,3.94,0,0,0,3.18,1.31,4.13,4.13,0,0,0,1-.11,5.67,5.67,0,0,1,2.27-.51,3.82,3.82,0,0,1,.94.1c4,2.7,7.21,4.08,9.49,4.08a3.25,3.25,0,0,0,2.33-.77,1.82,1.82,0,0,0,1.07-.94,2.08,2.08,0,0,0,0-1.41,1.73,1.73,0,0,0,.11-1.2,2.93,2.93,0,0,0-1.44-1.64,1.31,1.31,0,0,0-.5-.07c-1.69,0-6.06-3-8.47-5-1.79-1.13-1.07-9.51,0-15,4.81-11.92,2.28-26.85,1.93-28.74,3.48-11.27.52-19.56,0-20.89.74-8.42-4.06-17.7-4.71-19a47,47,0,0,1,1.26-16.74c3.68-6.47,4.37-11.17,4.41-13.67,3.85,3,10.63,2.87,13.86,2.57a20.52,20.52,0,0,0-2.46,4.86,14.27,14.27,0,0,1-1.15,2.54c-.36.56-3.06,3.21-4.79,4.86l-2.15.22a.8.8,0,0,0-.22.07c-3.36,1.56-4.65,5.93-4.72,6.26a2.44,2.44,0,0,0,.56,1.9,1.81,1.81,0,0,0,.59.41,3.34,3.34,0,0,0,2.41,2.17,2.24,2.24,0,0,0,1.68.56,7.09,7.09,0,0,0,1.11-.11,1.94,1.94,0,0,0,.79.17c1.3,0,2-1.4,2.29-2a12.42,12.42,0,0,0,4.51-5.13,12.63,12.63,0,0,1,.67-1.19,17.41,17.41,0,0,1,3.45-3.28C165.34,90,167,85.79,167.24,85A7.32,7.32,0,0,0,167.87,78Zm-65.22,45.78c.12-.55.24-1.1.38-1.64.08,0,.13.1.22.1h15.81a.71.71,0,1,0,0-1.43H103.39c.2-.67.4-1.33.62-1.94h31.17a35.27,35.27,0,0,1,1.82,7.86l-17.4,10.62-17.41-10.51c.06-.54.11-1.09.21-1.62m13.41,22.46a21.56,21.56,0,0,0-2.06,5.78,18.49,18.49,0,0,0,.18,7.08,16,16,0,0,1,.35,2.67,43.16,43.16,0,0,1-2.54,15.33c-2.91,8.34-.1,18.74,0,19.16.32,1.42.24,2.46-.26,3.08a2.6,2.6,0,0,1-2.06.78H109a7.07,7.07,0,0,0-2.81-.62,4.21,4.21,0,0,0-1.71.31c-8.1,5.47-10,3.5-10,3.5h0a.72.72,0,0,0-.42-.3c-.11,0-.3-.09-.34-.2a.8.8,0,0,1,.07-.56.71.71,0,0,0,0-.73.46.46,0,0,1-.1-.4,1.32,1.32,0,0,1,.55-.63c2.74,0,8.64-4.7,9.24-5.19,3.27-2.07,1.08-14.18.57-16.71C99,168,102.06,152.13,102.09,152a.73.73,0,0,0,0-.35c-3.65-11.63-.07-20.17,0-20.24a.63.63,0,0,0,.06-.35,19.22,19.22,0,0,1,0-2.54L118.8,138.6A32.2,32.2,0,0,1,115.79,147.72Zm21.32,3.89a.57.57,0,0,0,0,.35c0,.16,3.06,16-1.87,28.24-.48,2.41-2.66,14.51.54,16.54.67.53,6.56,5.23,9.3,5.24a1.32,1.32,0,0,1,.55.63.44.44,0,0,1-.1.4.76.76,0,0,0,0,.72.91.91,0,0,1,.08.55c-.05.11-.24.17-.34.21a.64.64,0,0,0-.4.28s-1.74,2.14-10.2-3.55A4.59,4.59,0,0,0,133,201a6.48,6.48,0,0,0-2.69.59c-.07,0-1.89.23-2.66-.74a3.63,3.63,0,0,1-.27-3.05c.12-.44,2.93-10.84,0-19.21a43.1,43.1,0,0,1-2.54-15.3,15.82,15.82,0,0,1,.36-2.67,18.36,18.36,0,0,0,.17-7.08,21.08,21.08,0,0,0-2.05-5.78,31.64,31.64,0,0,1-3-9.14l16.73-10.21a19.44,19.44,0,0,1,0,2.64.73.73,0,0,0,.06.35C137.17,131.45,140.77,140,137.11,151.61Zm.83-72a.66.66,0,0,0,0,.22c0,.05,1.16,5.48-4.15,14.83a46.71,46.71,0,0,0-1.37,17.6.81.81,0,0,0,.09.27,45.94,45.94,0,0,1,2.16,4.86H104.54a48.73,48.73,0,0,1,2.16-4.86.69.69,0,0,0,.09-.27,46,46,0,0,0-1.43-17.75c-5.24-9.22-4.1-14.63-4.09-14.69a.72.72,0,0,0-1.32-.52c-1.23,2.2-5.21,3.41-11.21,3.41a44.68,44.68,0,0,1-4.51-.23.77.77,0,0,0-.72.39.73.73,0,0,0,.12.82A16,16,0,0,1,87,89.54a15.92,15.92,0,0,0,1.3,2.81,70.4,70.4,0,0,0,5.18,5.28.77.77,0,0,0,.42.2l2.27.23c2.64,1.3,3.77,5,3.79,5,0,.56-.1.9-.34.92a.72.72,0,0,0-.71.64c-.13,1.2-1.55,1.48-1.61,1.49a.7.7,0,0,0-.5.35s-.19.12-.64.12a5.24,5.24,0,0,1-1-.12.69.69,0,0,0-.55.09.67.67,0,0,1-.31.1c-.42,0-.88-.82-1-1.26a.65.65,0,0,0-.27-.35,11,11,0,0,1-4.23-4.73A14,14,0,0,0,87.94,99a18.33,18.33,0,0,0-3.83-3.67c-9.68-6.74-10.8-10.77-10.8-10.81a.73.73,0,0,0-.12-.26,4.26,4.26,0,0,1-.76-4.08c2.12-6.25,17.64-10.91,17.8-11a.65.65,0,0,0,.36-.23c3.74-4.67,7.63-4.5,10.6-4.38l.7,0c5.05,0,11.31-2.88,11.87-4.19h0a17.89,17.89,0,0,0,0-5.67.76.76,0,0,0-.26-.48,4.39,4.39,0,0,1-1-3,.73.73,0,0,0-.49-.65.69.69,0,0,0-.51,0,5.5,5.5,0,0,1-.6-1.64.69.69,0,0,0-.1-.22c-.58-.89-1.09-2.15-.89-2.51.07-.14.7,0,1-.36a.71.71,0,0,0,.18-.55c0-.39-.93-9.54,7.56-11.24a5.43,5.43,0,0,1,2,0c8.46,1.69,7.59,10.85,7.56,11.24a.69.69,0,0,0,.18.55c.29.33.94.22,1,.36.2.36-.3,1.63-.9,2.51a.59.59,0,0,0-.1.22,7.45,7.45,0,0,1-.57,1.65.75.75,0,0,0-.53,0,.71.71,0,0,0-.49.65,4.35,4.35,0,0,1-1,3,.71.71,0,0,0-.27.49,17.81,17.81,0,0,0,0,5.67h0c.3.79,2.49,1.83,3.83,2.4A20.18,20.18,0,0,0,138,64.62c2.94-.11,6.86-.3,10.6,4.38a.77.77,0,0,0,.42.26c.14,0,14.65,2.95,17.53,9.36a5.92,5.92,0,0,1-.6,5.72.9.9,0,0,0-.08.21s-1.11,4.08-10.81,10.81A18.57,18.57,0,0,0,151.25,99a13.67,13.67,0,0,0-.74,1.32,11,11,0,0,1-4.23,4.73.78.78,0,0,0-.28.35c-.15.44-.62,1.26-1,1.26a.61.61,0,0,1-.31-.1.78.78,0,0,0-.55-.09,5,5,0,0,1-1,.13,1.15,1.15,0,0,1-.65-.12.72.72,0,0,0-.5-.35s-1.48-.27-1.6-1.48a.72.72,0,0,0-.71-.65.39.39,0,0,1-.16-.1,1.13,1.13,0,0,1-.2-.68s1.13-3.83,3.82-5.16l2.27-.23a.78.78,0,0,0,.42-.2c.76-.73,4.61-4.4,5.18-5.28a15.88,15.88,0,0,0,1.29-2.8,16,16,0,0,1,3.33-5.8.69.69,0,0,0,.11-.83.73.73,0,0,0-.74-.38c-.06,0-12,1.87-15.74-3.26a.72.72,0,0,0-.88-.23.74.74,0,0,0-.29.29m-5.71.12A1.32,1.32,0,1,1,131,78.14,1.32,1.32,0,0,1,132.31,79.46Zm-25.26,0a1.32,1.32,0,1,1,1.32,1.32A1.33,1.33,0,0,1,107.05,79.46Zm13.75,32.48a1.16,1.16,0,1,1-1.14-1.35A1.25,1.25,0,0,1,120.81,111.94Zm-13,43.18c-7.59-13.05-2.68-20.72-2.47-21a.71.71,0,0,1,1-.2.72.72,0,0,1,.2,1c0,.07-4.61,7.28,2.51,19.53a.71.71,0,1,1-1.24.71Zm25.16-21.43c.21.31,5.13,8-2.47,21a.71.71,0,0,1-.62.36.77.77,0,0,1-.36-.1.73.73,0,0,1-.26-1c7.12-12.24,2.55-19.46,2.51-19.53a.72.72,0,0,1,.2-1A.74.74,0,0,1,132.95,133.69Zm-.43,42.61a.72.72,0,1,1-1.26.7c-6.11-11-1.93-17.2-1.76-17.46a.73.73,0,0,1,1-.17.72.72,0,0,1,.18,1C130.65,160.41,126.87,166.14,132.51,176.3Zm-22.45-16.78c.18.27,4.36,6.47-1.75,17.47a.72.72,0,0,1-.63.36.71.71,0,0,1-.34-.09.72.72,0,0,1-.28-1c5.65-10.16,1.87-15.89,1.83-16a.72.72,0,0,1,.18-1A.73.73,0,0,1,110.07,159.52Zm46.1-80.67a.71.71,0,0,1-.13,1,.7.7,0,0,1-1-.14c-3.49-4.59-10.25-4.3-10.33-4.29h0a.71.71,0,0,1-.71-.68.72.72,0,0,1,.68-.76C144.92,74,152.21,73.64,156.17,78.85ZM95,74.63c0,.4-.31.79-.74.7-.08-.07-6.84-.18-10.25,4.49a.72.72,0,0,1-.58.3A.74.74,0,0,1,83,80a.72.72,0,0,1-.15-1C86.74,73.68,94,73.9,94.32,73.89A.72.72,0,0,1,95,74.63Z" style="fill:#d0d2d3"/></svg>