<?xml version="1.0" encoding="utf-8"?>
<!-- Generator: Adobe Illustrator 21.1.0, SVG Export Plug-In . SVG Version: 6.00 Build 0)  -->
<svg version="1.1" id="Layer_1" xmlns="http://www.w3.org/2000/svg" xmlns:xlink="http://www.w3.org/1999/xlink" x="0px" y="0px"
	 viewBox="0 0 187 50.5" style="enable-background:new 0 0 187 50.5;" xml:space="preserve">
<style type="text/css">
	.st0{opacity:0.5;fill:#D8E9FF;}
	.st1{fill:#D2D8DB;}
	.st2{fill:none;stroke:#D0D2D3;stroke-width:1.5;stroke-linecap:round;stroke-miterlimit:10;}
</style>
<title>afsprong</title>
<path class="st0" d="M152.8,24.3c-0.5-0.2-1-0.5-1.5-0.7c-0.6-0.1-1.2-0.3-1.8-0.4c-0.5-0.1-1-0.3-1.4-0.5c-1.8-0.4-3.7-0.6-5.5-0.7
	c-0.1,0-0.1,0-0.2,0.1c0.2,0.5,0.2,1,0.1,1.4c0.1,0,0.2,0,0.3,0.1c0.1,0,0.3,0.1,0.4,0.2c1.6,0.2,3.1,0.4,4.7,0.9c2.1,0.7,4,1.9,6,3
	c0.8,0.2,1.5,0.4,2.2,0.6c0.1,0,0.1,0,0.2,0.1C155.2,26.9,154.3,25.2,152.8,24.3z"/>
<path class="st0" d="M63.3,17.4c1,0.1,2,0.1,3,0c0.2-0.1,0.4-0.2,0.6-0.2c0.3,0,0.6,0,0.9,0c1.4-0.2,2.7-0.6,4-1.1
	c0.1-0.5,0.4-1.1,0.9-1.4v-0.1c-1.6,0.2-3.3,0.3-5,0.4c-3,0.1-6.3,0.1-9.3-0.7c-1.2-0.3-2,0.5-2.1,1.4
	C58.6,16.4,60.9,17.2,63.3,17.4z"/>
<path class="st0" d="M174.8,45.3c-2.3-1.5-4.5-3-6.5-4.9c-1.9-1.8-3.6-3.7-5.8-5c-2.3-1.4-4.9-2.1-7.4-3.2c0,0-0.1,0-0.1-0.1
	c-0.3,0.1-0.6,0-1-0.1c-0.7,0.1-1.3,0.7-1.5,1.3c1.8,1.1,3.5,2.1,5.4,3.1c2,1,4.2,1.8,6,3.1c2.1,1.6,3.6,3.7,4.9,5.8
	c0.8,0.6,1.5,1.1,2.3,1.6c0.7,0.2,1.5,0.4,2.3,0.6c0.4,0.1,0.7,0.3,0.9,0.6c0.4,0,0.9,0.1,1.3,0.1c0.5,0,0.9,0.2,1.2,0.4
	c0.4,0.1,0.7,0.2,1.1,0.3c0.6,0.2,1.1,0.6,1.7,0.9c0.1,0,0.2,0,0.3,0.1c0.1,0,0.1-0.1,0.2-0.1c0.3-0.2,0.5-0.3,0.7-0.5
	C178.7,47.9,176.8,46.6,174.8,45.3z"/>
<path class="st0" d="M30.7,17.1c1.6-1,3.3-1.6,5.2-2c-0.2-0.1-0.4-0.2-0.6-0.3c-6.3-1-12.7-0.6-18.7,1.3c-3,0.9-5.9,2.2-8.5,3.8
	c-2,1.2-4.4,2.6-5.8,4.6c0.2,0.3,0.4,0.7,0.3,1c-0.1,0.6,0,1.1,0.1,1.6c0.5-0.1,1.1-0.3,1.6-0.5c0.3-0.1,0.6-0.2,0.9-0.2
	c0.6-0.8,1.5-1.3,2.2-1.9C8.1,24,9,23.4,10,22.8c2.5-2.2,5.4-3.8,8.7-4.7c3.7-1,7.6-1.1,11.4-1.1C30.3,17,30.5,17.1,30.7,17.1z"/>
<path class="st0" d="M29.4,21c0.5,0.6,1.5,0.8,2.2,0.4c1.8-1.3,3.7-2.3,6-2.8c2.2-0.4,4.5-0.3,6.8-0.3c0.9,0,1.4-0.5,1.6-1.1
	C40.2,16.4,33.3,16.1,29.4,21z"/>
<path class="st0" d="M149.2,29c-1-0.2-1.9-0.5-2.8-0.7c-0.1,0-0.1,0-0.2-0.1c-0.1,0.1-0.1,0.2-0.2,0.3c0.4-0.1,0.8,0,1.1,0.2
	c0.5,0.2,0.8,0.6,0.6,1.2c-0.6,1.7-1.8,3.2-3.3,4c-0.1,0.1-0.1,0.1-0.2,0.2c-1.4,1.5-4,1.1-5.8,1c-1-0.1-2,0-3-0.2
	c-0.9-0.2-0.8-1-1.4-1.6c-0.1-0.2-0.3-0.4-0.6-0.5c-0.5-0.2-1-0.5-1.6-0.8c-0.3-0.5-0.7-0.9-1-1.4c-0.1-0.7-0.6-1.3-1.3-1.6
	c2-0.9,4.3-1.2,6.5-1.8c0,0.1,0.1,0.2,0.2,0.3c0.9-0.3,1.9-0.6,2.5-1.4c0.1-0.1,0.3-0.2,0.5-0.3c-0.2-0.6-0.7-1.2-1.6-1.2
	c-0.4,0-0.8,0.1-1,0.3c0-0.1,0-0.2,0-0.2c-2.8,0-5.7,0.6-8.4,1.3c-2.3,0.5-4.6,1.1-7,1.1c0,0,0,0-0.1,0c-0.1,0-0.1,0-0.2,0
	c-1.4,0.2-3.1,0.4-4.4-0.4c-1.8-1.1-2.1-3-2-4.8c-1.4,1.5-3.2,3-5.3,2.7c-1.2-0.2-2.3-0.9-3.3-1.5c-0.4-0.2-0.7-0.5-1.1-0.7
	c-0.5,0.2-1,0.2-1.6-0.1c-1.3-0.7-2.7-1.5-3.7-2.6c-1.6-0.7-3.3-1.2-5-1.6c-1-0.2-2.4-0.1-2.9-1.2c-0.6-1.3-0.8-2.7-0.8-4
	c0-0.7-0.3-1.2-0.8-1.5c-0.6,2.6-0.3,5.4-0.4,8.1c-0.3-0.3-0.7-0.4-1.2-0.4l-4.3,0.2c-0.1,0-0.2,0-0.3,0c0.3-1.7,0.5-3.4,0.5-5.1
	c0-1.1,0-2.3-0.2-3.5c-0.2-0.1-0.3-0.3-0.4-0.6c-0.1-0.5-0.3-1-0.4-1.5c-0.3-0.6-0.6-1.1-1-1.6c0,0.2,0,0.3,0,0.5
	c0.5,2.8,1.1,5.9-0.1,8.6c-1.3,2.7-4.4,3.4-7,4.1c-5.8,1.5-11.9,1.5-17.8,1.4c-1.4,0-2.7-0.1-4.1-0.1c-0.2-0.1-0.3-0.1-0.6-0.2
	c-12.1-2-24.6,0.4-35.1,6.8c-0.3,0.2-0.5,0.4-0.6,0.6c-4.9,2.8-9.3,6.4-13.8,9.8c0,0,0,0,0,0c0,0.2,0,0.3,0,0.5c0,0.7,0,1.3,0.3,1.5
	c0,0,0.1,0,0.3,0.1c0,0,0.3,0,0.6,0c0.8,0,1.6-0.2,2.4-0.5c1.6-1.2,3.2-2.4,4.8-3.5c0,0,0-0.1,0.1-0.1c1.3-1.8,2.9-3.3,4.6-4.8
	c0.9-1.3,2.3-2.3,3.5-3.2c2-1.4,4.2-2.4,6.5-3.3c5.3-2,11.1-1.1,16.7-1.6c0.7-0.3,1.4-0.3,2.1-0.3c0.1,0,0.3,0,0.4-0.1
	c0.6-0.1,1.3,0,1.7,0.4c0.4,0.1,0.9,0.2,1.3,0.2c0.4,0.1,0.9,0.2,1.2,0.5c0.7,0.1,1.4,0.2,2.1,0.3c0.7,0.1,1.3-0.2,1.7-0.6
	c1.7,0.2,3.4,0.3,5.2,0.6c0.3,0.1,0.6,0.2,0.8,0.4c6.3,0.1,12.6-0.3,18.7-2.2c1.2-0.4,2.4-0.8,3.4-1.4c0.1-0.2,0.3-0.4,0.6-0.4
	c2.4-0.5,5.3-0.6,7.8-0.2c0-0.2,0-0.3,0-0.5c0.4,0.3,0.8,0.5,1.3,0.6c1.6,0.4,3.2,0.7,4.8,1.2c1.6,0.5,3.2,1.2,4.7,2
	c2.8,1.5,5.5,3.9,8.9,3.9c1.1,0,2.1-0.2,3-0.6c1.8,3.5,8.6,3.4,12,2.9c0.5-0.1,1-0.2,1.5-0.3c0.5-0.9,2.1-0.8,2,0.4
	c-0.1,0.6-0.3,1.6-0.2,2.2c0.2,0.6,0.9,0.8,1.4,1.1c0.8,0.4,1.6,0.7,2.2,1.4c0.6,0.6,0.8,1.6,1.4,2.2c2.3-0.9,5.3-0.5,7.6-0.5
	c1.7-0.1,3.5-0.6,4.9-1.7c1.3-1.2,2.2-2.8,2.8-4.4c0.1-0.3,0.3-0.5,0.6-0.6c0-0.3,0.1-0.5,0.1-0.8C149.2,29.3,149.2,29.2,149.2,29z"
	/>
<g id="body-fill_1_">
	<ellipse class="st1" cx="122.5" cy="26.7" rx="1" ry="1"/>
	<path class="st1" d="M56.2,15.9c0-0.1,0-0.2,0-0.3c0.1-0.3,0.4-0.4,0.7-0.3c10,4.1,15-0.1,15-0.2c0.2-0.2,0.6-0.2,0.8,0
		c0.2,0.2,0.2,0.6,0,0.8c-0.2,0.2-5.5,4.7-16.1,0.3C56.3,16.3,56.2,16.1,56.2,15.9z"/>
	<path class="st1" d="M156.4,27.5c0,0.1-0.1,0.2-0.1,0.2c-0.2,0.2-0.5,0.2-0.7,0c-7.2-6.8-12.8-4.8-12.9-4.8c-0.3,0.1-0.5,0-0.6-0.3
		c-0.1-0.3,0-0.5,0.3-0.6c0.2-0.1,6.3-2.2,13.9,5C156.4,27.2,156.4,27.4,156.4,27.5z"/>
	<path class="st1" d="M45.6,16.7c0,0.1,0.1,0.2,0,0.3c0,0.3-0.3,0.5-0.6,0.5c-10.7-1.2-14.4,4.2-14.4,4.3c-0.2,0.3-0.5,0.3-0.8,0.2
		c-0.3-0.2-0.3-0.5-0.2-0.8c0.2-0.2,4-6,15.4-4.8C45.3,16.4,45.5,16.6,45.6,16.7z"/>
</g>
<g id="body-line">
	<path class="st2" d="M136.6,25.1c4,0.8,13.9,5.2,20.8,8.7c6.9,3.5,15.9,1.1,17.3,2.2c1.5,1.1,2.7,4.3,3.2,4.3
		c0.5,0,0.7-0.3,0.7-0.3c2.7,4.1,4.5,3.8,5.9,4.1c1.5,0.3-1.5-2.7-4.2-6.8c-2.7-4.1-4-5.7-4-5.7c-12.9-5.7-19.1-7.4-19.1-7.4
		s-9.5-5-12.1-6.8c-3.6-2.4-9.7-4.8-9.7-4.8s-7.9-4.9-16.4-7.1S98.3,8.4,91.1,3.8c0,0-0.5,9.4-1.6,16.3c0,0,5.8,0.8,9.8,2.7
		c0,0,0,1.6,3,1.6c0,0,2,2.4,5.5,2.4c0,0,3,1.4,5.5,0.5c0,0,3,4.9,15.9,1.6c0,0,6.7-1.5,10.1-3.2"/>
	<path class="st2" d="M76,4.4c0,0,2.9-3,7.5-3.3s7.8,2.7,7.8,2.7l-1.7,16.3c0,0-2.3,1.1-7.2,0.5c0,0,3.4-4.1,0.6-11.4S76,4.4,76,4.4
		z"/>
	<path class="st2" d="M113.3,27.8c0,0-0.7-1.4,0-3.8"/>
	<path class="st2" d="M76.1,4.4c0,0-1.5,2.2-3.4,3s-13.1,1.6-20.5,5.7c0,0-3.9,0.8-9.9,0S20.5,24.2,18.8,24
		c-1.7-0.3-2.4,0.5-4.1-1.1c-1.7-1.6-3.6,0.3-4.1,3c-0.5,2.7-5.6,6.2-5.6,6.2s-1.5,1.4-1.2,1.6c0.2,0.3-0.5,1.1,0,2.2
		C4.3,37,3.1,37,3.6,37.8s-0.5,1.9,0,2.7s3.4-1.1,5.6-3c2.2-1.9,11.6-9.8,16.2-11.4s21.5-3.5,21.5-3.5s4.6,1.9,7.3,1.4
		c0,0,10.9,3,27.3-3"/>
	<path class="st2" d="M72.7,7.4c0,0-8-1.9-16.4,0s-8.7-0.3-12.6,0s-21.3,6.2-24.9,4.3s-5.3-3.5-6.8-0.8s-5.8,6.5-7.3,7.3
		S1.4,21,2.4,21c0,0-0.5,1.6,0,1.6c0,0-0.7,0.8-0.2,1.4c0.5,0.5-0.2,3.3,1.2,2.7c1.5-0.5,9.7-7.3,14-8.4c4.4-1.1,7.4-2.1,13.7-1.6"
		/>
	<path class="st2" d="M149.6,30c0,0,3.6,3.5,7.5,5.9c4,2.4,8.7,3.5,9.7,5.7s2.5,3.5,5,4.9s3.5,2.2,3,0.5c0,0,4.5,2.7,5.2,2.4
		c0.7-0.3-0.5-1.6-3.2-3.8c-2.7-2.2-9.8-8.6-11.1-10"/>
	<path class="st2" d="M129.1,29.1c0,0-2.2,3.5-1,4.1s2,0.3,2,0.8s1.5,0.3,1.5,0.3l0.2,1.6h1c0,0-0.2,1.9,0.2,1.9s2.7-1.1,3.7-0.8
		c1,0.3,5.9,1.1,8.7-1.6c2.7-2.7,2.6-6,2.6-6"/>
	<line class="st2" x1="87.3" y1="20.7" x2="88.1" y2="10.1"/>
</g>
</svg>
