<svg id="Layer_1" data-name="Layer 1" xmlns="http://www.w3.org/2000/svg" viewBox="0 0 187.03 50.47"><title>afsprong</title><path d="M137.18,24.95c4,.83,14.06,5.21,21.09,8.8s16.07,1.11,17.58,2.19,2.76,4.39,3.26,4.39a1.06,1.06,0,0,0,.75-.28c2.76,4.13,4.53,3.85,6,4.13s-1.51-2.76-4.27-6.87-4-5.78-4-5.78c-13.07-5.78-19.34-7.5-19.34-7.5s-9.6-5.07-12.31-6.87a64.81,64.81,0,0,0-9.79-4.86,69.53,69.53,0,0,0-16.58-7.15C111,3,98.35,8.08,91.06,3.41c0,0-.52,9.51-1.65,16.51a39.14,39.14,0,0,1,9.93,2.69s0,1.65,3,1.65a7.51,7.51,0,0,0,5.52,2.48s3,1.37,5.52.54c0,0,3,5,16.07,1.65a63.56,63.56,0,0,0,10.29-3.23" style="fill:none;stroke:#4991ff;stroke-miterlimit:10;stroke-width:1.5px"/><path d="M75.8,4.07A12.31,12.31,0,0,1,83.37.77a11.33,11.33,0,0,1,7.86,2.76L89.48,20s-2.34,1.11-7.29.54c0,0,3.49-4.13.59-11.54S75.8,4.07,75.8,4.07Z" style="fill:none;stroke:#4991ff;stroke-miterlimit:10;stroke-width:1.5px"/><path d="M113.57,27.71a5.23,5.23,0,0,1,0-3.85" style="fill:none;stroke:#4991ff;stroke-miterlimit:10;stroke-width:1.5px"/><path d="M75.92,4.07a9.29,9.29,0,0,1-3.42,3c-2,.83-13.23,1.65-20.83,5.78a32.47,32.47,0,0,1-10,0c-6.13-.83-22.06,11.28-23.78,11s-2.45.54-4.18-1.11-3.68.28-4.18,3S3.85,32.1,3.85,32.1s-1.46,1.37-1.23,1.65-.5,1.11,0,2.19-.73,1.11-.24,1.93-.5,1.93,0,2.76,3.42-1.11,5.64-3S19.8,27.73,24.44,26.08s21.8-3.56,21.8-3.56,4.65,1.93,7.36,1.37c0,0,11,3,27.7-3" style="fill:none;stroke:#4991ff;stroke-miterlimit:10;stroke-width:1.5px"/><path d="M72.47,7.09a41.18,41.18,0,0,0-16.66,0C47.23,9,47,6.81,43.08,7.09s-21.56,6.32-25.24,4.39-5.4-3.56-6.87-.83S5.1,17.26,3.61,18.08.19,20.84,1.16,20.84c0,0-.5,1.65,0,1.65,0,0-.73.83-.24,1.37s-.24,3.3,1.23,2.76,9.88-7.43,14.2-8.52S23.88,16,30.29,16.48" style="fill:none;stroke:#4991ff;stroke-miterlimit:10;stroke-width:1.5px"/><path d="M150.37,30a52.91,52.91,0,0,0,7.64,6c4,2.48,8.8,3.56,9.79,5.78s2.5,3.56,5,5,3.52,2.19,3,.54c0,0,4.53,2.76,5.28,2.48s-.5-1.65-3.26-3.85S168,37.17,166.65,35.73" style="fill:none;stroke:#4991ff;stroke-miterlimit:10;stroke-width:1.5px"/><path d="M129.64,29.08s-2.26,3.56-1,4.13,2,.28,2,.83,1.51.28,1.51.28L132.4,36h1s-.26,1.93.26,1.93,2.76-1.11,3.77-.83,6,1.11,8.8-1.65a8.84,8.84,0,0,0,2.62-6.11" style="fill:none;stroke:#4991ff;stroke-miterlimit:10;stroke-width:1.5px"/><path d="M121.9,26.62a1,1,0,1,1,1,1.06A1,1,0,0,1,121.9,26.62Z" style="fill:#4991ff"/><path d="M55.65,15.68a.41.41,0,0,1,0-.28.56.56,0,0,1,.73-.31c10.14,4.15,15.17-.12,15.22-.17a.55.55,0,0,1,.73.83c-.21.19-5.57,4.77-16.37.35A.58.58,0,0,1,55.65,15.68Z" style="fill:#4991ff;stroke:#4991ff;stroke-miterlimit:10;stroke-width:0.25px"/><path d="M157.28,27.45a1.1,1.1,0,0,1-.12.24.49.49,0,0,1-.71,0c-7.31-6.89-13-4.91-13.07-4.88a.54.54,0,0,1-.66-.31.51.51,0,0,1,.31-.66c.26-.09,6.35-2.24,14.11,5.1A.65.65,0,0,1,157.28,27.45Z" style="fill:#4991ff"/><path d="M44.92,16.53a.6.6,0,0,1,0,.28.56.56,0,0,1-.61.5c-10.88-1.2-14.56,4.27-14.6,4.32a.55.55,0,1,1-.92-.59c.17-.24,4-6.11,15.64-4.84A.56.56,0,0,1,44.92,16.53Z" style="fill:#4991ff;stroke:#4991ff;stroke-miterlimit:10;stroke-width:0.25px"/><line x1="87.22" y1="20.56" x2="88.04" y2="9.78" style="fill:none;stroke:#4991ff;stroke-miterlimit:10;stroke-width:1.5px"/></svg>