<svg id="Layer_1" data-name="Layer 1" xmlns="http://www.w3.org/2000/svg" viewBox="0 0 184.38 49.84"><title>afsprong_active</title><path d="M152.8,24.3c-.5-.2-1-.5-1.5-.7s-1.2-.3-1.8-.4a5.78,5.78,0,0,1-1.4-.5,34.49,34.49,0,0,0-5.5-.7c-.1,0-.1,0-.2.1a2.29,2.29,0,0,1,.1,1.4.37.37,0,0,1,.3.1.76.76,0,0,1,.4.2,26,26,0,0,1,4.7.9,37.34,37.34,0,0,1,6,3c.8.2,1.5.4,2.2.6.1,0,.1,0,.2.1C155.2,26.9,154.3,25.2,152.8,24.3Z" transform="translate(-1.27 -0.33)" style="fill:#d8e9ff;opacity:0.5;isolation:isolate"/><path d="M63.3,17.4a15,15,0,0,0,3,0,1.42,1.42,0,0,1,.6-.2h.9a18.23,18.23,0,0,0,4-1.1,2.16,2.16,0,0,1,.9-1.4v-.1c-1.6.2-3.3.3-5,.4a32.47,32.47,0,0,1-9.3-.7,1.62,1.62,0,0,0-2.1,1.4A34,34,0,0,0,63.3,17.4Z" transform="translate(-1.27 -0.33)" style="fill:#d8e9ff;opacity:0.5;isolation:isolate"/><path d="M174.8,45.3a44.27,44.27,0,0,1-6.5-4.9,34.12,34.12,0,0,0-5.8-5c-2.3-1.4-4.9-2.1-7.4-3.2a.1.1,0,0,1-.1-.1,1.8,1.8,0,0,1-1-.1,2,2,0,0,0-1.5,1.3c1.8,1.1,3.5,2.1,5.4,3.1a42.49,42.49,0,0,1,6,3.1,20.75,20.75,0,0,1,4.9,5.8c.8.6,1.5,1.1,2.3,1.6.7.2,1.5.4,2.3.6a1.46,1.46,0,0,1,.9.6c.4,0,.9.1,1.3.1a2.14,2.14,0,0,1,1.2.4l1.1.3a14,14,0,0,1,1.7.9.37.37,0,0,1,.3.1c.1,0,.1-.1.2-.1a4.23,4.23,0,0,0,.7-.5C178.7,47.9,176.8,46.6,174.8,45.3Z" transform="translate(-1.27 -0.33)" style="fill:#d8e9ff;opacity:0.5;isolation:isolate"/><path d="M30.7,17.1a15.62,15.62,0,0,1,5.2-2l-.6-.3a40.74,40.74,0,0,0-18.7,1.3,36.17,36.17,0,0,0-8.5,3.8c-2,1.2-4.4,2.6-5.8,4.6a1.31,1.31,0,0,1,.3,1,4.19,4.19,0,0,0,.1,1.6,9.83,9.83,0,0,0,1.6-.5,2.92,2.92,0,0,1,.9-.2,13,13,0,0,1,2.2-1.9C8.1,24,9,23.4,10,22.8a21.67,21.67,0,0,1,8.7-4.7A43.7,43.7,0,0,1,30.1,17C30.3,17,30.5,17.1,30.7,17.1Z" transform="translate(-1.27 -0.33)" style="fill:#d8e9ff;opacity:0.5;isolation:isolate"/><path d="M29.4,21a1.83,1.83,0,0,0,2.2.4,15.78,15.78,0,0,1,6-2.8,38.3,38.3,0,0,1,6.8-.3A1.57,1.57,0,0,0,46,17.2C40.2,16.4,33.3,16.1,29.4,21Z" transform="translate(-1.27 -0.33)" style="fill:#d8e9ff;opacity:0.5;isolation:isolate"/><path d="M149.2,29c-1-.2-1.9-.5-2.8-.7-.1,0-.1,0-.2-.1-.1.1-.1.2-.2.3a1.39,1.39,0,0,1,1.1.2.9.9,0,0,1,.6,1.2,7.31,7.31,0,0,1-3.3,4l-.2.2c-1.4,1.5-4,1.1-5.8,1-1-.1-2,0-3-.2s-.8-1-1.4-1.6a1,1,0,0,0-.6-.5c-.5-.2-1-.5-1.6-.8-.3-.5-.7-.9-1-1.4a2.11,2.11,0,0,0-1.3-1.6,44.33,44.33,0,0,1,6.5-1.8c0,.1.1.2.2.3a4.8,4.8,0,0,0,2.5-1.4,2.19,2.19,0,0,1,.5-.3,1.64,1.64,0,0,0-1.6-1.2,1.49,1.49,0,0,0-1,.3v-.2a34.19,34.19,0,0,0-8.4,1.3,33,33,0,0,1-7,1.1h-.3c-1.4.2-3.1.4-4.4-.4-1.8-1.1-2.1-3-2-4.8-1.4,1.5-3.2,3-5.3,2.7a9.88,9.88,0,0,1-3.3-1.5c-.4-.2-.7-.5-1.1-.7a1.82,1.82,0,0,1-1.6-.1,13.73,13.73,0,0,1-3.7-2.6,29.11,29.11,0,0,0-5-1.6c-1-.2-2.4-.1-2.9-1.2a9.53,9.53,0,0,1-.8-4,1.65,1.65,0,0,0-.8-1.5c-.6,2.6-.3,5.4-.4,8.1a1.59,1.59,0,0,0-1.2-.4l-4.3.2h-.3a29.37,29.37,0,0,0,.5-5.1,21.14,21.14,0,0,0-.2-3.5.92.92,0,0,1-.4-.6c-.1-.5-.3-1-.4-1.5a8.64,8.64,0,0,0-1-1.6v.5c.5,2.8,1.1,5.9-.1,8.6s-4.4,3.4-7,4.1c-5.8,1.5-11.9,1.5-17.8,1.4-1.4,0-2.7-.1-4.1-.1a4.17,4.17,0,0,0-.6-.2,51.43,51.43,0,0,0-35.1,6.8,1.7,1.7,0,0,0-.6.6c-4.9,2.8-9.3,6.4-13.8,9.8h0V39c0,.7,0,1.3.3,1.5a.77.77,0,0,1,.3.1h.6a6.87,6.87,0,0,0,2.4-.5c1.6-1.2,3.2-2.4,4.8-3.5a.1.1,0,0,1,.1-.1,29.77,29.77,0,0,1,4.6-4.8,15.16,15.16,0,0,1,3.5-3.2,30.56,30.56,0,0,1,6.5-3.3c5.3-2,11.1-1.1,16.7-1.6a5.11,5.11,0,0,1,2.1-.3.6.6,0,0,0,.4-.1,2,2,0,0,1,1.7.4,5.85,5.85,0,0,0,1.3.2,2.57,2.57,0,0,1,1.2.5l2.1.3a2,2,0,0,0,1.7-.6c1.7.2,3.4.3,5.2.6a2,2,0,0,1,.8.4,59.18,59.18,0,0,0,18.7-2.2,17.3,17.3,0,0,0,3.4-1.4.68.68,0,0,1,.6-.4,22.66,22.66,0,0,1,7.8-.2v-.5a3.1,3.1,0,0,0,1.3.6c1.6.4,3.2.7,4.8,1.2a27.65,27.65,0,0,1,4.7,2c2.8,1.5,5.5,3.9,8.9,3.9a7.31,7.31,0,0,0,3-.6c1.8,3.5,8.6,3.4,12,2.9l1.5-.3c.5-.9,2.1-.8,2,.4a8.2,8.2,0,0,0-.2,2.2c.2.6.9.8,1.4,1.1a6.36,6.36,0,0,1,2.2,1.4c.6.6.8,1.6,1.4,2.2,2.3-.9,5.3-.5,7.6-.5a8.79,8.79,0,0,0,4.9-1.7,11.41,11.41,0,0,0,2.8-4.4.9.9,0,0,1,.6-.6c0-.3.1-.5.1-.8C149.2,29.3,149.2,29.2,149.2,29Z" transform="translate(-1.27 -0.33)" style="fill:#d8e9ff;opacity:0.5;isolation:isolate"/><g id="body-fill"><circle cx="121.23" cy="26.37" r="1" style="fill:#4991ff"/><path d="M56.2,15.9v-.3a.52.52,0,0,1,.7-.3c10,4.1,15-.1,15-.2a.57.57,0,0,1,.8.8c-.2.2-5.5,4.7-16.1.3C56.3,16.3,56.2,16.1,56.2,15.9Z" transform="translate(-1.27 -0.33)" style="fill:#4991ff"/><path d="M156.4,27.5a.35.35,0,0,1-.1.2.48.48,0,0,1-.7,0c-7.2-6.8-12.8-4.8-12.9-4.8a.47.47,0,1,1-.3-.9c.2-.1,6.3-2.2,13.9,5A1.09,1.09,0,0,1,156.4,27.5Z" transform="translate(-1.27 -0.33)" style="fill:#4991ff"/><path d="M45.6,16.7c0,.1.1.2,0,.3a.56.56,0,0,1-.6.5c-10.7-1.2-14.4,4.2-14.4,4.3a.58.58,0,0,1-1-.6c.2-.2,4-6,15.4-4.8A.85.85,0,0,1,45.6,16.7Z" transform="translate(-1.27 -0.33)" style="fill:#4991ff"/></g><g id="body-line"><path d="M136.6,25.1c4,.8,13.9,5.2,20.8,8.7s15.9,1.1,17.3,2.2,2.7,4.3,3.2,4.3a.84.84,0,0,0,.7-.3c2.7,4.1,4.5,3.8,5.9,4.1s-1.5-2.7-4.2-6.8-4-5.7-4-5.7c-12.9-5.7-19.1-7.4-19.1-7.4s-9.5-5-12.1-6.8a64.32,64.32,0,0,0-9.7-4.8A68.33,68.33,0,0,0,119,5.5c-8.5-2.2-20.7,2.9-27.9-1.7,0,0-.5,9.4-1.6,16.3a40.31,40.31,0,0,1,9.8,2.7s0,1.6,3,1.6a7.56,7.56,0,0,0,5.5,2.4s3,1.4,5.5.5c0,0,3,4.9,15.9,1.6,0,0,6.7-1.5,10.1-3.2" transform="translate(-1.27 -0.33)" style="fill:none;stroke:#4991ff;stroke-linecap:round;stroke-miterlimit:10;stroke-width:1.5px"/><path d="M76,4.4a12.36,12.36,0,0,1,7.5-3.3,11.26,11.26,0,0,1,7.8,2.7L89.6,20.1s-2.3,1.1-7.2.5c0,0,3.4-4.1.6-11.4S76,4.4,76,4.4Z" transform="translate(-1.27 -0.33)" style="fill:none;stroke:#4991ff;stroke-linecap:round;stroke-miterlimit:10;stroke-width:1.5px"/><path d="M113.3,27.8a5.54,5.54,0,0,1,0-3.8" transform="translate(-1.27 -0.33)" style="fill:none;stroke:#4991ff;stroke-linecap:round;stroke-miterlimit:10;stroke-width:1.5px"/><path d="M76.1,4.4a9.49,9.49,0,0,1-3.4,3c-1.9.8-13.1,1.6-20.5,5.7a32.63,32.63,0,0,1-9.9,0c-6-.8-21.8,11.1-23.5,10.9s-2.4.5-4.1-1.1-3.6.3-4.1,3S5,32.1,5,32.1s-1.5,1.4-1.2,1.6-.5,1.1,0,2.2-.7,1.1-.2,1.9-.5,1.9,0,2.7,3.4-1.1,5.6-3,11.6-9.8,16.2-11.4,21.5-3.5,21.5-3.5,4.6,1.9,7.3,1.4c0,0,10.9,3,27.3-3" transform="translate(-1.27 -0.33)" style="fill:none;stroke:#4991ff;stroke-linecap:round;stroke-miterlimit:10;stroke-width:1.5px"/><path d="M72.7,7.4a40.7,40.7,0,0,0-16.4,0c-8.4,1.9-8.7-.3-12.6,0s-21.3,6.2-24.9,4.3-5.3-3.5-6.8-.8a26.45,26.45,0,0,1-7.3,7.3C3.2,19,1.4,21,2.4,21c0,0-.5,1.6,0,1.6,0,0-.7.8-.2,1.4S2,27.3,3.4,26.7s9.7-7.3,14-8.4,7.4-2.1,13.7-1.6" transform="translate(-1.27 -0.33)" style="fill:none;stroke:#4991ff;stroke-linecap:round;stroke-miterlimit:10;stroke-width:1.5px"/><path d="M149.6,30a50.55,50.55,0,0,0,7.5,5.9c4,2.4,8.7,3.5,9.7,5.7s2.5,3.5,5,4.9,3.5,2.2,3,.5c0,0,4.5,2.7,5.2,2.4s-.5-1.6-3.2-3.8-9.8-8.6-11.1-10" transform="translate(-1.27 -0.33)" style="fill:none;stroke:#4991ff;stroke-linecap:round;stroke-miterlimit:10;stroke-width:1.5px"/><path d="M129.1,29.1s-2.2,3.5-1,4.1,2,.3,2,.8,1.5.3,1.5.3l.2,1.6h1s-.2,1.9.2,1.9,2.7-1.1,3.7-.8,5.9,1.1,8.7-1.6a8.83,8.83,0,0,0,2.6-6" transform="translate(-1.27 -0.33)" style="fill:none;stroke:#4991ff;stroke-linecap:round;stroke-miterlimit:10;stroke-width:1.5px"/><line x1="86.03" y1="20.37" x2="86.83" y2="9.77" style="fill:none;stroke:#4991ff;stroke-linecap:round;stroke-miterlimit:10;stroke-width:1.5px"/></g></svg>