<svg id="Layer_1" data-name="Layer 1" xmlns="http://www.w3.org/2000/svg" viewBox="0 0 102.98 183.31"><title>alle_fasen</title><path d="M47,134.15a2.86,2.86,0,0,1-.21-.71,2.26,2.26,0,0,1-1.12-1.57,10.55,10.55,0,0,1,2.27-8.41,3.53,3.53,0,0,1,1-.91,58.87,58.87,0,0,1,3.55-9.42A2.91,2.91,0,0,1,52.2,110a2.64,2.64,0,0,1-.88.16,2.45,2.45,0,0,1-1.71-.63,61,61,0,0,0-6.24,18.8c-1.12,7.37.3,14.85-1.16,22.12-1.3,6.49-2.47,12.29-2.16,19,.15,3.23,1.07,6.42-2.93,8.61-.85.47-2.06.33-3,.85A4.13,4.13,0,0,0,33,179.88a9.18,9.18,0,0,1,2.33-1c2.46-.64,5,.32,7.43.29a10.1,10.1,0,0,0,1.72-5c-4.66-8.94-.41-18.29,2.53-27,.22-3,0-5.92-.08-8.92C46.87,136.85,46.93,135.5,47,134.15Z" style="fill:#d8e9ff;opacity:0.5"/><path d="M59.64,29.22a2.59,2.59,0,0,1-.54-4c0-2.29,3.08-6.6,3.72-8.92a2.91,2.91,0,0,1-.3-.39c-1.33-2.14-1-4.17-1-6.55a8.63,8.63,0,0,0-3.13-6.22A2.45,2.45,0,0,1,57.64,2a8.16,8.16,0,0,0-3-1A2.87,2.87,0,0,1,53.87.8a2.14,2.14,0,0,0,.5.84C57.74,5.23,59.85,12.55,58,17.2c-1.27,3.17-3.62,6.69-2.77,10.34s6,4.31,10.91,4A17,17,0,0,1,59.64,29.22Z" style="fill:#d8e9ff;opacity:0.5"/><path d="M28.3,68.22a2.8,2.8,0,0,1-.36-.22,2.64,2.64,0,0,1-2.29-.09,2.33,2.33,0,0,1-2.08-.23C21.13,66,20,63,18.79,60.35a3.5,3.5,0,0,1-.3-1.29c-.17-.25-.34-.52-.5-.78-2.66-.68-2.42-5.17.71-5.17a2.52,2.52,0,0,1,1.42.4,2.63,2.63,0,0,1,1.13-.22c2.35,0,6.48,1.2,8.11-1.06a2.69,2.69,0,0,1,2.82-1.08c.56-1.64-1.84-3.53-3.61-2.11-3.49,2.79-11.14,1.76-15.33,1.68a2.12,2.12,0,0,0-2,2.67c1.57,4.74,3.64,9.58,7.53,12.89a19.43,19.43,0,0,0,5,2.91q4.71.59.9,4.1-.41,4.31-3.17,2.42a5.48,5.48,0,0,1-1.51-.34c1.51,1.33,2.29,3,4.39,3.49,1.32.31,4,.28,4.85-.93a2.65,2.65,0,0,1,1.94-1.13l.16-.09a2.71,2.71,0,0,1-.18-.58C30.66,73.83,30.7,69.37,28.3,68.22Z" style="fill:#d8e9ff;opacity:0.5"/><path d="M91.21,51.18s0,0,0,0a2.6,2.6,0,0,0-.11-.36,18.71,18.71,0,0,1-13.38-.84,11.18,11.18,0,0,1-2.2-1.24,14,14,0,0,1-3-1A11.66,11.66,0,0,1,71.25,47a1.63,1.63,0,0,0-1.84.82l-.06,0a17.52,17.52,0,0,1-1,5.28c-1,5.75-6,9.91-6.8,16.18A42.89,42.89,0,0,0,62,83.05c0,.14,0,.28-.07.42.41,2.17-.15,4.2-2.81,4.75-.36.07-.73.13-1.1.18a25,25,0,0,1-4.23,1.31,96.41,96.41,0,0,1,11.13-.27A2.15,2.15,0,0,0,65,90a35.5,35.5,0,0,1,2.54,9.95H67.4a2.28,2.28,0,0,1-.07.26,2.47,2.47,0,0,1-2.53,2.46,2.76,2.76,0,0,1-.83-.12,2.34,2.34,0,0,1-1.8,1.35,1.81,1.81,0,0,0,2.28.88c.15-.06.3-.09.45-.14a3.43,3.43,0,0,1,2.1,1c1.13,1.21,1.87,3.45,2.4,4.92.21.59.41,1.19.61,1.79-.15,2.84-.59,5.68-.94,8.59-.59,4.84-.32,9.6-.48,14.45-.29,9-2.32,17.84-3.24,26.78-.39,3.75-1.12,7.86.21,11,2.06,1.36,4.76,2.4,6.32,3.53,1.12.81,2.19,1.57,3.26,2.26a30.77,30.77,0,0,0,4.85.64c-.06-.44-.11-.89-.15-1.34a2.84,2.84,0,0,1-.51-.42c-1.07-1.13-2.66-1.11-4.07-1.6a7.85,7.85,0,0,1-4.19-3.34,2.68,2.68,0,0,1-1.62-1.06c-2.17-2.95-1.74-5.81-1.41-9.22s0-6.61,1.77-9.65a2.55,2.55,0,0,1,.93-1c.45-2.25.87-4.45,1.15-6.52a93.33,93.33,0,0,0,.67-10,2.75,2.75,0,0,1-.2-.89c-.09-2.18-.3-4.34-.43-6.46a2.87,2.87,0,0,1-.13-3.72,24.47,24.47,0,0,1,.73-6.27,61.87,61.87,0,0,0-.45-9.06,35.85,35.85,0,0,1-.54-7.75,4.26,4.26,0,0,0-1.79-1.15,12.27,12.27,0,0,1,1.72-.91,2.32,2.32,0,0,1-.11-.42c-.55-3.69-2-7.14-2.76-10.77a2.23,2.23,0,0,0-1.17-.63c-.26-.79-.5-1.6-.73-2.43,0-1.59-.2-3.18-.34-4.52,0-.32,0-.63,0-.94a1.93,1.93,0,0,0-1.07-1.78,24,24,0,0,1,1.47-12.29c1.1-2.46,3.09-4.27,4.37-6.63a47.63,47.63,0,0,0,1.2-7.06,37.42,37.42,0,0,0,10.11,2,2.42,2.42,0,0,1,1.84-.76c3.27,0,3.38,4.88.35,5.23a2.71,2.71,0,0,1-.49,2.54,26.06,26.06,0,0,1-4.65,4.94l-.19.13A2.43,2.43,0,0,1,76.82,68a2.72,2.72,0,0,1-.87-.15,8.25,8.25,0,0,0-2,1.56,2.74,2.74,0,0,1-.55.47,14.83,14.83,0,0,0-1.77,3,2.53,2.53,0,0,1-.71.9A2.8,2.8,0,0,1,71.69,77a2.63,2.63,0,0,1,1.1.89h0a2.38,2.38,0,0,1,2.31,1.49,22.73,22.73,0,0,0,4.1-.29,10.06,10.06,0,0,1,2.1-3.19,14.23,14.23,0,0,1-2.8.31q-3.11.42-2.77-4.68a6.6,6.6,0,0,1,1.85-1.79,9.46,9.46,0,0,0,5.66-3.08C85.75,64,87,60.44,88.18,57c.53-.9,1.11-1.78,1.72-2.64a12.23,12.23,0,0,1,.89-2C91.25,51.57,91.22,52.15,91.21,51.18Z" style="fill:#d8e9ff;opacity:0.5"/><path id="body-fill" d="M102.33,47.85c-3.15-7-17.09-10.2-19.29-10.67-4.39-5.33-9-5.11-12.25-5A22,22,0,0,1,59,28.77a19.87,19.87,0,0,1,.08-5,5.8,5.8,0,0,0,1.32-3.23c.92-.27,1.38-1.57,1.69-2.79.41-.65,1.65-2.78.94-4.09A1.65,1.65,0,0,0,62,12.86c.06-2.56-.46-11-9.18-12.74a8,8,0,0,0-2.7,0c-8.74,1.76-9.25,10.2-9.2,12.75a1.69,1.69,0,0,0-1.06.83c-.71,1.32.53,3.45.94,4.09.31,1.2.77,2.52,1.69,2.79a5.82,5.82,0,0,0,1.32,3.23,20.68,20.68,0,0,1,.08,5,22.09,22.09,0,0,1-11.77,3.44c-3.25-.13-7.87-.35-12.27,5C17.73,37.86,2.69,42.71.32,49.64a6,6,0,0,0,.94,5.55c.29.91,2.14,5.31,11.94,12.13a18.14,18.14,0,0,1,3.63,3.45A13.64,13.64,0,0,1,17.54,72a13,13,0,0,0,4.75,5.41c.26.61,1,2.09,2.41,2.09a2.1,2.1,0,0,0,.83-.17,7.1,7.1,0,0,0,1.18.11,2.35,2.35,0,0,0,1.77-.6A3.5,3.5,0,0,0,31,76.58a2,2,0,0,0,.62-.44A2.66,2.66,0,0,0,32.2,74c-.06-.19-1.4-4.8-4.94-6.44a.83.83,0,0,0-.24-.07l-2.26-.24c-1.83-1.75-4.67-4.53-5-5.12a15.65,15.65,0,0,1-1.23-2.68,21.18,21.18,0,0,0-2.63-5.18c.83.05,1.9.1,3.09.1,4,0,8.81-.5,11.57-2.61.05,2.66.8,7.53,4.57,14.13a48.42,48.42,0,0,1,1.4,17.79c-.71,1.32-5.76,11.1-5,20-.56,1.4-3.68,10.13,0,22-.37,2-3,17.72,2,30.15,1.15,5.89,1.92,14.72,0,16-2.48,2-7.08,5.18-9,5.18h0a.88.88,0,0,0-.42.08,3.11,3.11,0,0,0-1.51,1.73,2,2,0,0,0,.11,1.28,2.13,2.13,0,0,0,0,1.48,1.84,1.84,0,0,0,1.12,1,3.39,3.39,0,0,0,2.46.82c2.42,0,5.79-1.45,9.89-4.25a3.59,3.59,0,0,1,1.11-.15,6.56,6.56,0,0,1,2.57.59,5.2,5.2,0,0,0,.89.07,4.16,4.16,0,0,0,3.35-1.39c.83-1,1-2.56.55-4.56,0-.11-3-11-.06-19.28a46.47,46.47,0,0,0,2.78-16.73,17.44,17.44,0,0,0-.4-3.06,18.07,18.07,0,0,1-.18-7,21.51,21.51,0,0,1,2-5.67,41.53,41.53,0,0,0,2.63-6.78,43,43,0,0,0,2.64,6.78,21.5,21.5,0,0,1,2,5.67,17.81,17.81,0,0,1-.17,7,18.86,18.86,0,0,0-.4,3.07,46.07,46.07,0,0,0,2.77,16.7c2.91,8.34,0,19.19-.06,19.34-.46,2-.28,3.49.55,4.53a4.15,4.15,0,0,0,3.36,1.39,4.36,4.36,0,0,0,1.06-.11,6,6,0,0,1,2.4-.54,4,4,0,0,1,1,.1c4.23,2.85,7.6,4.3,10,4.3a3.42,3.42,0,0,0,2.45-.81,1.92,1.92,0,0,0,1.13-1,2.19,2.19,0,0,0,0-1.49,1.82,1.82,0,0,0,.11-1.27A3.09,3.09,0,0,0,78.83,177a1.38,1.38,0,0,0-.53-.08c-1.78,0-6.38-3.18-8.93-5.23-1.89-1.19-1.12-10,0-15.77,5.07-12.56,2.41-28.29,2-30.29,3.67-11.88.55-20.61,0-22,.78-8.87-4.28-18.66-5-20A49.58,49.58,0,0,1,67.77,66c3.88-6.81,4.6-11.77,4.64-14.4,4.05,3.19,11.2,3,14.61,2.71a21.63,21.63,0,0,0-2.59,5.12,15,15,0,0,1-1.22,2.67c-.38.59-3.23,3.38-5.05,5.13l-2.26.24a.84.84,0,0,0-.23.07c-3.54,1.65-4.9,6.25-5,6.6a2.57,2.57,0,0,0,.59,2,1.91,1.91,0,0,0,.62.44,3.52,3.52,0,0,0,2.53,2.28,2.36,2.36,0,0,0,1.77.59,7.47,7.47,0,0,0,1.17-.11,2,2,0,0,0,.83.18c1.37,0,2.16-1.47,2.41-2.09A13.09,13.09,0,0,0,85.38,72a13.31,13.31,0,0,1,.7-1.26,18.35,18.35,0,0,1,3.63-3.45c10-6.91,11.7-11.33,12-12.16A7.71,7.71,0,0,0,102.33,47.85ZM33.6,96.09c.12-.58.25-1.16.4-1.73.09,0,.14.1.23.1H50.9a.75.75,0,1,0,0-1.5H34.39c.21-.71.42-1.4.65-2H67.89a37.17,37.17,0,0,1,1.92,8.28L51.46,110.39,33.11,99.31c.06-.57.12-1.15.22-1.71m14.13,23.67a22.72,22.72,0,0,0-2.17,6.09,19.49,19.49,0,0,0,.19,7.46,16.87,16.87,0,0,1,.37,2.81,45.49,45.49,0,0,1-2.68,16.16c-3.07,8.79-.11,19.75,0,20.19.34,1.5.26,2.59-.27,3.25a2.74,2.74,0,0,1-2.17.82h-.49a7.45,7.45,0,0,0-3-.65,4.43,4.43,0,0,0-1.8.33c-8.54,5.77-10.57,3.69-10.58,3.69h0a.76.76,0,0,0-.44-.32c-.11,0-.31-.1-.36-.21a.84.84,0,0,1,.08-.59.75.75,0,0,0-.05-.77.48.48,0,0,1-.11-.42,1.4,1.4,0,0,1,.58-.66c2.89,0,9.1-5,9.73-5.47,3.44-2.18,1.14-14.94.6-17.61-5.14-12.73-2-29.45-1.93-29.63a.77.77,0,0,0,0-.36c-3.84-12.25-.07-21.25,0-21.33a.66.66,0,0,0,.06-.37A20.26,20.26,0,0,1,33,101l17.63,10.65A33.94,33.94,0,0,1,47.46,121.27Zm22.47,4.1a.6.6,0,0,0,0,.37c0,.17,3.22,16.88-2,29.76-.5,2.54-2.81,15.29.56,17.43.7.56,6.91,5.51,9.8,5.52a1.39,1.39,0,0,1,.58.66.46.46,0,0,1-.11.42.8.8,0,0,0,0,.76,1,1,0,0,1,.09.58c-.06.11-.25.18-.36.22a.68.68,0,0,0-.42.29s-1.83,2.25-10.74-3.74a4.84,4.84,0,0,0-1.66-.26,6.83,6.83,0,0,0-2.83.62c-.08,0-2,.24-2.8-.78-.53-.66-.62-1.75-.28-3.22.13-.47,3.09-11.42,0-20.24a45.42,45.42,0,0,1-2.68-16.13,16.67,16.67,0,0,1,.38-2.82,19.35,19.35,0,0,0,.18-7.46,22.21,22.21,0,0,0-2.16-6.09,33.35,33.35,0,0,1-3.17-9.63l17.63-10.76a20.49,20.49,0,0,1,0,2.78.77.77,0,0,0,.06.37C70,104.12,73.77,113.1,69.92,125.37Zm.87-75.83a.7.7,0,0,0,0,.24c0,.06,1.22,5.77-4.37,15.63A49.23,49.23,0,0,0,65,84a.85.85,0,0,0,.09.29,48.42,48.42,0,0,1,2.28,5.13H35.6a51.35,51.35,0,0,1,2.28-5.13A.73.73,0,0,0,38,84a48.43,48.43,0,0,0-1.51-18.7c-5.52-9.72-4.32-15.42-4.31-15.48a.76.76,0,0,0-1.4-.54c-1.29,2.32-5.49,3.59-11.82,3.59a47.09,47.09,0,0,1-4.75-.24.81.81,0,0,0-.76.41.76.76,0,0,0,.13.86A16.83,16.83,0,0,1,17.08,60a16.78,16.78,0,0,0,1.36,3,74.19,74.19,0,0,0,5.45,5.57.81.81,0,0,0,.44.21l2.4.25c2.79,1.37,4,5.28,4,5.28,0,.59-.11,1-.36,1a.76.76,0,0,0-.74.68c-.13,1.27-1.63,1.56-1.69,1.57a.74.74,0,0,0-.53.37s-.2.12-.68.12a5.52,5.52,0,0,1-1.1-.13.73.73,0,0,0-.58.1.7.7,0,0,1-.32.11c-.44,0-.93-.86-1.09-1.33a.69.69,0,0,0-.29-.37,11.59,11.59,0,0,1-4.46-5,14.79,14.79,0,0,0-.78-1.38,19.32,19.32,0,0,0-4-3.86C3.86,59,2.69,54.72,2.68,54.68a.77.77,0,0,0-.13-.27,4.49,4.49,0,0,1-.8-4.3C4,43.53,20.34,38.61,20.51,38.55a.69.69,0,0,0,.37-.25c3.94-4.93,8-4.74,11.17-4.62l.74,0c5.33,0,11.92-3,12.51-4.41h0c0-.08.44-1.76,0-6a.8.8,0,0,0-.28-.51s-.95-.84-1.08-3.19a.77.77,0,0,0-.52-.68.73.73,0,0,0-.53,0,5.8,5.8,0,0,1-.63-1.73.73.73,0,0,0-.11-.24c-.61-.94-1.15-2.27-.94-2.65.07-.15.74,0,1.08-.38a.75.75,0,0,0,.19-.58c0-.41-1-10.05,8-11.85a5.73,5.73,0,0,1,2.09,0c8.91,1.78,8,11.43,8,11.85a.72.72,0,0,0,.19.58c.31.35,1,.24,1.08.38.21.38-.32,1.72-.94,2.65a.63.63,0,0,0-.11.24,7.85,7.85,0,0,1-.6,1.74.79.79,0,0,0-.56,0,.75.75,0,0,0-.52.68c-.12,2.36-1.08,3.18-1.08,3.18a.75.75,0,0,0-.28.52c-.47,4.23-.06,5.9,0,6h0c.32.84,2.62,1.93,4,2.53a21.27,21.27,0,0,0,9.22,1.87c3.1-.12,7.23-.31,11.17,4.62a.81.81,0,0,0,.45.27c.15,0,15.44,3.11,18.47,9.87a6.24,6.24,0,0,1-.64,6,1,1,0,0,0-.09.22S99.07,59,88.85,66.09a19.57,19.57,0,0,0-4,3.86A14.4,14.4,0,0,0,84,71.34a11.64,11.64,0,0,1-4.46,5,.82.82,0,0,0-.3.37c-.16.46-.65,1.32-1.09,1.32a.64.64,0,0,1-.32-.11.82.82,0,0,0-.58-.09,5.27,5.27,0,0,1-1.11.14,1.21,1.21,0,0,1-.68-.13.76.76,0,0,0-.53-.37s-1.56-.28-1.69-1.56a.75.75,0,0,0-.75-.68.41.41,0,0,1-.17-.11,1.2,1.2,0,0,1-.21-.72s1.19-4,4-5.43l2.39-.25a.82.82,0,0,0,.45-.21c.8-.76,4.85-4.64,5.46-5.57a16.74,16.74,0,0,0,1.36-3,16.81,16.81,0,0,1,3.51-6.11.73.73,0,0,0,.12-.88.76.76,0,0,0-.78-.4c-.07,0-12.62,2-16.58-3.43a.76.76,0,0,0-.93-.24.78.78,0,0,0-.31.3m-6,.12a1.4,1.4,0,1,1-1.4-1.39A1.39,1.39,0,0,1,64.86,49.34Zm-26.62,0a1.39,1.39,0,1,1,1.39,1.39A1.4,1.4,0,0,1,38.24,49.34ZM52.74,83.56a1.22,1.22,0,1,1-1.2-1.42A1.32,1.32,0,0,1,52.74,83.56ZM39,129.07c-8-13.76-2.82-21.83-2.6-22.16a.75.75,0,0,1,1-.21.76.76,0,0,1,.21,1c0,.07-4.85,7.67,2.65,20.58a.75.75,0,1,1-1.3.75Zm26.51-22.58c.22.33,5.4,8.41-2.6,22.16a.74.74,0,0,1-.65.38.81.81,0,0,1-.38-.1.77.77,0,0,1-.28-1c7.5-12.9,2.69-20.51,2.64-20.59a.76.76,0,0,1,.21-1A.78.78,0,0,1,65.53,106.49Zm-.46,44.9a.76.76,0,1,1-1.32.74c-6.44-11.6-2-18.13-1.85-18.4a.77.77,0,0,1,1.05-.18.76.76,0,0,1,.19,1C63.11,134.64,59.13,140.68,65.08,151.39ZM41.42,133.71c.19.28,4.6,6.81-1.84,18.42a.76.76,0,0,1-.66.38.75.75,0,0,1-.36-.1.76.76,0,0,1-.3-1c6-10.71,2-16.75,1.93-16.81a.76.76,0,0,1,.19-1A.77.77,0,0,1,41.42,133.71ZM90,48.69a.75.75,0,0,1-.14,1.06.74.74,0,0,1-1.06-.15c-3.67-4.83-10.8-4.53-10.89-4.52h0a.75.75,0,0,1-.75-.72.76.76,0,0,1,.71-.8C78.16,43.53,85.83,43.2,90,48.69ZM25.55,44.24c0,.42-.32.83-.78.73-.08-.07-7.21-.19-10.8,4.73a.75.75,0,0,1-.61.31.78.78,0,0,1-.45-.15.75.75,0,0,1-.16-1.05c4.08-5.57,11.74-5.34,12.07-5.35A.76.76,0,0,1,25.55,44.24Z" style="fill:#d0d2d3"/></svg>