<svg id="Layer_1" data-name="Layer 1" xmlns="http://www.w3.org/2000/svg" viewBox="0 0 107 190.47"><title>alle_fasen</title><path d="M106.33,49.72c-3.27-7.3-17.75-10.6-20-11.09-4.56-5.54-9.35-5.31-12.72-5.16a22.82,22.82,0,0,1-12.22-3.58,20.64,20.64,0,0,1,.08-5.18,6,6,0,0,0,1.37-3.35c1-.28,1.43-1.64,1.75-2.9.43-.67,1.71-2.89,1-4.24a1.71,1.71,0,0,0-1.1-.86c.06-2.66-.47-11.44-9.54-13.24a8.33,8.33,0,0,0-2.8,0C43,1.94,42.46,10.71,42.51,13.36a1.75,1.75,0,0,0-1.1.86c-.74,1.37.55,3.59,1,4.24.32,1.24.8,2.61,1.75,2.9a6.05,6.05,0,0,0,1.37,3.35,21.49,21.49,0,0,1,.08,5.18,23,23,0,0,1-12.23,3.58c-3.38-.14-8.18-.36-12.75,5.2-2.2.67-17.83,5.71-20.29,12.92a6.19,6.19,0,0,0,1,5.77c.3.95,2.22,5.52,12.41,12.6a18.85,18.85,0,0,1,3.77,3.58,14.17,14.17,0,0,1,.73,1.31,13.52,13.52,0,0,0,4.94,5.62c.27.64,1.07,2.17,2.51,2.17a2.18,2.18,0,0,0,.86-.18,7.38,7.38,0,0,0,1.23.12,2.44,2.44,0,0,0,1.84-.62,3.63,3.63,0,0,0,2.63-2.37,2,2,0,0,0,.65-.45,2.77,2.77,0,0,0,.58-2.25c-.06-.2-1.46-5-5.13-6.69a.86.86,0,0,0-.25-.07l-2.35-.24c-1.9-1.82-4.85-4.7-5.24-5.32a16.26,16.26,0,0,1-1.28-2.79,22,22,0,0,0-2.73-5.38c.87.05,2,.1,3.21.1,4.11,0,9.15-.52,12-2.71.05,2.76.83,7.82,4.75,14.68a50.31,50.31,0,0,1,1.45,18.49c-.74,1.37-6,11.53-5.17,20.75-.58,1.46-3.82,10.53,0,22.88-.38,2.07-3.15,18.41,2.08,31.33,1.2,6.12,2,15.29,0,16.58-2.58,2.08-7.35,5.38-9.32,5.38h0a.92.92,0,0,0-.44.08,3.23,3.23,0,0,0-1.57,1.8,2,2,0,0,0,.12,1.33,2.21,2.21,0,0,0,0,1.54,1.91,1.91,0,0,0,1.16,1,3.52,3.52,0,0,0,2.55.85c2.51,0,6-1.51,10.27-4.41a3.73,3.73,0,0,1,1.15-.15,6.81,6.81,0,0,1,2.67.61,5.41,5.41,0,0,0,.92.07,4.32,4.32,0,0,0,3.48-1.44c.86-1.08,1.06-2.66.57-4.74,0-.11-3.08-11.38-.06-20A48.29,48.29,0,0,0,49.21,143a18.13,18.13,0,0,0-.42-3.18,18.78,18.78,0,0,1-.18-7.24,22.35,22.35,0,0,1,2.12-5.89,43.15,43.15,0,0,0,2.73-7,44.66,44.66,0,0,0,2.74,7,22.34,22.34,0,0,1,2.11,5.89,18.51,18.51,0,0,1-.18,7.23,19.6,19.6,0,0,0-.42,3.19,47.87,47.87,0,0,0,2.88,17.35c3,8.66,0,19.94-.06,20.09-.48,2-.29,3.63.57,4.71a4.31,4.31,0,0,0,3.49,1.44,4.53,4.53,0,0,0,1.1-.12,6.21,6.21,0,0,1,2.49-.56,4.18,4.18,0,0,1,1,.11c4.4,3,7.89,4.47,10.39,4.47a3.56,3.56,0,0,0,2.55-.85,2,2,0,0,0,1.17-1,2.28,2.28,0,0,0,0-1.55,1.89,1.89,0,0,0,.12-1.32,3.21,3.21,0,0,0-1.57-1.8,1.43,1.43,0,0,0-.55-.08c-1.85,0-6.63-3.31-9.27-5.44-2-1.24-1.17-10.41,0-16.38,5.27-13.05,2.5-29.4,2.11-31.48,3.81-12.34.57-21.42,0-22.87C75,98.46,69.75,88.3,69,86.93A51.52,51.52,0,0,1,70.42,68.6c4-7.08,4.78-12.23,4.83-15,4.21,3.31,11.64,3.14,15.18,2.81a22.47,22.47,0,0,0-2.69,5.32,15.63,15.63,0,0,1-1.26,2.78c-.4.61-3.35,3.52-5.25,5.33l-2.35.24a.87.87,0,0,0-.24.07c-3.68,1.71-5.09,6.49-5.17,6.86a2.67,2.67,0,0,0,.61,2.08,2,2,0,0,0,.65.45A3.65,3.65,0,0,0,77.35,82a2.45,2.45,0,0,0,1.84.62,7.76,7.76,0,0,0,1.22-.12,2.12,2.12,0,0,0,.86.19c1.43,0,2.24-1.53,2.51-2.17a13.6,13.6,0,0,0,4.94-5.61,13.83,13.83,0,0,1,.73-1.31A19.07,19.07,0,0,1,93.22,70c10.34-7.18,12.16-11.78,12.43-12.63A8,8,0,0,0,106.33,49.72ZM34.92,99.85c.13-.6.26-1.2.41-1.8.09,0,.15.1.24.1H52.88a.78.78,0,1,0,0-1.56H35.73c.22-.74.44-1.45.68-2.13H70.54a38.63,38.63,0,0,1,2,8.6L53.47,114.7,34.41,103.19c.06-.59.12-1.2.22-1.78M49.31,126a23.61,23.61,0,0,0-2.25,6.33,20.25,20.25,0,0,0,.2,7.75,17.53,17.53,0,0,1,.39,2.92,47.26,47.26,0,0,1-2.78,16.79c-3.19,9.14-.11,20.52,0,21,.35,1.55.27,2.69-.28,3.37a2.84,2.84,0,0,1-2.26.85h-.51a7.74,7.74,0,0,0-3.08-.68,4.6,4.6,0,0,0-1.87.34c-8.87,6-11,3.83-11,3.83h0a.79.79,0,0,0-.46-.33c-.12,0-.32-.1-.37-.21a.87.87,0,0,1,.08-.61.78.78,0,0,0-.05-.8.5.5,0,0,1-.11-.43,1.45,1.45,0,0,1,.61-.69c3,0,9.46-5.15,10.11-5.68,3.58-2.27,1.19-15.53.63-18.3-5.34-13.22-2-30.61-2-30.79a.8.8,0,0,0,0-.38c-4-12.73-.07-22.08,0-22.17a.69.69,0,0,0,.06-.38,21,21,0,0,1,0-2.78L52.6,116A35.26,35.26,0,0,1,49.31,126Zm23.34,4.26a.62.62,0,0,0,0,.38c0,.17,3.35,17.54-2,30.93-.52,2.63-2.92,15.89.59,18.11.73.58,7.18,5.73,10.18,5.73a1.44,1.44,0,0,1,.61.69.48.48,0,0,1-.11.43.83.83,0,0,0-.05.79,1,1,0,0,1,.09.61c-.06.12-.26.18-.37.22a.7.7,0,0,0-.44.31s-1.9,2.34-11.16-3.88a5,5,0,0,0-1.73-.27,7.09,7.09,0,0,0-2.94.65c-.08,0-2.07.25-2.91-.81-.55-.68-.64-1.82-.3-3.34.14-.49,3.21-11.87,0-21A47.19,47.19,0,0,1,59.28,143a17.33,17.33,0,0,1,.39-2.93,20.1,20.1,0,0,0,.19-7.75A23.08,23.08,0,0,0,57.62,126a34.65,34.65,0,0,1-3.3-10l18.32-11.18a21.29,21.29,0,0,1,0,2.89.8.8,0,0,0,.06.39C72.72,108.19,76.65,117.52,72.66,130.27Zm.91-78.8a.72.72,0,0,0,0,.25c0,.06,1.27,6-4.54,16.24a51.15,51.15,0,0,0-1.5,19.28.88.88,0,0,0,.1.3A50.31,50.31,0,0,1,70,92.86H37a53.36,53.36,0,0,1,2.37-5.33.76.76,0,0,0,.1-.3A50.32,50.32,0,0,0,37.89,67.8c-5.74-10.1-4.49-16-4.47-16.09A.79.79,0,0,0,32,51.15c-1.34,2.41-5.7,3.73-12.28,3.73a48.93,48.93,0,0,1-4.94-.25.85.85,0,0,0-.79.43.79.79,0,0,0,.14.9,17.49,17.49,0,0,1,3.66,6.34,17.43,17.43,0,0,0,1.42,3.07,77.09,77.09,0,0,0,5.67,5.79.85.85,0,0,0,.46.21l2.49.25c2.89,1.43,4.12,5.49,4.15,5.49,0,.61-.11,1-.37,1a.79.79,0,0,0-.77.71c-.14,1.32-1.7,1.62-1.76,1.63a.77.77,0,0,0-.55.38s-.21.13-.71.13a5.74,5.74,0,0,1-1.14-.14.76.76,0,0,0-.6.1.73.73,0,0,1-.33.11c-.46,0-1-.89-1.14-1.38a.71.71,0,0,0-.3-.38,12,12,0,0,1-4.63-5.18,15.37,15.37,0,0,0-.81-1.44,20.07,20.07,0,0,0-4.19-4C4,61.27,2.79,56.85,2.79,56.82a.8.8,0,0,0-.13-.29,4.66,4.66,0,0,1-.84-4.47c2.33-6.84,19.31-11.95,19.49-12a.71.71,0,0,0,.39-.25c4.09-5.12,8.36-4.92,11.6-4.8l.76,0c5.53,0,12.39-3.16,13-4.58h0c0-.08.45-1.82,0-6.21a.83.83,0,0,0-.29-.53s-1-.87-1.12-3.32a.8.8,0,0,0-.54-.71.75.75,0,0,0-.55,0,6,6,0,0,1-.66-1.79.76.76,0,0,0-.11-.25c-.64-1-1.2-2.35-1-2.75.08-.15.77,0,1.12-.4a.78.78,0,0,0,.19-.6c0-.43-1-10.44,8.28-12.31a6,6,0,0,1,2.17,0c9.26,1.85,8.31,11.88,8.27,12.31a.75.75,0,0,0,.19.6c.32.37,1,.24,1.12.4.21.4-.33,1.79-1,2.75a.65.65,0,0,0-.11.25,8.16,8.16,0,0,1-.62,1.8.82.82,0,0,0-.58,0,.78.78,0,0,0-.54.71c-.13,2.45-1.12,3.31-1.12,3.31a.78.78,0,0,0-.3.54c-.49,4.39-.06,6.13,0,6.21h0c.33.87,2.72,2,4.19,2.62A22.1,22.1,0,0,0,73.64,35c3.22-.13,7.51-.32,11.6,4.8a.84.84,0,0,0,.46.28c.15,0,16,3.23,19.2,10.25a6.48,6.48,0,0,1-.66,6.26,1,1,0,0,0-.09.22s-1.21,4.46-11.84,11.84a20.34,20.34,0,0,0-4.19,4,15,15,0,0,0-.81,1.45,12.09,12.09,0,0,1-4.63,5.18.85.85,0,0,0-.31.39c-.16.48-.68,1.38-1.13,1.38a.67.67,0,0,1-.34-.11.85.85,0,0,0-.6-.1,5.48,5.48,0,0,1-1.15.14,1.26,1.26,0,0,1-.71-.14.79.79,0,0,0-.55-.38s-1.62-.29-1.76-1.62a.78.78,0,0,0-.77-.71.42.42,0,0,1-.18-.11,1.24,1.24,0,0,1-.22-.75s1.24-4.2,4.18-5.65l2.48-.25a.86.86,0,0,0,.46-.22c.83-.79,5-4.82,5.67-5.79a17.39,17.39,0,0,0,1.41-3.07A17.46,17.46,0,0,1,92.85,56a.76.76,0,0,0,.12-.91.79.79,0,0,0-.81-.42c-.07,0-13.12,2-17.23-3.57a.79.79,0,0,0-1-.25.81.81,0,0,0-.32.31m-6.25.13a1.45,1.45,0,1,1-1.45-1.45A1.45,1.45,0,0,1,67.4,51.26Zm-27.66,0a1.45,1.45,0,1,1,1.45,1.44A1.45,1.45,0,0,1,39.74,51.26ZM54.8,86.83a1.27,1.27,0,1,1-1.25-1.48A1.37,1.37,0,0,1,54.8,86.83ZM40.55,134.11c-8.32-14.29-2.93-22.69-2.7-23a.78.78,0,0,1,1.09-.22.79.79,0,0,1,.22,1.09c-.05.08-5,8,2.75,21.39a.78.78,0,1,1-1.35.78Zm27.55-23.47c.23.34,5.62,8.73-2.71,23a.77.77,0,0,1-.68.4.84.84,0,0,1-.39-.11A.8.8,0,0,1,64,132.9c7.79-13.4,2.8-21.31,2.75-21.39a.79.79,0,0,1,.22-1.08A.81.81,0,0,1,68.09,110.65Zm-.47,46.66a.79.79,0,1,1-1.38.77c-6.69-12.05-2.11-18.84-1.92-19.12a.8.8,0,0,1,1.09-.19.79.79,0,0,1,.2,1.09C65.58,139.9,61.44,146.18,67.62,157.31ZM43,138.93c.2.29,4.78,7.08-1.91,19.13a.78.78,0,0,1-.69.4.78.78,0,0,1-.38-.1.79.79,0,0,1-.31-1.07c6.19-11.13,2-17.4,2-17.47a.79.79,0,0,1,.2-1.09A.8.8,0,0,1,43,138.93ZM93.52,50.59a.78.78,0,0,1-.15,1.1.77.77,0,0,1-1.1-.16c-3.82-5-11.22-4.7-11.31-4.7h0a.78.78,0,0,1-.78-.75.79.79,0,0,1,.74-.83C81.21,45.23,89.18,44.89,93.52,50.59ZM26.55,46c0,.43-.34.86-.81.76-.08-.08-7.49-.19-11.22,4.91a.78.78,0,0,1-.63.32.81.81,0,0,1-.46-.15.78.78,0,0,1-.17-1.09c4.24-5.79,12.2-5.55,12.54-5.56A.79.79,0,0,1,26.55,46Z" style="fill:#4991ff"/></svg>