<?xml version="1.0" encoding="utf-8"?>
<!-- Generator: Adobe Illustrator 21.1.0, SVG Export Plug-In . SVG Version: 6.00 Build 0)  -->
<svg version="1.1" id="Layer_1" xmlns="http://www.w3.org/2000/svg" xmlns:xlink="http://www.w3.org/1999/xlink" x="0px" y="0px"
	 viewBox="0 0 163.9 53.8" style="enable-background:new 0 0 163.9 53.8;" xml:space="preserve">
<style type="text/css">
	.st0{opacity:0.5;fill:#D8E9FF;}
	.st1{fill:none;stroke:#D0D2D3;stroke-width:1.5;stroke-linecap:round;stroke-linejoin:round;stroke-miterlimit:10;}
	.st2{fill:#D0D2D3;}
</style>
<title>keerpunt</title>
<path class="st0" d="M118.5,20.5c-0.5-0.2-0.9-0.3-1.5-0.3c0,0.2,0.1,0.5,0.1,0.7c0.2,0.1,0.4,0.3,0.4,0.6c0.2,0.8,0.5,1.6,0.6,2.4
	c0.2,0.2,0.3,0.4,0.4,0.7c0,0.2,0,0.4,0.1,0.6c1.6,2.5,1.4,6.9-0.4,9.3c-0.2,0.5-0.4,1.1-0.6,1.6c0.1,0,0.2,0.1,0.3,0.2
	c0.3-0.1,0.5-0.3,0.8-0.4c0,0,0,0,0,0C121.9,31.3,121.8,25,118.5,20.5z"/>
<path class="st0" d="M45.1,34.5c-2.3-0.3-5.1-0.4-5.9-2.9c-0.4-1.2-1.2-4.7,0.3-5.5c0.8-0.4,1-1.2,0.8-1.9c-0.8,1.1-1.7,2.2-2.4,3.4
	c-0.9,1.5-1.4,3-1.5,4.6c0.1,0.2,0.2,0.4,0.2,0.6c0,0.2,0,0.5,0,0.7c0.1,0.2,0.2,0.4,0.3,0.5c-0.1,0-0.2,0.1-0.2,0.1
	c0.1,0.5,0.2,1,0.4,1.4c-0.1,0-0.2-0.1-0.3-0.1c-1.4-0.2-2.9-0.3-4.3-0.4c-2.7,0.4-5.4,0.1-8.1,0.4c-1.3,0.2-2.6,0.4-3.8,0.8
	c-1.1,0.5-2.1,1-3.2,1.5c0,0-0.1,0.1-0.1,0.1c-1,1-2.1,1.8-3.3,2.4c-1,1-2.1,2-3.2,3c-1.4,1.1-2.9,2.3-4.7,2.8
	c-0.4,0.5-0.9,1-1.4,1.5c0.6,0,1.1-0.2,1.7-0.6c1.1-0.7,2.2-1.4,3.3-2.1c0.3-0.2,0.5-0.4,0.6-0.7c2.4-1.5,4.9-2.8,7.6-3.7
	c0.8-0.3,1.5-0.5,2.3-0.7c0.1-0.2,0.2-0.4,0.4-0.5c3-2,6.3-2.3,9.6-2.3c1.9-0.6,4.2-0.1,6.1-0.1c0.3,0,0.6,0.1,0.7,0.3
	c0.3,0,0.5,0,0.8,0c0-0.2,0-0.4-0.1-0.5c1.2,0,2.5,0,3.6,0.4c0.1,0,0.2,0.1,0.3,0.2c3,0.7,6.2,0.9,9.3,1.1c2.5-0.5,4.9-1.3,6.8-3.3
	C53.5,35.2,49.3,35,45.1,34.5z"/>
<path class="st0" d="M157.8,17c0-0.2,0-0.4,0.1-0.6c0,0-0.1,0.1-0.1,0.2c-0.1,0.3-0.3,0.6-0.4,0.9c-0.3,2-0.9,4.1-2.8,5.2
	c-0.7,0.4-1.6,0.7-2.5,0.7c-0.1,0-0.2,0.1-0.3,0.1c-0.1-0.1-0.3-0.1-0.5-0.1c0,0-0.1,0-0.1,0c-0.1,0-0.1,0-0.2,0
	c-0.6,0.1-1.2-0.1-1.7-0.4c-0.3-0.1-0.5-0.2-0.7-0.4c-1-0.6-1.7-1.4-2.3-2.3c-0.9-0.6-2-1.3-2.1-2.1c0-0.3-0.1-0.6-0.3-0.8
	c0-0.1,0-0.1,0-0.2c-0.9-0.5-1.9-0.7-2.8-1.1c0,0-0.1,0.1-0.1,0.1c0.8,0.7,1.4,1.5,2.1,2.4c0.6,0.8,1.1,1.6,1.6,2.4
	c0.4-0.1,0.8,0,1.1,0.5c0.4,0.7,0.8,1.4,1.4,2.1c0.1,0,0.3,0,0.4,0c1.5,0.6,3,1.1,4.2,2.2c0,0,0.1,0.1,0.1,0.1
	c0.8,0.1,1.6,0.2,2.3,0.3c0.3-0.1,0.5-0.3,0.8-0.5c0.5-0.8,1.1-1.6,1.8-2.3c0.8-1.8,1.5-3.6,2.3-5.4C158.6,18.1,157.8,17.7,157.8,17
	z"/>
<path class="st0" d="M162.4,20.8c-0.3-1-0.6-2-0.9-3c0,0,0,0.1,0,0.1c0,0,0,0,0,0.1c-0.9,3.8-1.9,7.5-2.8,11.3c-0.3,1-0.5,2-0.8,3.1
	c-0.2,0.7-0.3,1.8-0.9,2.3c-1.1,0.9-2.8-0.4-3.6-1.2c-1.3-1.3-2.3-2.7-3.8-3.9c-1.5-1.2-3.1-2.1-4.8-2.9c-3.7-1.9-7.5-3.8-11.2-5.8
	c-1.5-0.8-3.1-1.8-4.4-3c-1.1-0.7-2-1.5-2.8-2.5c-0.7-0.6-1.4-1.3-2-2.1c-0.1-0.2-0.2-0.3-0.3-0.5c0,0-0.1,0.1-0.1,0.1
	c-2.1,2.4-2.1,5.4-1.8,8.4c0.4,3.4,0.6,6.7,0.2,10c-0.4,3.4-1.3,6.7-2.7,9.8c-0.7,1.5-1.4,3.2-2.5,4.5c-1,1.2-2.5,1.6-4,1.6
	c-2.9,0.1-5.8-1.2-7.1-3.9c-0.3-0.6-0.8-0.9-1.3-0.9c0.8,1.3,1.1,2.8,1.1,4.3c1,1.4,2.5,2.5,4.1,3.5c-1.1,0-2.3,0.1-3.4-0.3
	c-1.3-0.4-2.5-1.2-3.6-1.8c-1.3-0.7-2.6-1.4-3.9-2.2c-0.2-0.1-0.4-0.2-0.6-0.2c0.2-0.5,0.5-1.1,0.7-1.6c-0.9-0.3-1.9-0.5-2.8-0.6
	c-12.5-3.2-26.5,2.1-39.2,2.3c-1.4,0-2.8,0-4.1-0.1c-0.1,0-0.2-0.1-0.3-0.1c-3.1-1-5.6-3-8.8-3.9C37.5,40,31,41.8,24.6,42
	c-3.3,0.1-7.1-0.9-10,1.1c-1.5,1-2.3,2.5-3.9,3.3c-1.5,0.8-3.2,1.2-4.8,1.6c-1,0.3-1.4,1.2-1.2,2c3.2-0.6,6-2.2,8.9-3.7
	c0.7-0.3,1.3-0.6,2-0.9c0.7-0.6,1.5-1.1,2.3-1.6c0.6-0.3,1.1,0,1.4,0.4c0.9-0.2,1.8-0.3,2.7-0.3c3.6-0.2,7.1-0.7,10.6-0.9
	c3.5-0.2,6.9,0,10.3,0.9c0.8,0.2,1.6,0.5,2.4,0.8c-0.7,0-1.2,0.5-1.4,1c2.2,0.8,4.6,1.2,6.9,1.7c0-0.2,0-0.4,0-0.6
	c0.6,0.3,1.3,0.5,1.9,0.8c0.3,0.1,0.5,0.4,0.5,0.7c7.7,0,15.3-0.4,22.9-1c3.8-0.3,7.6-0.7,11.4-1c3.1-0.3,6.2-0.5,9.2,0.5
	c-0.1,0.2-0.1,0.3-0.1,0.5c3.6-0.2,6.3,3.3,9.3,4.8c1.9,0.9,4.4,1.3,6.5,1.1c1.5-0.1,2.9-0.7,4.3-1.5c0-0.2-0.1-0.3-0.1-0.5
	c0.2-0.1,0.4-0.3,0.7-0.4c0.8-0.8,1.5-1.6,2.4-2.3c0,0,0,0,0,0c-0.1-0.1-0.1-0.2-0.2-0.3c0.2-0.2,0.3-0.4,0.5-0.6
	c2-2.4,3.3-5.6,4.3-8.6c0-1.4,0.2-2.7,0.4-4.1c0.3-2.3,0.4-4.6,0.4-6.9c0.1-3,0.2-5.9,0.2-8.9c-0.1-0.1-0.2-0.2-0.3-0.3
	c-0.9-1,0.6-2.4,1.4-1.4c4.4,5,11.1,6.5,16.5,10.2c0.3,0.2,0.4,0.5,0.5,0.7c0,0,0.1,0,0.1,0.1c1.8,0.9,3.6,1.7,5.1,2.9
	c1,0.7,1.8,1.6,2.6,2.4c0.7,0.7,1.5,1.5,2.2,2.1c1.3,0.9,2.8,1.3,4.4,1.3c0.5-0.2,1-0.5,1.4-0.8c0.4-1.5,0.7-3,1-4.5
	c0.4-2.2,0.8-4.4,1.2-6.6c0.3-1.4,0.6-2.8,1.1-4.2C162.4,20.9,162.4,20.9,162.4,20.8z"/>
<g id="body-line_2_">
	<path class="st1" d="M60.6,34.3c-3,0-3.9,1.7-3.9,1.7c-3.5,3.9-14.3,0.9-21.7,0.4c-7.4-0.4-10,0.4-14.7,2.6
		c-4.8,2.2-13.4,8.2-13.4,8.2c-3.9,3-3,3-3,3c1.7-0.9,5.2-2.2,7.4-2.6c2.2-0.4,3.9-3.5,5.6-3.9c1.7-0.4,10,0.4,13.9-0.4
		s10.4,0,16.9,3c6.5,3,19.1,1.3,19.1,1.3c6.5,0.4,16.9-1.3,16.9-1.3s11.3-3,17.8,2.6c6.5,5.6,11.7,5.6,18.6-1.3s4.3-32.5,4.3-32.5
		c3,6.5,18.6,12.1,23.8,15.2c5.2,3,3,4.3,6.9,6.1s4.3-3.5,4.8-5.6c0.4-2.2,1.7-7.8,2.2-8.7s0-1.7,0-1.7c0-0.9-0.4-1.7-0.4-1.7
		c0-0.9-0.4-1.3-0.4-1.3c0.4-0.9-0.4-1.3-0.4-1.3c-0.9-0.4-3,6.1-5.6,8.7s-6.9-0.9-6.9-0.9c-7.4-8.2-19.1-19.9-19.1-19.9
		s-5.6-6.9-13.4,2.2s-9.5,29-9.5,29s-4.9,13,7.8,16.6"/>
	<path class="st1" d="M133.1,7.9c0,0,16.6,17,20.1,13.5c0,0,0.9-0.9,2.6-3c1.7-2.2,1.7-1.7,1.7-1.7s0.4,0.4,0.4,0.9s0.4,0.4,0.4,0.9
		s0.2,0.8,0.2,0.8"/>
	<path class="st1" d="M106.6,31.3c0,0-8.1-2.4-12.8-2.8C89,28,89,26.3,81.2,27.1s-9.5-3-18.6,5.2c0,0-1.7,0.9-3.9,0
		c0,0,2.6-3.9,1.3-5.2c-1.3-1.3-2.6-0.4-2.6-0.9s-1.3-0.9-1.3-0.9s0.9-0.9,0.4-1.3c-0.9-0.9-4.4,0.2-4.8,0c-0.9-0.4-5.8-1.6-6.9-1.3
		c-3,0.9-7.4,3-7.8,7.8c-0.4,4.8,0.3,5.8,0.3,5.8"/>
	<path class="st1" d="M36.8,33.8c0,0-10.3,0.3-19.8,4.6c0,0-0.9,0-3.9,0.4c-3,0.4-4.3,3.5-6.1,6.1S0.6,51,2.3,51
		C2.7,51,4,49.7,4,49.7"/>
	<line class="st1" x1="101.8" y1="30" x2="97.9" y2="46.4"/>
	<path class="st1" d="M75.6,27.1c0,0,2.8,0.2,2.8,2.5"/>
	<line class="st1" x1="103.6" y1="30.4" x2="101.8" y2="38.7"/>
</g>
<g id="body-fill_3_">
	<ellipse class="st2" cx="71.6" cy="33.8" rx="1.1" ry="1.3"/>
	<path class="st2" d="M117.8,20.4c5,10.1,1,15.5,0.8,15.7c-0.2,0.2-0.5,0.3-0.7,0.1c-0.2-0.2-0.3-0.5-0.1-0.7c0,0,3.8-5.2-0.9-14.6
		c-0.1-0.3,0-0.6,0.2-0.7c0.1,0,0.2-0.1,0.3-0.1C117.5,20.1,117.7,20.2,117.8,20.4z"/>
	<path class="st2" d="M142.6,24.4c-11.1-2-13-8.5-13.1-8.8c-0.1-0.3,0.1-0.6,0.4-0.7c0.3-0.1,0.6,0.1,0.7,0.4c0,0.1,1.9,6.1,12.3,8
		c0.3,0.1,0.5,0.3,0.4,0.6c0,0.1-0.1,0.2-0.1,0.3C143,24.4,142.8,24.5,142.6,24.4z"/>
</g>
</svg>
