<svg id="Layer_1" data-name="Layer 1" xmlns="http://www.w3.org/2000/svg" viewBox="0 0 163.86 53.83"><title>keerpunt</title><path d="M70.24,33.56a1.23,1.23,0,0,1,1.15-1.27,1.21,1.21,0,0,1,1.15,1.27,1.23,1.23,0,0,1-1.15,1.27A1.21,1.21,0,0,1,70.24,33.56Z" style="fill:#4991ff"/><path d="M60.2,34c-3.09,0-4,1.75-4,1.75-3.52,4-14.5.87-22,.44s-10.11.44-14.94,2.62S5.73,47.17,5.73,47.17c-4,3.09-3.09,3.09-3.09,3.09a37.45,37.45,0,0,1,7.46-2.62c2.19-.44,4-3.52,5.71-4s10.11.44,14-.44,10.54,0,17.13,3.09,19.32,1.31,19.32,1.31c6.58.44,17.13-1.31,17.13-1.31s11.42-3.09,18,2.62,11.86,5.71,18.88-1.31,4.4-32.95,4.4-32.95C127.8,21.27,143.6,27,148.87,30.07s3.09,4.4,7,6.15,4.4-3.52,4.83-5.71a87.1,87.1,0,0,1,2.19-8.8,2.11,2.11,0,0,0,0-1.75,4.52,4.52,0,0,0-.44-1.75A1.92,1.92,0,0,0,162,16.9a1,1,0,0,0-.44-1.31c-.87-.44-3.09,6.15-5.71,8.8s-7-.87-7-.87c-7.46-8.33-19.32-20.19-19.32-20.19s-5.71-7-13.61,2.19-9.67,29.42-9.67,29.42-5,13.17,7.92,16.83" style="fill:none;stroke:#4991ff;stroke-miterlimit:10;stroke-width:1.5px"/><path d="M133.63,7.36S150.46,24.59,154,21.09A40.06,40.06,0,0,0,156.6,18c1.75-2.19,1.75-1.75,1.75-1.75a1.53,1.53,0,0,1,.44.87c0,.44.44.44.44.87a1.7,1.7,0,0,0,.23.81" style="fill:none;stroke:#4991ff;stroke-miterlimit:10;stroke-width:1.5px"/><path d="M106.8,31s-8.17-2.44-13-2.88S89,25.92,81.06,26.8s-9.67-3.09-18.88,5.27a5.16,5.16,0,0,1-4,0s2.62-4,1.31-5.27-2.62-.44-2.62-.87S55.6,25,55.6,25s.87-.87.44-1.31c-.87-.87-4.44.21-4.83,0-.87-.44-5.82-1.66-7-1.31-3.09.87-7.46,3.09-7.9,7.9s.3,5.92.3,5.92" style="fill:none;stroke:#4991ff;stroke-miterlimit:10;stroke-width:1.5px"/><path d="M36.12,33.52a59,59,0,0,0-20.05,4.67,36.18,36.18,0,0,0-4,.44C9,39.07,7.71,42.15,6,44.78s-6.58,6.15-4.83,6.15c.44,0,1.75-1.31,1.75-1.31" style="fill:none;stroke:#4991ff;stroke-miterlimit:10;stroke-width:1.5px"/><line x1="101.95" y1="29.65" x2="98.03" y2="46.3" style="fill:none;stroke:#4991ff;stroke-miterlimit:10;stroke-width:1.5px"/><path d="M75.38,26.73s2.88.23,2.88,2.49" style="fill:none;stroke:#4991ff;stroke-miterlimit:10;stroke-width:1.5px"/><line x1="103.79" y1="30.13" x2="101.95" y2="38.47" style="fill:none;stroke:#4991ff;stroke-miterlimit:10;stroke-width:1.5px"/><path d="M118.18,19.93c5.07,10.2,1,15.73.81,16a.53.53,0,0,1-.76.09.55.55,0,0,1-.09-.76S122,30,117.21,20.4a.52.52,0,0,1,.25-.71.4.4,0,0,1,.28,0A.52.52,0,0,1,118.18,19.93Z" style="fill:#4991ff"/><path d="M143.23,24.08c-11.21-2-13.22-8.59-13.28-8.86a.53.53,0,0,1,.37-.67.57.57,0,0,1,.67.37c0,.07,1.93,6.19,12.43,8.1a.54.54,0,0,1,.44.62.85.85,0,0,1-.12.25A.54.54,0,0,1,143.23,24.08Z" style="fill:#4991ff"/></svg>