<svg id="Layer_1" data-name="Layer 1" xmlns="http://www.w3.org/2000/svg" viewBox="0 0 161.89 52.96"><title>keerpunt_active</title><path d="M118.5,20.5a3.65,3.65,0,0,0-1.5-.3c0,.2.1.5.1.7a.68.68,0,0,1,.4.6,21,21,0,0,1,.6,2.4,1.61,1.61,0,0,1,.4.7,1.27,1.27,0,0,0,.1.6,9.13,9.13,0,0,1-.4,9.3c-.2.5-.4,1.1-.6,1.6.1,0,.2.1.3.2.3-.1.5-.3.8-.4h0A13.38,13.38,0,0,0,118.5,20.5Z" transform="translate(-1.18 -0.74)" style="fill:#d8e9ff;opacity:0.5;isolation:isolate"/><path d="M45.1,34.5c-2.3-.3-5.1-.4-5.9-2.9-.4-1.2-1.2-4.7.3-5.5a1.56,1.56,0,0,0,.8-1.9,41.45,41.45,0,0,0-2.4,3.4,10,10,0,0,0-1.5,4.6,1.42,1.42,0,0,1,.2.6v.7a2.19,2.19,0,0,0,.3.5.35.35,0,0,0-.2.1,5.73,5.73,0,0,0,.4,1.4c-.1,0-.2-.1-.3-.1-1.4-.2-2.9-.3-4.3-.4-2.7.4-5.4.1-8.1.4a23.28,23.28,0,0,0-3.8.8c-1.1.5-2.1,1-3.2,1.5l-.1.1A12.66,12.66,0,0,1,14,40.2c-1,1-2.1,2-3.2,3A14,14,0,0,1,6.1,46a19.2,19.2,0,0,1-1.4,1.5,2.93,2.93,0,0,0,1.7-.6l3.3-2.1a1.34,1.34,0,0,0,.6-.7,35.63,35.63,0,0,1,7.6-3.7,20.16,20.16,0,0,1,2.3-.7,1,1,0,0,1,.4-.5c3-2,6.3-2.3,9.6-2.3,1.9-.6,4.2-.1,6.1-.1a.78.78,0,0,1,.7.3h.8a.75.75,0,0,0-.1-.5,10.78,10.78,0,0,1,3.6.4c.1,0,.2.1.3.2a57.61,57.61,0,0,0,9.3,1.1A12.12,12.12,0,0,0,57.7,35,75.91,75.91,0,0,1,45.1,34.5Z" transform="translate(-1.18 -0.74)" style="fill:#d8e9ff;opacity:0.5;isolation:isolate"/><path d="M157.8,17a1.27,1.27,0,0,1,.1-.6.35.35,0,0,0-.1.2c-.1.3-.3.6-.4.9-.3,2-.9,4.1-2.8,5.2a5.2,5.2,0,0,1-2.5.7c-.1,0-.2.1-.3.1a.75.75,0,0,0-.5-.1H151a2.54,2.54,0,0,1-1.7-.4,1.61,1.61,0,0,1-.7-.4,7.22,7.22,0,0,1-2.3-2.3c-.9-.6-2-1.3-2.1-2.1a1.14,1.14,0,0,0-.3-.8v-.2c-.9-.5-1.9-.7-2.8-1.1l-.1.1a16.41,16.41,0,0,1,2.1,2.4c.6.8,1.1,1.6,1.6,2.4a.93.93,0,0,1,1.1.5,12.78,12.78,0,0,0,1.4,2.1h.4a13,13,0,0,1,4.2,2.2l.1.1,2.3.3a3.51,3.51,0,0,0,.8-.5,13,13,0,0,1,1.8-2.3c.8-1.8,1.5-3.6,2.3-5.4A1.13,1.13,0,0,1,157.8,17Z" transform="translate(-1.18 -0.74)" style="fill:#d8e9ff;opacity:0.5;isolation:isolate"/><path d="M162.4,20.8l-.9-3V18c-.9,3.8-1.9,7.5-2.8,11.3-.3,1-.5,2-.8,3.1-.2.7-.3,1.8-.9,2.3-1.1.9-2.8-.4-3.6-1.2a46.43,46.43,0,0,0-3.8-3.9,23.6,23.6,0,0,0-4.8-2.9c-3.7-1.9-7.5-3.8-11.2-5.8a21.41,21.41,0,0,1-4.4-3,11.17,11.17,0,0,1-2.8-2.5,13.36,13.36,0,0,1-2-2.1c-.1-.2-.2-.3-.3-.5l-.1.1c-2.1,2.4-2.1,5.4-1.8,8.4a41.94,41.94,0,0,1,.2,10,33.2,33.2,0,0,1-2.7,9.8,19.85,19.85,0,0,1-2.5,4.5,5,5,0,0,1-4,1.6,7.39,7.39,0,0,1-7.1-3.9,1.48,1.48,0,0,0-1.3-.9,8.12,8.12,0,0,1,1.1,4.3,14.08,14.08,0,0,0,4.1,3.5,9.82,9.82,0,0,1-3.4-.3,20.17,20.17,0,0,1-3.6-1.8c-1.3-.7-2.6-1.4-3.9-2.2a1.42,1.42,0,0,0-.6-.2c.2-.5.5-1.1.7-1.6a14,14,0,0,0-2.8-.6c-12.5-3.2-26.5,2.1-39.2,2.3-1.4,0-2.8,0-4.1-.1-.1,0-.2-.1-.3-.1-3.1-1-5.6-3-8.8-3.9-6.5-1.7-13,.1-19.4.3-3.3.1-7.1-.9-10,1.1-1.5,1-2.3,2.5-3.9,3.3A20.83,20.83,0,0,1,5.9,48a1.65,1.65,0,0,0-1.2,2c3.2-.6,6-2.2,8.9-3.7.7-.3,1.3-.6,2-.9a18.82,18.82,0,0,1,2.3-1.6,1.08,1.08,0,0,1,1.4.4,12.41,12.41,0,0,1,2.7-.3c3.6-.2,7.1-.7,10.6-.9a32.47,32.47,0,0,1,10.3.9,22.5,22.5,0,0,1,2.4.8,1.54,1.54,0,0,0-1.4,1,53.46,53.46,0,0,0,6.9,1.7v-.6c.6.3,1.3.5,1.9.8a.75.75,0,0,1,.5.7c7.7,0,15.3-.4,22.9-1,3.8-.3,7.6-.7,11.4-1,3.1-.3,6.2-.5,9.2.5a.9.9,0,0,0-.1.5c3.6-.2,6.3,3.3,9.3,4.8a13.17,13.17,0,0,0,6.5,1.1,10.09,10.09,0,0,0,4.3-1.5c0-.2-.1-.3-.1-.5a4.35,4.35,0,0,1,.7-.4,26.08,26.08,0,0,1,2.4-2.3h0c-.1-.1-.1-.2-.2-.3.2-.2.3-.4.5-.6a26.72,26.72,0,0,0,4.3-8.6,28.45,28.45,0,0,1,.4-4.1,53.22,53.22,0,0,0,.4-6.9c.1-3,.2-5.9.2-8.9l-.3-.3c-.9-1,.6-2.4,1.4-1.4,4.4,5,11.1,6.5,16.5,10.2a1.53,1.53,0,0,1,.5.7.1.1,0,0,1,.1.1,28.12,28.12,0,0,1,5.1,2.9,20,20,0,0,1,2.6,2.4c.7.7,1.5,1.5,2.2,2.1a7.58,7.58,0,0,0,4.4,1.3,6.38,6.38,0,0,0,1.4-.8c.4-1.5.7-3,1-4.5l1.2-6.6a32.51,32.51,0,0,1,1.1-4.2C162.4,20.9,162.4,20.9,162.4,20.8Z" transform="translate(-1.18 -0.74)" style="fill:#d8e9ff;opacity:0.5;isolation:isolate"/><g id="body-line"><path d="M60.6,34.3c-3,0-3.9,1.7-3.9,1.7-3.5,3.9-14.3.9-21.7.4S25,36.8,20.3,39,6.9,47.2,6.9,47.2c-3.9,3-3,3-3,3a32.26,32.26,0,0,1,7.4-2.6c2.2-.4,3.9-3.5,5.6-3.9s10,.4,13.9-.4,10.4,0,16.9,3,19.1,1.3,19.1,1.3c6.5.4,16.9-1.3,16.9-1.3s11.3-3,17.8,2.6,11.7,5.6,18.6-1.3,4.3-32.5,4.3-32.5c3,6.5,18.6,12.1,23.8,15.2s3,4.3,6.9,6.1,4.3-3.5,4.8-5.6a64,64,0,0,1,2.2-8.7,1.75,1.75,0,0,0,0-1.7,4.29,4.29,0,0,0-.4-1.7,1.88,1.88,0,0,0-.4-1.3,1,1,0,0,0-.4-1.3c-.9-.4-3,6.1-5.6,8.7s-6.9-.9-6.9-.9C141,15.7,129.3,4,129.3,4s-5.6-6.9-13.4,2.2-9.5,29-9.5,29-4.9,13,7.8,16.6" transform="translate(-1.18 -0.74)" style="fill:none;stroke:#4991ff;stroke-linecap:round;stroke-linejoin:round;stroke-width:1.5px"/><path d="M133.1,7.9s16.6,17,20.1,13.5c0,0,.9-.9,2.6-3s1.7-1.7,1.7-1.7a1.45,1.45,0,0,1,.4.9c0,.5.4.4.4.9a1.54,1.54,0,0,0,.2.8" transform="translate(-1.18 -0.74)" style="fill:none;stroke:#4991ff;stroke-linecap:round;stroke-linejoin:round;stroke-width:1.5px"/><path d="M106.6,31.3s-8.1-2.4-12.8-2.8S89,26.3,81.2,27.1s-9.5-3-18.6,5.2a4.86,4.86,0,0,1-3.9,0s2.6-3.9,1.3-5.2-2.6-.4-2.6-.9-1.3-.9-1.3-.9.9-.9.4-1.3c-.9-.9-4.4.2-4.8,0-.9-.4-5.8-1.6-6.9-1.3-3,.9-7.4,3-7.8,7.8s.3,5.8.3,5.8" transform="translate(-1.18 -0.74)" style="fill:none;stroke:#4991ff;stroke-linecap:round;stroke-linejoin:round;stroke-width:1.5px"/><path d="M36.8,33.8A58.45,58.45,0,0,0,17,38.4a37.14,37.14,0,0,0-3.9.4c-3,.4-4.3,3.5-6.1,6.1S.6,51,2.3,51C2.7,51,4,49.7,4,49.7" transform="translate(-1.18 -0.74)" style="fill:none;stroke:#4991ff;stroke-linecap:round;stroke-linejoin:round;stroke-width:1.5px"/><line x1="100.62" y1="29.26" x2="96.72" y2="45.66" style="fill:none;stroke:#4991ff;stroke-linecap:round;stroke-linejoin:round;stroke-width:1.5px"/><path d="M75.6,27.1s2.8.2,2.8,2.5" transform="translate(-1.18 -0.74)" style="fill:none;stroke:#4991ff;stroke-linecap:round;stroke-linejoin:round;stroke-width:1.5px"/><line x1="102.42" y1="29.66" x2="100.62" y2="37.96" style="fill:none;stroke:#4991ff;stroke-linecap:round;stroke-linejoin:round;stroke-width:1.5px"/></g><g id="body-fill"><ellipse cx="70.42" cy="33.06" rx="1.1" ry="1.3" style="fill:#4991ff"/><path d="M117.8,20.4c5,10.1,1,15.5.8,15.7a.5.5,0,1,1-.8-.6s3.8-5.2-.9-14.6a.57.57,0,0,1,.2-.7c.1,0,.2-.1.3-.1A.54.54,0,0,1,117.8,20.4Z" transform="translate(-1.18 -0.74)" style="fill:#4991ff"/><path d="M142.6,24.4c-11.1-2-13-8.5-13.1-8.8a.57.57,0,1,1,1.1-.3c0,.1,1.9,6.1,12.3,8,.3.1.5.3.4.6,0,.1-.1.2-.1.3C143,24.4,142.8,24.5,142.6,24.4Z" transform="translate(-1.18 -0.74)" style="fill:#4991ff"/></g></svg>