<?xml version="1.0" encoding="utf-8"?>
<!-- Generator: Adobe Illustrator 21.1.0, SVG Export Plug-In . SVG Version: 6.00 Build 0)  -->
<svg version="1.1" id="Layer_1" xmlns="http://www.w3.org/2000/svg" xmlns:xlink="http://www.w3.org/1999/xlink" x="0px" y="0px"
	 viewBox="0 0 316.7 363.2" style="enable-background:new 0 0 316.7 363.2;" xml:space="preserve">
<style type="text/css">
	.st0{fill:#D8E9FF;}
	.st1{fill:#4991FF;}
	.st2{font-family:'Ubuntu';}
	.st3{font-size:62.4845px;}
	.st4{letter-spacing:-3;}
	.st5{letter-spacing:-2;}
	.st6{letter-spacing:-1;}
	.st7{font-family:'Ubuntu-Medium';}
	.st8{font-size:15.3355px;}
</style>
<title>logo</title>
<path class="st0" d="M64,258.2c-1.4,0-2.8-0.6-3.9-1.6c-54.2-54.2-54.2-142.2,0-196.4c9.5-9.5,20.2-17.5,32-23.9
	c2.7-1.4,6-0.5,7.4,2.2c1.4,2.7,0.5,6-2.2,7.4C35.2,79.6,12.2,157.3,45.9,219.4c5.9,10.8,13.3,20.7,22,29.4c2.1,2.1,2.1,5.6-0.1,7.7
	C66.8,257.6,65.4,258.2,64,258.2z"/>
<path class="st0" d="M123,291.5c-2.8-1.1-4.2-4.2-3.2-7c0.9-2.4,3.4-3.9,6-3.5c68.2,18.3,138.4-22.2,156.7-90.4c0,0,0,0,0,0
	c0.6-3,3.4-4.9,6.4-4.4c3,0.6,4.9,3.4,4.4,6.4c0,0.3-0.1,0.5-0.2,0.8C273.2,267.4,197.1,311.4,123,291.5z"/>
<path class="st0" d="M284.7,120.9c-2.3,0-4.4-1.5-5.2-3.7c-17.6-51.9-66.4-86.8-121.2-86.7c-3,0-5.5-2.4-5.5-5.5s2.4-5.5,5.5-5.5
	c59.5,0,112.4,37.8,131.5,94.2c1,2.9-0.6,6-3.4,6.9C285.9,120.8,285.3,120.9,284.7,120.9L284.7,120.9z"/>
<path class="st0" d="M95.2,257.5c-1.1,0-2.2-0.3-3.1-0.9C38,220,23.7,146.4,60.2,92.2C82.2,59.6,119,40,158.4,40
	c3,0,5.5,2.4,5.5,5.5c0,3-2.4,5.5-5.5,5.5C99,51,50.9,99,50.9,158.4c0,35.7,17.8,69.1,47.4,89.1c2.5,1.7,3.2,5.1,1.5,7.6
	C98.8,256.6,97.1,257.5,95.2,257.5L95.2,257.5z"/>
<path class="st0" d="M159.2,276.7c-3,0-5.5-2.4-5.5-5.5c0-3,2.4-5.5,5.5-5.5c59.3,0,107.4-48.1,107.4-107.4
	c0-36.3-18.4-70.2-48.9-90c-2.5-1.7-3.2-5-1.6-7.6c1.7-2.5,5-3.2,7.6-1.6c54.8,35.6,70.3,108.9,34.7,163.7
	C236.6,256.5,199.3,276.7,159.2,276.7z"/>
<path class="st0" d="M21,96.6c-3,0-5.5-2.4-5.5-5.5c0-0.8,0.2-1.7,0.6-2.4C53.8,11.9,145.7-21.2,223.7,14.1c2.8,1.2,4.1,4.4,2.9,7.1
	c-1.2,2.8-4.4,4.1-7.1,2.9c-0.1,0-0.2-0.1-0.3-0.1C146.6-8.8,61,22,25.9,93.6C25,95.4,23.1,96.6,21,96.6z"/>
<path class="st0" d="M77.1,293.4c-1,0-2-0.3-2.9-0.8C27.9,263.7-0.1,212.9,0,158.4c0-3,2.4-5.5,5.5-5.5s5.5,2.4,5.5,5.5
	c-0.1,50.8,26,98,69.1,124.9c2.6,1.6,3.3,5,1.7,7.5C80.7,292.4,79,293.4,77.1,293.4L77.1,293.4z"/>
<path class="st0" d="M158.4,316.8c-3,0-5.5-2.4-5.5-5.5c0-3,2.4-5.5,5.5-5.5c81.3,0,147.4-66.1,147.4-147.4c0-3,2.4-5.5,5.5-5.5
	c3,0,5.5,2.4,5.5,5.5C316.7,245.7,245.7,316.8,158.4,316.8z"/>
<path class="st0" d="M295.7,96.6c-2.1,0-4-1.2-4.9-3.1c-6.5-13.2-14.8-25.3-24.9-36c-2.1-2.2-1.9-5.7,0.3-7.7
	c2.2-2.1,5.7-1.9,7.7,0.3c10.8,11.5,19.8,24.5,26.7,38.7c1.3,2.7,0.2,6-2.5,7.3C297.4,96.4,296.6,96.6,295.7,96.6L295.7,96.6z"/>
<circle class="st0" cx="91.8" cy="296.2" r="5.1"/>
<circle class="st0" cx="235.4" cy="26.5" r="5.1"/>
<circle class="st0" cx="310.1" cy="143.7" r="5.1"/>
<circle class="st0" cx="207.5" cy="57.3" r="5.1"/>
<circle class="st0" cx="14.1" cy="105.6" r="5.1"/>
<text transform="matrix(1 0 0 1 82.2805 179.1592)" class="st1 st2 st3 st4">F</text>
<text transform="matrix(1 0 0 1 112.3305 179.1592)" class="st1 st2 st3 st5">o</text>
<text transform="matrix(1 0 0 1 146.5806 179.1592)" class="st1 st2 st3 st6">c</text>
<text transform="matrix(1 0 0 1 174.1306 179.1592)" class="st1 st2 st3 st5">u</text>
<text transform="matrix(1 0 0 1 207.2505 179.1592)" class="st1 st2 st3 st6">s</text>
<text transform="matrix(1 0 0 1 109.6021 360.0881)" class="st1 st7 st8">Scan met NFC</text>
</svg>
