<svg id="Layer_1" data-name="Layer 1" xmlns="http://www.w3.org/2000/svg" viewBox="0 0 316.72 316.72"><title>logo</title><path d="M64,258.15a5.44,5.44,0,0,1-3.86-1.6,138.89,138.89,0,0,1,32-220.29,5.46,5.46,0,0,1,5.22,9.6,128,128,0,0,0-29.48,203A5.46,5.46,0,0,1,64,258.15Z" style="fill:#d8e9ff"/><path d="M123,291.5A5.46,5.46,0,0,1,125.78,281a127.92,127.92,0,0,0,156.69-90.48A5.46,5.46,0,1,1,293,193.3,138.84,138.84,0,0,1,123,291.5Z" style="fill:#d8e9ff"/><path d="M284.7,120.87a5.46,5.46,0,0,1-5.17-3.71A127.94,127.94,0,0,0,158.36,30.42a5.46,5.46,0,0,1,0-10.92,138.86,138.86,0,0,1,131.51,94.15,5.47,5.47,0,0,1-5.17,7.22Z" style="fill:#d8e9ff"/><path d="M95.24,257.42a5.43,5.43,0,0,1-3.05-.94A118.35,118.35,0,0,1,158.36,40a5.46,5.46,0,0,1,0,10.92A107.43,107.43,0,0,0,98.3,247.43a5.46,5.46,0,0,1-3.06,10Z" style="fill:#d8e9ff"/><path d="M159.2,276.7a5.46,5.46,0,1,1,0-10.92A107.43,107.43,0,0,0,217.75,68.29a5.46,5.46,0,1,1,6-9.15A118.35,118.35,0,0,1,159.2,276.7Z" style="fill:#d8e9ff"/><path d="M21,96.57a5.46,5.46,0,0,1-4.9-7.87A158.51,158.51,0,0,1,223.69,14.06,5.46,5.46,0,1,1,219.18,24,147.6,147.6,0,0,0,25.91,93.52,5.46,5.46,0,0,1,21,96.57Z" style="fill:#d8e9ff"/><path d="M77.06,293.34a5.43,5.43,0,0,1-2.9-.84A157.65,157.65,0,0,1,0,158.36a5.46,5.46,0,0,1,10.92,0A146.79,146.79,0,0,0,80,283.26a5.46,5.46,0,0,1-2.91,10.08Z" style="fill:#d8e9ff"/><path d="M158.36,316.72a5.46,5.46,0,1,1,0-10.92c81.3,0,147.44-66.14,147.44-147.44a5.46,5.46,0,1,1,10.92,0C316.72,245.68,245.68,316.72,158.36,316.72Z" style="fill:#d8e9ff"/><path d="M295.72,96.57a5.45,5.45,0,0,1-4.91-3.06,147.42,147.42,0,0,0-24.89-36,5.46,5.46,0,1,1,8-7.47,158.28,158.28,0,0,1,26.73,38.66,5.46,5.46,0,0,1-4.9,7.87Z" style="fill:#d8e9ff"/><circle cx="91.75" cy="296.12" r="5.13" style="fill:#d8e9ff"/><circle cx="235.38" cy="26.46" r="5.13" style="fill:#d8e9ff"/><circle cx="310.12" cy="143.7" r="5.13" style="fill:#d8e9ff"/><circle cx="207.53" cy="57.23" r="5.13" style="fill:#d8e9ff"/><circle cx="14.08" cy="105.6" r="5.13" style="fill:#d8e9ff"/><text transform="translate(82.28 179.12)" style="font-size:62.48447036743164px;fill:#4991ff;font-family:Ubuntu, Ubuntu;letter-spacing:-0.055998289125673256em">F<tspan x="30.05" y="0" style="letter-spacing:-0.04199480962341168em">o</tspan><tspan x="64.3" y="0" style="letter-spacing:-0.023990335977646788em">c</tspan><tspan x="91.85" y="0" style="letter-spacing:-0.04399530669516333em">u</tspan><tspan x="124.97" y="0" style="letter-spacing:-0.018004473645764886em">s</tspan></text></svg>