<svg id="Layer_1" data-name="Layer 1" xmlns="http://www.w3.org/2000/svg" viewBox="0 0 118 135"><title>profilepicture</title><path d="M117.5,59A58.53,58.53,0,1,0,23,105.06v-.53a14.13,14.13,0,0,1,7.37-12.41l14-7.62a4.14,4.14,0,0,0,2.16-3.63V75.68A32.88,32.88,0,0,1,41,64.34a6.23,6.23,0,0,1-2.35-4.87V53.2a6.25,6.25,0,0,1,1.57-4.11V40.75a14,14,0,0,1,3.28-10.22C46.7,26.86,51.92,25,59,25s12.3,1.86,15.52,5.53A14,14,0,0,1,77.8,40.75v8.33a6.25,6.25,0,0,1,1.57,4.11v6.27a6.22,6.22,0,0,1-3.65,5.67,35.87,35.87,0,0,1-4.63,9.09c-.39.55-.77,1.05-1.13,1.49V81a4.12,4.12,0,0,0,2.29,3.71l15,7.48A14.06,14.06,0,0,1,95,104.83v.23A58.38,58.38,0,0,0,117.5,59Z" style="fill:none;stroke:#d2d8db;stroke-miterlimit:10"/><path d="M87.22,92.19l-15-7.48A4.12,4.12,0,0,1,70,81v-5.3c.36-.44.74-.94,1.13-1.49a35.87,35.87,0,0,0,4.63-9.09,6.22,6.22,0,0,0,3.65-5.67V53.2a6.25,6.25,0,0,0-1.57-4.11V40.75a14,14,0,0,0-3.28-10.22C71.3,26.86,66.08,25,59,25s-12.3,1.86-15.52,5.53A14,14,0,0,0,40.2,40.75v8.33a6.25,6.25,0,0,0-1.57,4.11v6.27A6.23,6.23,0,0,0,41,64.34a32.88,32.88,0,0,0,5.49,11.34v5.18a4.14,4.14,0,0,1-2.16,3.63l-14,7.62A14.13,14.13,0,0,0,23,104.53v.53a58.42,58.42,0,0,0,72.07,0v-.23A14.06,14.06,0,0,0,87.22,92.19Z" style="fill:none;stroke:#d2d8db;stroke-miterlimit:10"/><rect x="71.35" y="88.52" width="46.48" height="46.48" rx="23.24" ry="23.24" style="fill:#4991ff"/><path d="M86.47,110H92.7v-6.86h3.78V110h6.23v3.57H96.48v6.86H92.7v-6.86H86.47Z" style="fill:#fff"/></svg>