<svg class="vectors" xmlns="http://www.w3.org/2000/svg" viewBox="0 0 238.93 239.29"><title>svgs</title><path d="M156.49,113.54a4.07,4.07,0,0,0-1.45-.31l.08.74a1,1,0,0,1,.44.59c.23.79.45,1.59.65,2.39a1,1,0,0,1,.36.7c0,.21,0,.43.06.64a9,9,0,0,1-.39,9.3,12.93,12.93,0,0,1-.6,1.59,1.11,1.11,0,0,1,.34.2c.26-.14.51-.28.77-.44h0A13.34,13.34,0,0,0,156.49,113.54Z" style="fill:#d8e9ff;opacity:0.5"/><path d="M83.13,127.48c-2.28-.29-5.05-.39-5.87-2.94-.4-1.24-1.22-4.73.26-5.53a1.51,1.51,0,0,0,.76-1.86c-.83,1.14-1.7,2.24-2.45,3.43a10,10,0,0,0-1.5,4.62.85.85,0,0,1,.16.64,5.65,5.65,0,0,0,0,.71c.09.18.18.36.29.53a1.3,1.3,0,0,0-.24.12,6.34,6.34,0,0,0,.37,1.44,1.18,1.18,0,0,0-.31-.09,43.43,43.43,0,0,0-4.33-.41c-2.66.39-5.4.14-8.07.41q-1.94.29-3.85.77c-1.05.53-2.11,1-3.18,1.55l-.08.08a16.52,16.52,0,0,1-3.26,2.4c-1,1-2.06,2-3.18,3a15.07,15.07,0,0,1-4.66,2.85,19.24,19.24,0,0,1-1.35,1.52,4,4,0,0,0,1.67-.58c1.12-.65,2.21-1.37,3.32-2.06a1.68,1.68,0,0,0,.65-.7,41.62,41.62,0,0,1,7.61-3.72q1.14-.4,2.3-.72a1,1,0,0,1,.42-.54c3-2,6.26-2.33,9.61-2.28,1.93-.57,4.16-.1,6.11-.07a1,1,0,0,1,.73.32h.78a1.86,1.86,0,0,0-.06-.54,10.69,10.69,0,0,1,3.55.43,1.11,1.11,0,0,1,.3.16,53.34,53.34,0,0,0,9.33,1.06,12.57,12.57,0,0,0,6.81-3.31A83.38,83.38,0,0,1,83.13,127.48Z" style="fill:#d8e9ff;opacity:0.5"/><path d="M195.81,110a4.24,4.24,0,0,1,.07-.58l-.08.15c-.12.28-.25.56-.39.85-.3,2-.94,4.12-2.77,5.22a5.46,5.46,0,0,1-2.51.74l-.35.12a1.36,1.36,0,0,0-.46-.13h-.25a2.55,2.55,0,0,1-1.67-.44,5.49,5.49,0,0,1-.72-.36,6.81,6.81,0,0,1-2.3-2.3c-.85-.57-2-1.32-2.09-2.09a1.76,1.76,0,0,0-.28-.84c0-.06,0-.12,0-.18-.9-.47-1.88-.69-2.79-1.07l-.13.11a14.89,14.89,0,0,1,2.06,2.35c.55.77,1.06,1.6,1.6,2.43a.94.94,0,0,1,1.08.46,15.14,15.14,0,0,0,1.35,2.07.73.73,0,0,1,.42,0,13.22,13.22,0,0,1,4.22,2.25l.07.08c.78.09,1.56.17,2.34.26.27-.14.53-.3.79-.47a14.17,14.17,0,0,1,1.78-2.3c.77-1.8,1.47-3.64,2.35-5.39A1.06,1.06,0,0,1,195.81,110Z" style="fill:#d8e9ff;opacity:0.5"/><path d="M200.41,113.81c-.28-1-.56-2-.87-3l0,.08,0,.05-2.84,11.28-.77,3.06c-.18.71-.29,1.81-.89,2.31-1.12.94-2.82-.45-3.58-1.22a39.52,39.52,0,0,0-3.77-3.86,30.14,30.14,0,0,0-4.77-2.93c-3.74-1.94-7.53-3.78-11.22-5.81a20.69,20.69,0,0,1-4.41-3,11.47,11.47,0,0,1-2.82-2.45,9.19,9.19,0,0,1-2-2.07c-.11-.16-.2-.32-.3-.48l-.14.13c-2.13,2.35-2.13,5.41-1.77,8.39a41.06,41.06,0,0,1,.19,10,33.9,33.9,0,0,1-2.74,9.8,18.58,18.58,0,0,1-2.51,4.46,5.25,5.25,0,0,1-4,1.59,7.39,7.39,0,0,1-7.07-3.91,1.39,1.39,0,0,0-1.32-.87,9.14,9.14,0,0,1,1.12,4.34,14.51,14.51,0,0,0,4.07,3.52,10.25,10.25,0,0,1-3.41-.31,24.5,24.5,0,0,1-3.62-1.84q-2-1.06-3.89-2.18a1.76,1.76,0,0,0-.62-.22c.24-.53.48-1.06.72-1.6a12.28,12.28,0,0,0-2.83-.61c-12.52-3.24-26.49,2.09-39.22,2.31-1.39,0-2.77,0-4.14-.13l-.28-.08c-3.07-1-5.62-3-8.76-3.85-6.38-1.65-12.91.16-19.34.35-3.28.1-7.11-.86-10,1.07-1.47,1-2.34,2.49-3.92,3.34A20,20,0,0,1,43.83,141a1.55,1.55,0,0,0-1.16,2c3.2-.64,6-2.22,8.9-3.66.66-.33,1.32-.63,2-.9a15.73,15.73,0,0,1,2.35-1.57,1,1,0,0,1,1.38.41,17.16,17.16,0,0,1,2.71-.35c3.56-.17,7.09-.69,10.64-.93a29.8,29.8,0,0,1,10.25.91c.81.23,1.61.48,2.4.76a1.62,1.62,0,0,0-1.4,1,52.17,52.17,0,0,0,6.93,1.68,1.77,1.77,0,0,0,0-.56l1.89.82a.82.82,0,0,1,.53.65c7.65,0,15.29-.41,22.92-1,3.81-.3,7.61-.66,11.41-1,3.09-.31,6.2-.55,9.16.49a1.88,1.88,0,0,0-.15.51c3.58-.15,6.28,3.3,9.32,4.76a13.16,13.16,0,0,0,6.52,1.15,10.73,10.73,0,0,0,4.26-1.45,1.87,1.87,0,0,0-.13-.45l.65-.4a19.13,19.13,0,0,1,2.43-2.28h0a1.5,1.5,0,0,0-.24-.31c.17-.17.34-.36.5-.55a26.6,26.6,0,0,0,4.31-8.61,38,38,0,0,1,.37-4.07,61,61,0,0,0,.41-6.9c.06-3,.16-5.93.17-8.89l-.29-.33c-.86-1,.58-2.44,1.45-1.45,4.42,5,11.06,6.49,16.45,10.15a1,1,0,0,1,.45.74l.14.06a36,36,0,0,1,5.15,2.86,18.31,18.31,0,0,1,2.6,2.44c.73.69,1.45,1.45,2.23,2.11a7.11,7.11,0,0,0,4.37,1.25,5.77,5.77,0,0,0,1.44-.85c.43-1.48.74-3,1-4.49.43-2.2.77-4.41,1.21-6.61a19.52,19.52,0,0,1,1.14-4.15Z" style="fill:#d8e9ff;opacity:0.5"/><g class="body-line"><path d="M98.61,127.27c-3,0-3.9,1.73-3.9,1.73-3.47,3.9-14.31.87-21.68.43s-10,.43-14.74,2.6-13.44,8.24-13.44,8.24c-3.9,3-3,3-3,3a36.89,36.89,0,0,1,7.37-2.6c2.17-.43,3.9-3.47,5.64-3.9s10,.43,13.87-.43,10.4,0,16.91,3,19.07,1.3,19.07,1.3c6.5.43,16.91-1.3,16.91-1.3s11.27-3,17.77,2.6,11.71,5.64,18.64-1.3,4.34-32.51,4.34-32.51c3,6.5,18.64,12.14,23.84,15.17s3,4.34,6.94,6.07,4.34-3.47,4.77-5.64a83.52,83.52,0,0,1,2.17-8.67,2.09,2.09,0,0,0,0-1.73,4.48,4.48,0,0,0-.43-1.73,1.9,1.9,0,0,0-.43-1.3,1,1,0,0,0-.43-1.3c-.87-.43-3,6.07-5.64,8.67s-6.94-.87-6.94-.87c-7.37-8.24-19.07-19.94-19.07-19.94s-5.64-6.94-13.44,2.17-9.54,29-9.54,29-4.95,13,7.82,16.6" style="fill:none;stroke:#d0d2d3;stroke-linecap:round;stroke-linejoin:round;stroke-width:1.5px"/><path d="M171.08,100.94s16.62,17,20.09,13.54c0,0,.87-.87,2.6-3s1.73-1.73,1.73-1.73a1.51,1.51,0,0,1,.43.87c0,.43.43.43.43.87a1.62,1.62,0,0,0,.23.79" style="fill:none;stroke:#d0d2d3;stroke-linecap:round;stroke-linejoin:round;stroke-width:1.5px"/><path d="M144.61,124.26s-8.07-2.41-12.84-2.84-4.77-2.17-12.57-1.3-9.54-3-18.64,5.2a5.06,5.06,0,0,1-3.9,0s2.6-3.9,1.3-5.2-2.6-.43-2.6-.87-1.3-.87-1.3-.87.87-.87.43-1.3c-.87-.87-4.38.19-4.77,0-.87-.43-5.76-1.64-6.94-1.3-3,.87-7.37,3-7.8,7.8s.3,5.83.3,5.83" style="fill:none;stroke:#d0d2d3;stroke-linecap:round;stroke-linejoin:round;stroke-width:1.5px"/><path d="M74.84,126.77A58,58,0,0,0,55,131.39a35.3,35.3,0,0,0-3.9.43c-3,.43-4.34,3.47-6.07,6.07S38.56,144,40.3,144c.43,0,1.73-1.3,1.73-1.3" style="fill:none;stroke:#d0d2d3;stroke-linecap:round;stroke-linejoin:round;stroke-width:1.5px"/><line x1="139.8" y1="122.96" x2="135.94" y2="139.38" style="fill:none;stroke:#d0d2d3;stroke-linecap:round;stroke-linejoin:round;stroke-width:1.5px"/><path d="M113.57,120.08s2.84.23,2.84,2.45" style="fill:none;stroke:#d0d2d3;stroke-linecap:round;stroke-linejoin:round;stroke-width:1.5px"/><line x1="141.62" y1="123.43" x2="139.8" y2="131.66" style="fill:none;stroke:#d0d2d3;stroke-linecap:round;stroke-linejoin:round;stroke-width:1.5px"/></g><g class="body-fill"><ellipse cx="109.64" cy="126.81" rx="1.14" ry="1.25" style="fill:#d0d2d3"/><path d="M155.82,113.36c5,10.07,1,15.52.8,15.75a.53.53,0,0,1-.75.1.54.54,0,0,1-.1-.75s3.78-5.18-.91-14.63a.53.53,0,1,1,1-.47Z" style="fill:#d0d2d3"/><path d="M180.56,117.44c-11.07-2-13-8.49-13.11-8.76a.53.53,0,0,1,.37-.66.54.54,0,0,1,.66.37c0,.06,1.9,6.12,12.28,8a.53.53,0,1,1-.2,1Z" style="fill:#d0d2d3"/></g></svg>