<svg id="Layer_1" data-name="Layer 1" xmlns="http://www.w3.org/2000/svg" viewBox="0 0 196.04 50.87"><title>vluchtfase</title><path d="M130.61,35.3" style="fill:none;stroke:#4991ff;stroke-miterlimit:10;stroke-width:1.5px"/><path d="M158.73,40.1" style="fill:none;stroke:#4991ff;stroke-miterlimit:10;stroke-width:1.5px"/><path d="M71.81,32.16l1.63,11.74a6.94,6.94,0,0,1-.06,2.27l-.68,3.53,8,.4,3.91-14.85s.53-2,1.47-1.31" style="fill:none;stroke:#4991ff;stroke-miterlimit:10;stroke-width:1.5px"/><path d="M130.61,35.3s1.92-2.38,6.21-1.73c3.18.48,12.88.36,12.88.36a7.18,7.18,0,0,1,4.23-1.42,113.53,113.53,0,0,0,12.78,0,107.52,107.52,0,0,0,11.05-2.11,53.27,53.27,0,0,1,7.49,1.15c2.11.67,6.92,1.53,6.92,1.53l2.18.48" style="fill:none;stroke:#4991ff;stroke-miterlimit:10;stroke-width:1.5px"/><path d="M80.71,50.09s12.11-.19,15.44-.7,11.79-.26,15.76-1.67,9.87-4.1,11.4-6a28.22,28.22,0,0,1,5.25-4.61,12.39,12.39,0,0,0,2-1.79l1.67,1.41s-1.15,3.46,1.67,4a22.71,22.71,0,0,0,3.78.51c.19,0,1.67-.32,1.92-.32s.51.64,1,.45,1.41-1.41,2-1.41a3.84,3.84,0,0,0,2.56-1c1.15-.9,4.74-2.75,5.32-3.65,0,0,19.73,1.28,24.41-.45l2.63-.45a8.37,8.37,0,0,0,5.51.9s6.28-1.28,9.93-.9,2-.58,1.35-.83A21.38,21.38,0,0,0,191.6,33s5.12,1.09,2.63,0c0,0-12.81-5.89-16-5.7s-12.17-.51-15.69-1.73S149.77,25,149.77,25s-7.75,0-10-.2-2-2-5-2.23-4.74.7-5.7.77-.19-2.11-4.8-1.73S108.7,26,106.91,26.78c-.63.27-8.17,5.28-10.85,7.06a5.87,5.87,0,0,1-2.2.89c-2.09.38-6.18.87-7.77-.8-2.18-2.28-5.57-4.78-9.48-3.76-4.08,1.07-4.8,2-4.8,2S57,29.39,51.11,30a1.08,1.08,0,0,1-1.05-.52,35.18,35.18,0,0,0-6.12-7.88c-3.72-3.35-18.26-10.4-18.26-10.4s-3.22-3.46-3.2-6A2.27,2.27,0,0,0,21.31,3a1.77,1.77,0,0,0-1.82-.34,9.67,9.67,0,0,1-1.82.54c-2,.32-9.29.51-12.75-1.22S1.74.74,1,1.09c-.42.2-.9,3.4,3.07,5.7s10.83,6.15,14,8.71S35.74,31.32,37,32.73s1.73,4.87,6,6.92,12.62,7.62,18.83,8.84S80.71,50.09,80.71,50.09Z" style="fill:none;stroke:#4991ff;stroke-miterlimit:10;stroke-width:1.5px"/><path d="M149.7,33.93s1,.6.83,1.37" style="fill:none;stroke:#4991ff;stroke-miterlimit:10;stroke-width:1.5px"/><path d="M118.41,40.11a.47.47,0,1,1,.47.47A.47.47,0,0,1,118.41,40.11ZM78,49.67l1.83-7" style="fill:none;stroke:#4991ff;stroke-miterlimit:10;stroke-width:1.5px"/></svg>