<?xml version="1.0" encoding="utf-8"?>
<!-- Generator: Adobe Illustrator 21.1.0, SVG Export Plug-In . SVG Version: 6.00 Build 0)  -->
<svg version="1.1" id="Layer_1" xmlns="http://www.w3.org/2000/svg" xmlns:xlink="http://www.w3.org/1999/xlink" x="0px" y="0px"
	 viewBox="0 0 196 50.9" style="enable-background:new 0 0 196 50.9;" xml:space="preserve">
<style type="text/css">
	.st0{opacity:0.5;fill:#D8E9FF;}
	.st1{fill:none;stroke:#A6A8AB;stroke-width:1.5;stroke-linecap:round;stroke-miterlimit:10;}
	.st2{fill:#D2D8DB;}
	.st3{fill:none;stroke:#D0D2D3;stroke-width:1.5;stroke-linecap:round;stroke-miterlimit:10;}
	.st4{fill:#D1D7DA;stroke:#D1D7DA;stroke-width:1.5;stroke-linecap:round;stroke-miterlimit:10;}
</style>
<title>vluchtfase</title>
<path class="st0" d="M157.8,28.1c-0.6-0.3-1.1-0.7-1.8-0.9c-1.8-0.8-4-1.2-6-1.4c-2-0.1-3.7,0.2-5.4,0.9c0,0.1,0,0.2,0,0.3
	c0.1,0.4,0.4,0.7,0.8,0.9c2.2-0.2,4.4-0.2,6.6,0.1c1.7,0.2,3.4,0.6,5.1,0.9c0.1-0.1,0.3-0.2,0.4-0.3c0.2-0.1,0,0,0.2-0.1
	c0,0,0,0,0.1,0c0,0,0,0,0,0c0,0,0,0,0,0c0,0,0,0,0,0c0,0,0,0,0,0c0,0,0,0,0,0c0,0,0,0,0,0C157.8,28.2,157.8,28.1,157.8,28.1z"/>
<path class="st0" d="M81.5,44.5c0-0.1,0.1-0.2,0.1-0.3c0-0.5,0.1-1,0.2-1.6c0-0.1,0-0.1,0.1-0.2c-0.1,0.1-0.1,0.3-0.2,0.4
	C81.6,43.4,81.5,44,81.5,44.5C81.4,44.5,81.4,44.5,81.5,44.5z"/>
<path class="st0" d="M41.1,32.3c-0.5-0.8-0.9-1.7-1.3-2.5c-0.8-1.6-1.6-3.1-2.9-4.4c-1.1-1-2.1-1.9-3-3c-2.9-2.6-5.8-5.3-8.4-8.2
	c-1.2-1.4-2.4-2.9-4.1-3.8c-1.7-0.9-3.6-1.2-5.4-1.9c-2-0.8-4-1.9-5.9-3C8.8,4.9,6,3.7,6.7,1.8c0-0.1,0.1-0.3,0.1-0.4
	C6.2,1.2,5.7,1.2,5.3,1.4C5.2,2.3,5.1,3.2,4.9,4.1C5.7,5.6,7.5,7,8.5,7.9c0.2,0.2,0.3,0.4,0.3,0.6C9,8.6,9.2,8.7,9.3,8.8
	c3.7,0.8,7.4,1.7,10.6,3.9c0.3,0.2,0.4,0.5,0.4,0.8c0.2,0.1,0.3,0.2,0.5,0.3c1.5,1.2,2.7,2.9,4.1,4.4c1.4,1.5,2.8,2.9,4.3,4.3
	c1.5,1.4,3.1,2.8,4.7,4.1c1.4,1.2,3,2.3,4.3,3.6c0.5,0.5,0.9,1.1,1.1,1.7c1.1,0.8,1.9,2,2.5,3.3c0.2,0.5,0.5,1,0.8,1.5
	c0-0.2,0-0.4,0.1-0.5C41.7,35.2,41.3,33.7,41.1,32.3z"/>
<path class="st0" d="M193.5,33.3c-4.5-2.3-9.4-3.7-14.5-4.1c-2.6-0.2-5.2-0.1-7.7,0.3c-2.6,0.4-5.2,1.2-7.9,1.5
	c-2.8,0.3-5.6,0.1-8.3,0.1c-2.9,0-5.7,0.1-8.6,0.3c-2.8,0.2-5.6,0.4-8.4,0.6c-2.6,0.2-5.1,0.4-7.4,1.7c-2.6,1.5-4.8,3.7-7.2,5.4
	c-0.6,0.5-2.5,2.1-4,2.8c-0.4,0.2-0.8,0.4-1.3,0.5c-1.2-0.2-2.5-0.5-3.7-1c-1-0.3-2,0.6-2,1.5c0,2.4-2.9,3.1-4.8,3.2
	c-2.8,0.2-5.7,0-8.6,0.1c-2.9,0-5.8,0-8.6,0c-1.6,0-4.2,0.3-5.1-1.5c-0.2-0.4-0.5-0.6-0.8-0.7c0-0.1,0-0.2,0.1-0.3
	c0.1-0.6-0.1-1.1-0.4-1.4c0,0.2-0.1,0.3-0.1,0.5c0.2,0.2,0.3,0.6,0.2,0.9c-0.2,0.9-0.5,1.7-1.4,2.2c0,0.2-0.1,0.5-0.1,0.7
	c0,0,0,0,0,0c0.1,0.1,0.1,0.2,0.2,0.3c0,0.1,0,0.2-0.1,0.2c-0.2,0.7-0.9,0.8-1.4,0.5c0,0.1,0.1,0.2,0.1,0.3
	c-0.3-0.1-0.6-0.1-0.9-0.1c-1.7-0.2-3.5-0.2-5.2-0.3c0.1-0.2,0.2-0.3,0.3-0.5c-0.3-0.2-0.5-0.7-0.2-1.1c0.2-0.3,0.4-0.6,0.6-0.8
	c-0.2-0.1-0.3-0.4-0.4-0.7c-0.1-1.9-0.5-3.8-0.8-5.7c-0.3,1.2-0.7,2.5-1,3.7c0,0,0,0.1,0,0.1c-0.1,0.1-0.2,0.2-0.3,0.3
	c-0.8,1.3-2.2,2-3.8,2.2c-0.8,0.3-1.6,0.6-2.4,0.7c-2-0.3-4.1-0.8-6-1.6c-3.1-1.2-5.9-2.9-8.9-4.2c-1.5-0.6-3.1-1.2-4.7-1.5
	c-1.5-0.3-3.1-0.3-4.6-0.6c0.4,0.4,0.8,0.8,1.3,1.1c1.6,1,3.3,1.7,4.9,2.6c0.7,0.4,1.4,0.8,2,1.2c0.3,0.1,0.6,0.3,1,0.4
	c2.1,1,4.2,2.1,6.4,3.1c1.4,0.3,2.7,0.8,3.8,1.1c1.2,0.3,2.5,0.7,3.7,0.9c2.3,0,4.7-0.1,6.9,0.5c0.3-0.1,0.5-0.1,0.7-0.2
	c0,0,0,0,0,0c4.7,0,9.4,0.9,14,0.9c2,0,3.9-0.1,5.9-0.2c0.2,0,0.5-0.1,0.7-0.1c1.1,0,2.2,0,3.2,0c3.1-0.8,6.3-1,9.5-1.3
	c1.4-0.2,2.9-0.3,4.3-0.3c0.4,0,0.9,0,1.3-0.1c0.2-0.2,0.5-0.4,0.7-0.6c0.8-0.2,1.6-0.5,2.4-0.9c0.1-0.3,0.1-0.6,0.2-0.9
	c0.8,0.2,1.6,0.3,2.3,0.4c0.1,0,0.2-0.1,0.3-0.1c0.8-0.5,1.6-1,2.5-1.4c0-0.1,0-0.2-0.1-0.3c0.4-0.2,0.7-0.5,1-0.8
	c1.6-1.2,2.9-2.8,4.4-4.1c1.1-1,2.3-2,3.5-2.9c0,0.1,0.1,0.1,0.1,0.2c0.1,0.1,0.2,0.2,0.2,0.3c0.2-0.1,0.4-0.2,0.6-0.2
	c0.2,0,0.5,0.1,0.7,0.3c0.2,0.2,0.3,0.4,0.3,0.7v0.3c0,0.3-0.1,0.5-0.3,0.7c-0.1,0.1-0.2,0.2-0.3,0.2c0,0.2,0.1,0.4,0.2,0.5
	c0.2,0.7,0.6,1.3,1.2,1.7c0.1,0,0.1,0,0.2,0c2.3,0,4.8,0.3,7.1-0.1c1-0.2,2-0.5,3-0.6c1.2-0.9,2.6-1.6,4.1-2.2
	c0.3-0.1,0.7-0.2,1-0.4c0.4-0.3,0.7-0.7,1.1-1c0,0,0,0,0.1,0.1c0.1-0.1,0.2-0.1,0.2-0.2c0-0.4,0.2-0.7,0.7-0.8
	c4.5-0.7,9.2,0,13.7,0.2c0.9,0,1.7,0.1,2.6,0.2c1.4-0.4,2.9-0.6,4.4-0.7c1.9-0.2,3.8-0.3,5.7,0c0.1-0.1,0.3-0.1,0.5-0.1
	c3.9,0,7.9-0.1,11.8-0.6c1.5-0.2,3.1-0.5,4.6-0.7C193.6,33.5,193.6,33.4,193.5,33.3C193.6,33.3,193.6,33.3,193.5,33.3z M148.8,33.7
	c-0.4,1.6-1.9,2.4-3.2,3.2c-1.8,1-3.5,1.6-5.6,1.7c-1,0.1-1.9,0.1-2.9,0c-0.6,0-1.5,0-2-0.3c-0.6-0.4-0.6-1.3-0.8-1.9
	c-0.3-0.9-0.9-1.6-1.5-2.2c2-1.2,5-1,7.2-0.9c1.4,0.1,2.8,0.3,4.2,0.4c1.5,0,3.1-0.1,4.6-0.3C148.9,33.5,148.9,33.6,148.8,33.7z
	 M183.8,32.5c-2.6-0.1-5.3-0.4-8-0.3c-1.8,0.1-3.4,0.4-5,0.9c-6.7,0.4-13.4,0.9-20,0.6c0.1-0.2,0.2-0.3,0.3-0.4c0,0,0-0.1,0-0.1
	c0-1.1,1.5-1.2,1.8-0.4c2.3-0.2,4.6-0.4,7-0.5c2.7,0,5.4,0,8.1-0.2c4.9-0.4,9.7-2.1,14.6-1.2c2.8,0.5,5.6,1.2,8.4,1.8
	C188.6,32.8,186.2,32.7,183.8,32.5z"/>
<path class="st0" d="M52.7,31.9c-0.3,0.2-0.5,0.4-0.6,0.7C52.3,32.3,52.5,32.1,52.7,31.9z"/>
<path class="st0" d="M61.3,33.4c-2.4-0.3-4.5,0.3-6.6,1.3c5.1-0.3,10.2,0.3,15.1,1.7C67.4,34.7,64.3,33.7,61.3,33.4z"/>
<path class="st0" d="M38,17.3c0.7,0.1,1.3,0.3,2,0.5c-0.5-0.2-1-0.4-1.5-0.6C38.3,17.2,38.1,17.2,38,17.3z"/>
<path class="st0" d="M43,21.5c-1.9-1.6-4.2-2.4-6.6-2.6c0,0.1-0.1,0.2-0.1,0.2c0,0,0,0,0,0c0,0.2-0.1,0.4-0.3,0.5
	c0.1,0,0.2,0.1,0.3,0.1c4.4,1,7.3,4.7,9.4,8.4c0.5,0.8,1.4,0.9,2,0.5C46.8,26,45.3,23.4,43,21.5z"/>
<path class="st1" d="M130.8,35.2"/>
<path class="st1" d="M158,39.8"/>
<g id="body-fill_2_">
	<path class="st2" d="M47.8,28.4c0,0.1-0.1,0.1-0.2,0.2c-0.2,0.1-0.5,0-0.7-0.2c-4.3-8.6-10.1-8.7-10.1-8.7c-0.3,0-0.5-0.2-0.5-0.5
		c0-0.3,0.2-0.5,0.5-0.5c0.3,0,6.4,0.1,11,9.3C48,28.1,47.9,28.3,47.8,28.4z"/>
	<path class="st2" d="M70,35.8c0,0.1,0,0.2-0.1,0.2c-0.1,0.2-0.4,0.3-0.7,0.2C60.8,31.6,56,34.8,56,34.9c-0.2,0.2-0.5,0.1-0.7-0.1
		c-0.2-0.2-0.1-0.5,0.1-0.7c0.2-0.1,5.3-3.6,14.3,1.4C69.9,35.5,70,35.7,70,35.8z"/>
	<path class="st2" d="M157.9,28.2c0,0.1,0,0.1-0.1,0.2c-0.1,0.2-0.4,0.2-0.6,0.1c-7.6-3.9-12.1-1.5-12.2-1.5
		c-0.2,0.1-0.5,0.1-0.6-0.1c-0.1-0.2-0.1-0.4,0.1-0.5c0.2-0.1,5-2.7,13.1,1.5C157.8,27.9,157.9,28,157.9,28.2z"/>
</g>
<g id="body-line_1_">
	<path class="st3" d="M74,32.1l1.6,11.3c0.1,0.7,0.1,1.5-0.1,2.2l-0.7,3.4l7.7,0.4l3.8-14.4c0,0,0.5-1.9,1.4-1.3"/>
	<path class="st3" d="M192.4,33.5l-2.1-0.5c0,0-4.6-0.8-6.7-1.5c-2-0.7-7.2-1.1-7.2-1.1s-6.9,1.7-10.7,2s-9.1-0.1-12.4,0
		c-3.3,0.1-4.5,1.3-16.5,1c-4.2-0.1-6,1.7-6,1.7"/>
	<path class="st3" d="M124.7,22c-4.5,0.1-15,4.2-16.8,5c-0.6,0.3-7.9,5.1-10.5,6.8c-0.6,0.4-1.4,0.7-2.1,0.9c-2,0.4-6,0.8-7.5-0.8
		c-2.1-2.2-5.4-4.6-9.2-3.6c-3.9,1-4.6,1.9-4.6,1.9s-14.3-2.7-20-2.1c-0.4,0-0.8-0.1-1-0.5c-0.8-1.4-3.1-5.1-5.9-7.6
		c-3.6-3.2-17.6-10-17.6-10s-4.2-1.9-2.9-5.3C27,5.3,25.7,4.3,25.2,4c-0.5-0.3-0.9-0.6-1.8-0.3c-0.4,0.1-0.9,0.4-1.8,0.5
		c-1.9,0.3-9,0.5-12.3-1.2S6.3,1.8,5.6,2.1c-0.4,0.2-0.9,3.3,3,5.5s8.8,2.8,11.9,5.2s18.7,18.5,19.8,19.8c1.2,1.4,1.7,4.7,5.8,6.7
		c4.1,2,12.2,7.4,18.2,8.5s18.3,1.5,18.3,1.5s11.7-0.2,14.9-0.7c3.2-0.5,11.4-0.2,15.2-1.6c3.8-1.4,9.5-4,11-5.8s3.6-3.3,5.1-4.5
		c1.5-1.1,2-1.7,2-1.7l1.6,1.4c0,0-1.1,3.3,1.6,3.8c2.7,0.5,3.5,0.5,3.7,0.5c0.2,0,1.6-0.3,1.9-0.3c0.2,0,0.5,0.6,1,0.4
		s1.4-1.4,1.9-1.4c0.6,0,1.4-0.1,2.5-0.9s4.6-2.7,5.1-3.5c0,0,19.1,1.2,23.6-0.4l2.5-0.4c0,0,2.3,1.4,5.3,0.9c0,0,6.1-1.2,9.6-0.9
		c3.5,0.4,1.9-0.6,1.3-0.8c-0.6-0.2-2.7-0.6-2.7-0.6s5,1.1,2.5,0c0,0-12.4-5.7-15.5-5.5s-11.8-0.5-15.2-1.7c-3.4-1.2-6-1.7-12.3-1.7
		c-6.3,0-7.5,0.6-9.7,0.4c-2.2-0.2-2-0.4-4.8-1.5C134.9,22.9,133.5,21.8,124.7,22z"/>
	<path class="st4" d="M119.1,39.8c0-0.2,0.2-0.5,0.5-0.5c0.3,0,0.5,0.2,0.5,0.5c0,0.3-0.2,0.5-0.5,0.5
		C119.3,40.3,119.1,40.1,119.1,39.8z M80,49.1l1.8-6.7"/>
	<path class="st3" d="M119.6,44.2c0,0-2.7,2.3-5.6-2.1"/>
	<path class="st3" d="M150.1,35.3c0,0,0.6-1.4,0-1.9"/>
</g>
</svg>
