<svg id="Layer_1" data-name="Layer 1" xmlns="http://www.w3.org/2000/svg" viewBox="0 0 189.46 49.14"><title>vluchtfase_active</title><path d="M157.8,28.1a10.08,10.08,0,0,0-1.8-.9,20.21,20.21,0,0,0-6-1.4,12.07,12.07,0,0,0-5.4.9V27a1.42,1.42,0,0,0,.8.9,29.14,29.14,0,0,1,6.6.1c1.7.2,3.4.6,5.1.9.1-.1.3-.2.4-.3l.2-.1h.1Z" transform="translate(-4.58 -1.04)" style="fill:#d8e9ff;opacity:0.5;isolation:isolate"/><path d="M81.5,44.5c0-.1.1-.2.1-.3a10,10,0,0,1,.2-1.6c0-.1,0-.1.1-.2-.1.1-.1.3-.2.4a11.14,11.14,0,0,0-.2,1.7Z" transform="translate(-4.58 -1.04)" style="fill:#d8e9ff;opacity:0.5;isolation:isolate"/><path d="M41.1,32.3c-.5-.8-.9-1.7-1.3-2.5a16,16,0,0,0-2.9-4.4,28.32,28.32,0,0,1-3-3,108.35,108.35,0,0,1-8.4-8.2,14.87,14.87,0,0,0-4.1-3.8c-1.7-.9-3.6-1.2-5.4-1.9a46.75,46.75,0,0,1-5.9-3C8.8,4.9,6,3.7,6.7,1.8c0-.1.1-.3.1-.4a1.93,1.93,0,0,0-1.5,0,25.12,25.12,0,0,1-.4,2.7A16.45,16.45,0,0,0,8.5,7.9a.86.86,0,0,1,.3.6,2.19,2.19,0,0,1,.5.3c3.7.8,7.4,1.7,10.6,3.9a.91.91,0,0,1,.4.8c.2.1.3.2.5.3a43.46,43.46,0,0,1,4.1,4.4c1.4,1.5,2.8,2.9,4.3,4.3s3.1,2.8,4.7,4.1c1.4,1.2,3,2.3,4.3,3.6a4.52,4.52,0,0,1,1.1,1.7,8.29,8.29,0,0,1,2.5,3.3,10.93,10.93,0,0,0,.8,1.5.75.75,0,0,1,.1-.5A6.81,6.81,0,0,1,41.1,32.3Z" transform="translate(-4.58 -1.04)" style="fill:#d8e9ff;opacity:0.5;isolation:isolate"/><path d="M193.5,33.3A38.38,38.38,0,0,0,179,29.2a32.91,32.91,0,0,0-7.7.3c-2.6.4-5.2,1.2-7.9,1.5a76.92,76.92,0,0,1-8.3.1c-2.9,0-5.7.1-8.6.3l-8.4.6c-2.6.2-5.1.4-7.4,1.7-2.6,1.5-4.8,3.7-7.2,5.4a22.24,22.24,0,0,1-4,2.8,5,5,0,0,1-1.3.5,17,17,0,0,1-3.7-1,1.63,1.63,0,0,0-2,1.5c0,2.4-2.9,3.1-4.8,3.2-2.8.2-5.7,0-8.6.1H90.5c-1.6,0-4.2.3-5.1-1.5a1.34,1.34,0,0,0-.8-.7.37.37,0,0,1,.1-.3,1.59,1.59,0,0,0-.4-1.4c0,.2-.1.3-.1.5a1,1,0,0,1,.2.9A3,3,0,0,1,83,45.9c0,.2-.1.5-.1.7h0c.1.1.1.2.2.3s0,.2-.1.2a.9.9,0,0,1-1.4.5c0,.1.1.2.1.3a2.77,2.77,0,0,0-.9-.1c-1.7-.2-3.5-.2-5.2-.3.1-.2.2-.3.3-.5a.78.78,0,0,1-.2-1.1,5.55,5.55,0,0,1,.6-.8c-.2-.1-.3-.4-.4-.7a55.79,55.79,0,0,0-.8-5.7c-.3,1.2-.7,2.5-1,3.7v.1l-.3.3A5,5,0,0,1,70,45a10.88,10.88,0,0,1-2.4.7,25.35,25.35,0,0,1-6-1.6c-3.1-1.2-5.9-2.9-8.9-4.2A25.72,25.72,0,0,0,48,38.4c-1.5-.3-3.1-.3-4.6-.6a6.89,6.89,0,0,0,1.3,1.1c1.6,1,3.3,1.7,4.9,2.6.7.4,1.4.8,2,1.2a10.38,10.38,0,0,0,1,.4c2.1,1,4.2,2.1,6.4,3.1,1.4.3,2.7.8,3.8,1.1s2.5.7,3.7.9a26.45,26.45,0,0,1,6.9.5,6.37,6.37,0,0,0,.7-.2h0c4.7,0,9.4.9,14,.9,2,0,3.9-.1,5.9-.2.2,0,.5-.1.7-.1h3.2a60.31,60.31,0,0,1,9.5-1.3,31.08,31.08,0,0,1,4.3-.3,5.7,5.7,0,0,0,1.3-.1c.2-.2.5-.4.7-.6a11.72,11.72,0,0,0,2.4-.9c.1-.3.1-.6.2-.9a22.31,22.31,0,0,0,2.3.4c.1,0,.2-.1.3-.1a20.13,20.13,0,0,1,2.5-1.4.37.37,0,0,0-.1-.3,3.92,3.92,0,0,0,1-.8c1.6-1.2,2.9-2.8,4.4-4.1,1.1-1,2.3-2,3.5-2.9,0,.1.1.1.1.2s.2.2.2.3a1.42,1.42,0,0,1,.6-.2,1.08,1.08,0,0,1,.7.3.91.91,0,0,1,.3.7v.3a.91.91,0,0,1-.3.7c-.1.1-.2.2-.3.2a.76.76,0,0,0,.2.5,3,3,0,0,0,1.2,1.7h.2a42.1,42.1,0,0,0,7.1-.1c1-.2,2-.5,3-.6a17.84,17.84,0,0,1,4.1-2.2,4.18,4.18,0,0,0,1-.4c.4-.3.7-.7,1.1-1l.1.1c.1-.1.2-.1.2-.2a.76.76,0,0,1,.7-.8c4.5-.7,9.2,0,13.7.2a22.75,22.75,0,0,1,2.6.2,21.27,21.27,0,0,1,4.4-.7,21.75,21.75,0,0,1,5.7,0,.75.75,0,0,1,.5-.1,93.28,93.28,0,0,0,11.8-.6c1.5-.2,3.1-.5,4.6-.7-.1-.1-.1-.2-.2-.3Zm-44.7.4c-.4,1.6-1.9,2.4-3.2,3.2a12.22,12.22,0,0,1-5.6,1.7,14.05,14.05,0,0,1-2.9,0,4.43,4.43,0,0,1-2-.3c-.6-.4-.6-1.3-.8-1.9a5.74,5.74,0,0,0-1.5-2.2c2-1.2,5-1,7.2-.9,1.4.1,2.8.3,4.2.4a35.53,35.53,0,0,0,4.6-.3A.19.19,0,0,1,148.8,33.7Zm35-1.2c-2.6-.1-5.3-.4-8-.3a20.12,20.12,0,0,0-5,.9,191.68,191.68,0,0,1-20,.6,1.38,1.38,0,0,1,.3-.4v-.1a1,1,0,0,1,1.8-.4c2.3-.2,4.6-.4,7-.5,2.7,0,5.4,0,8.1-.2,4.9-.4,9.7-2.1,14.6-1.2,2.8.5,5.6,1.2,8.4,1.8A57.72,57.72,0,0,1,183.8,32.5Z" transform="translate(-4.58 -1.04)" style="fill:#d8e9ff;opacity:0.5;isolation:isolate"/><path d="M52.7,31.9a1.34,1.34,0,0,0-.6.7A4.35,4.35,0,0,1,52.7,31.9Z" transform="translate(-4.58 -1.04)" style="fill:#d8e9ff;opacity:0.5;isolation:isolate"/><path d="M61.3,33.4a11.56,11.56,0,0,0-6.6,1.3,45.29,45.29,0,0,1,15.1,1.7A18.1,18.1,0,0,0,61.3,33.4Z" transform="translate(-4.58 -1.04)" style="fill:#d8e9ff;opacity:0.5;isolation:isolate"/><path d="M38,17.3a14.62,14.62,0,0,1,2,.5l-1.5-.6A.75.75,0,0,0,38,17.3Z" transform="translate(-4.58 -1.04)" style="fill:#d8e9ff;opacity:0.5;isolation:isolate"/><path d="M43,21.5a11.57,11.57,0,0,0-6.6-2.6.35.35,0,0,1-.1.2h0a.55.55,0,0,1-.3.5c.1,0,.2.1.3.1,4.4,1,7.3,4.7,9.4,8.4a1.41,1.41,0,0,0,2,.5A15.84,15.84,0,0,0,43,21.5Z" transform="translate(-4.58 -1.04)" style="fill:#d8e9ff;opacity:0.5;isolation:isolate"/><path d="M130.8,35.2" transform="translate(-4.58 -1.04)" style="fill:none;stroke:#a6a8ab;stroke-linecap:round;stroke-miterlimit:10;stroke-width:1.5px"/><path d="M158,39.8" transform="translate(-4.58 -1.04)" style="fill:none;stroke:#a6a8ab;stroke-linecap:round;stroke-miterlimit:10;stroke-width:1.5px"/><g id="body-fill"><path d="M47.8,28.4c0,.1-.1.1-.2.2a.66.66,0,0,1-.7-.2c-4.3-8.6-10.1-8.7-10.1-8.7a.5.5,0,0,1,0-1c.3,0,6.4.1,11,9.3C48,28.1,47.9,28.3,47.8,28.4Z" transform="translate(-4.58 -1.04)" style="fill:#4991ff"/><path d="M70,35.8c0,.1,0,.2-.1.2a.57.57,0,0,1-.7.2C60.8,31.6,56,34.8,56,34.9a.5.5,0,0,1-.6-.8c.2-.1,5.3-3.6,14.3,1.4A.32.32,0,0,1,70,35.8Z" transform="translate(-4.58 -1.04)" style="fill:#4991ff"/><path d="M157.9,28.2c0,.1,0,.1-.1.2s-.4.2-.6.1C149.6,24.6,145.1,27,145,27s-.5.1-.6-.1-.1-.4.1-.5,5-2.7,13.1,1.5A.27.27,0,0,1,157.9,28.2Z" transform="translate(-4.58 -1.04)" style="fill:#4991ff"/></g><g id="body-line"><path d="M74,32.1l1.6,11.3a5.45,5.45,0,0,1-.1,2.2L74.8,49l7.7.4L86.3,35s.5-1.9,1.4-1.3" transform="translate(-4.58 -1.04)" style="fill:none;stroke:#4991ff;stroke-linecap:round;stroke-miterlimit:10;stroke-width:1.5px"/><path d="M192.4,33.5l-2.1-.5a66,66,0,0,1-6.7-1.5,43.35,43.35,0,0,0-7.2-1.1,91.34,91.34,0,0,1-10.7,2c-3.8.3-9.1-.1-12.4,0s-4.5,1.3-16.5,1c-4.2-.1-6,1.7-6,1.7" transform="translate(-4.58 -1.04)" style="fill:none;stroke:#4991ff;stroke-linecap:round;stroke-miterlimit:10;stroke-width:1.5px"/><path d="M124.7,22c-4.5.1-15,4.2-16.8,5-.6.3-7.9,5.1-10.5,6.8a7.84,7.84,0,0,1-2.1.9c-2,.4-6,.8-7.5-.8-2.1-2.2-5.4-4.6-9.2-3.6S74,32.2,74,32.2s-14.3-2.7-20-2.1a1,1,0,0,1-1-.5A33.35,33.35,0,0,0,47.1,22c-3.6-3.2-17.6-10-17.6-10s-4.2-1.9-2.9-5.3c.4-1.4-.9-2.4-1.4-2.7a1.79,1.79,0,0,0-1.8-.3,8.39,8.39,0,0,1-1.8.5c-1.9.3-9,.5-12.3-1.2s-3-1.2-3.7-.9c-.4.2-.9,3.3,3,5.5s8.8,2.8,11.9,5.2S39.2,31.3,40.3,32.6s1.7,4.7,5.8,6.7,12.2,7.4,18.2,8.5,18.3,1.5,18.3,1.5,11.7-.2,14.9-.7,11.4-.2,15.2-1.6,9.5-4,11-5.8a34.29,34.29,0,0,1,5.1-4.5,12.43,12.43,0,0,0,2-1.7l1.6,1.4s-1.1,3.3,1.6,3.8a21.41,21.41,0,0,0,3.7.5c.2,0,1.6-.3,1.9-.3s.5.6,1,.4,1.4-1.4,1.9-1.4a4,4,0,0,0,2.5-.9c1.1-.8,4.6-2.7,5.1-3.5,0,0,19.1,1.2,23.6-.4l2.5-.4a8.38,8.38,0,0,0,5.3.9s6.1-1.2,9.6-.9,1.9-.6,1.3-.8-2.7-.6-2.7-.6,5,1.1,2.5,0c0,0-12.4-5.7-15.5-5.5s-11.8-.5-15.2-1.7-6-1.7-12.3-1.7-7.5.6-9.7.4-2-.4-4.8-1.5C134.9,22.9,133.5,21.8,124.7,22Z" transform="translate(-4.58 -1.04)" style="fill:none;stroke:#4991ff;stroke-linecap:round;stroke-miterlimit:10;stroke-width:1.5px"/><path d="M119.1,39.8a.54.54,0,0,1,.5-.5.5.5,0,1,1-.5.5ZM80,49.1l1.8-6.7" transform="translate(-4.58 -1.04)" style="fill:#d1d7da;stroke:#4991ff;stroke-linecap:round;stroke-miterlimit:10;stroke-width:1.5px"/><path d="M119.6,44.2s-2.7,2.3-5.6-2.1" transform="translate(-4.58 -1.04)" style="fill:none;stroke:#4991ff;stroke-linecap:round;stroke-miterlimit:10;stroke-width:1.5px"/><path d="M150.1,35.3s.6-1.4,0-1.9" transform="translate(-4.58 -1.04)" style="fill:none;stroke:#4991ff;stroke-linecap:round;stroke-miterlimit:10;stroke-width:1.5px"/></g></svg>