<?xml version="1.0" encoding="utf-8"?>
<!-- Generator: Adobe Illustrator 21.0.2, SVG Export Plug-In . SVG Version: 6.00 Build 0)  -->
<svg version="1.1" id="timeline-svg" xmlns="http://www.w3.org/2000/svg" xmlns:xlink="http://www.w3.org/1999/xlink" x="0px"
	 y="0px" viewBox="0 0 995 75" style="enable-background:new 0 0 995 75;" xml:space="preserve">
<style type="text/css">
	
		#timeline-svg .st0{opacity:0.7;fill:none;stroke:#686868;stroke-width:0.5;stroke-linecap:round;stroke-miterlimit:10;enable-background:new    ;}
	#timeline-svg .st1{fill:none;stroke:#4991FF;stroke-width:2;stroke-linecap:round;stroke-miterlimit:10;}
	#timeline-svg .st2{fill:none;stroke:#686868;stroke-width:2;stroke-linecap:round;stroke-miterlimit:10;}
	
		#timeline-svg .st3{opacity:0.7;fill:none;stroke:#C4C4C4;stroke-width:0.5;stroke-linecap:round;stroke-miterlimit:10;enable-background:new    ;}
	#timeline-svg .st4{fill:#4991FF;}
	#timeline-svg .st5{fill:#686868;}
</style>
<line class="st0" x1="31.8" y1="66.3" x2="31.8" y2="57.8"/>
<line id="timeline-start" class="st1" x1="1" y1="50" x2="1" y2="74"/>
<line class="st2" x1="32" y1="50" x2="32" y2="74"/>
<g>
	<line class="st3" x1="56" y1="66.5" x2="56" y2="57.9"/>
	<line class="st3" x1="80.1" y1="66.5" x2="80.1" y2="57.9"/>
	<line class="st3" x1="104.2" y1="66.5" x2="104.2" y2="57.9"/>
	<line class="st3" x1="128.2" y1="66.5" x2="128.2" y2="57.9"/>
	<line class="st3" x1="152.2" y1="66.5" x2="152.2" y2="57.9"/>
	<line class="st3" x1="176.3" y1="66.5" x2="176.3" y2="57.9"/>
	<line class="st3" x1="200.4" y1="66.5" x2="200.4" y2="57.9"/>
	<line class="st3" x1="224.4" y1="66.5" x2="224.4" y2="57.9"/>
	<line class="st3" x1="248.4" y1="66.5" x2="248.4" y2="57.9"/>
	<line class="st3" x1="296.5" y1="66.5" x2="296.5" y2="57.9"/>
	<line class="st3" x1="320.6" y1="66.5" x2="320.6" y2="57.9"/>
	<line class="st3" x1="344.6" y1="66.5" x2="344.6" y2="57.9"/>
	<line class="st3" x1="368.7" y1="66.5" x2="368.7" y2="57.9"/>
	<line class="st3" x1="392.8" y1="66.5" x2="392.8" y2="57.9"/>
	<line class="st3" x1="416.8" y1="66.5" x2="416.8" y2="57.9"/>
	<line class="st3" x1="440.9" y1="66.5" x2="440.9" y2="57.9"/>
	<line class="st3" x1="464.9" y1="66.5" x2="464.9" y2="57.9"/>
	<line class="st3" x1="489" y1="66.5" x2="489" y2="57.9"/>
	<line class="st3" x1="537" y1="66.5" x2="537" y2="57.9"/>
	<line class="st3" x1="561.1" y1="66.5" x2="561.1" y2="57.9"/>
	<line class="st3" x1="585.2" y1="66.5" x2="585.2" y2="57.9"/>
	<line class="st3" x1="609.2" y1="66.5" x2="609.2" y2="57.9"/>
	<line class="st3" x1="633.2" y1="66.5" x2="633.2" y2="57.9"/>
	<line class="st3" x1="657.3" y1="66.5" x2="657.3" y2="57.9"/>
	<line class="st3" x1="681.3" y1="66.5" x2="681.3" y2="57.9"/>
	<line class="st3" x1="705.4" y1="66.5" x2="705.4" y2="57.9"/>
	<line class="st3" x1="729.5" y1="66.5" x2="729.5" y2="57.9"/>
	<line class="st3" x1="777.5" y1="66.5" x2="777.5" y2="57.9"/>
	<line class="st3" x1="801.6" y1="66.5" x2="801.6" y2="57.9"/>
	<line class="st3" x1="825.7" y1="66.5" x2="825.7" y2="57.9"/>
	<line class="st3" x1="849.7" y1="66.5" x2="849.7" y2="57.9"/>
	<line class="st3" x1="873.8" y1="66.5" x2="873.8" y2="57.9"/>
	<line class="st3" x1="897.8" y1="66.5" x2="897.8" y2="57.9"/>
	<line class="st3" x1="921.8" y1="66.5" x2="921.8" y2="57.9"/>
	<line class="st3" x1="945.9" y1="66.5" x2="945.9" y2="57.9"/>
	<line class="st3" x1="970" y1="66.5" x2="970" y2="57.9"/>
</g>
<line class="st2" x1="272.5" y1="50" x2="272.5" y2="74"/>
<line class="st2" x1="513" y1="50" x2="513" y2="74"/>
<line class="st2" x1="753.5" y1="50" x2="753.5" y2="74"/>
<line class="st0" x1="994.4" y1="66.3" x2="994.4" y2="57.8"/>
<line class="st2" x1="994" y1="50" x2="994" y2="74"/>
<line class="st1" x1="1" y1="61.9" x2="15" y2="61.9"/>
<circle class="st4" cx="80.2" cy="30" r="5"/>
<circle class="st4" cx="176.4" cy="30" r="10"/>
<circle class="st4" cx="205.3" cy="30" r="5"/>
<circle class="st4" cx="296.8" cy="30" r="5"/>
<circle class="st4" cx="393.1" cy="30" r="5"/>
<circle class="st4" cx="513.5" cy="30" r="5"/>
<circle class="st4" cx="547.2" cy="30" r="10"/>
<circle class="st4" cx="585.7" cy="30" r="5"/>
<circle class="st4" cx="609.8" cy="30" r="10"/>
<circle class="st4" cx="658" cy="30" r="5"/>
<circle class="st4" cx="682" cy="30" r="10"/>
<circle class="st4" cx="715.7" cy="30" r="5"/>
<circle class="st4" cx="898.7" cy="30" r="5"/>
<circle class="st4" cx="942" cy="30" r="5"/>
<rect id="timeline-line" x="31.6" y="61.2" class="st5" width="962.4" height="1.9"/>
</svg>
