<svg id="vectors" xmlns="http://www.w3.org/2000/svg" viewBox="0 0 90.82 91.04"><title>timeline</title><g id="slagfrequentie"><path d="M59.5,51.05a1.28,1.28,0,0,1-1.28,1.28H50.35a1.27,1.27,0,0,1-1.27-1.11l-1.39-10L44.89,66.92a1.28,1.28,0,0,1-1.17,1.13h-.1a1.27,1.27,0,0,1-1.23-.94L38.2,52.25l-4.12,7.83a1.26,1.26,0,0,1-1.29.68,1.29,1.29,0,0,1-1.09-1l-2-8H20a1.28,1.28,0,1,1,0-2.57H30.69a1.28,1.28,0,0,1,1.25,1l1.43,5.72,4.05-7.69a1.25,1.25,0,0,1,1.27-.68,1.3,1.3,0,0,1,1.11.93l3.26,11.6,3.22-29.37a1.28,1.28,0,0,1,1.26-1.14,1.29,1.29,0,0,1,1.29,1.11l2.65,19.11h6.75A1.28,1.28,0,0,1,59.5,51.05Zm6.79-1.28H62.23a1.28,1.28,0,0,0,0,2.57h4.06a1.28,1.28,0,0,0,0-2.57Zm8.75,0H70.72a1.28,1.28,0,0,0,0,2.57H75a1.28,1.28,0,0,0,0-2.57Z" style="fill:#4991ff"/></g></svg>