<svg id="vectors" xmlns="http://www.w3.org/2000/svg" viewBox="0 0 90.82 91.04"><title>timeline</title><g id="diepstepunt"><circle cx="49.94" cy="59.41" r="2.42" style="fill:#4991ff"/><path d="M68.39,38.13a5.18,5.18,0,0,1-3.84-1.72,3.59,3.59,0,0,0-5.54,0,5.15,5.15,0,0,1-7.69,0,3.59,3.59,0,0,0-5.54,0,5.15,5.15,0,0,1-7.69,0,3.59,3.59,0,0,0-5.54,0,5.15,5.15,0,0,1-7.69,0,3.66,3.66,0,0,0-2.77-1.3.8.8,0,0,1,0-1.59,5.18,5.18,0,0,1,3.84,1.72,3.59,3.59,0,0,0,5.54,0,5.15,5.15,0,0,1,7.69,0,3.59,3.59,0,0,0,5.54,0,5.15,5.15,0,0,1,7.69,0,3.59,3.59,0,0,0,5.54,0,5.15,5.15,0,0,1,7.69,0,3.59,3.59,0,0,0,5.54,0A5.18,5.18,0,0,1,75,33.51a.8.8,0,0,1,0,1.59,3.66,3.66,0,0,0-2.77,1.3A5.18,5.18,0,0,1,68.39,38.13Z" style="fill:#d8e9ff"/><path d="M16.81,69.45V26.88a1.22,1.22,0,1,0-2.44,0V70.71a1.22,1.22,0,0,0,1.22,1.22h60a1.22,1.22,0,0,0,0-2.44H41.1" style="fill:#4991ff"/></g></svg>