<svg xmlns="http://www.w3.org/2000/svg" viewBox="0 0 1019.22 595.92"><title>timeline</title><g id="vectors"><g id="vluchtfase"><path d="M791.36,309.59a78.54,78.54,0,0,0-8.53-4.43,91,91,0,0,0-29.16-6.56A59.62,59.62,0,0,0,727.59,303a4.84,4.84,0,0,0,0,1.3c.25,1.82,2,3.14,3.83,4.15a176.58,176.58,0,0,1,32,.35c8.23.86,16.3,3,24.46,4.34a5.26,5.26,0,0,1,2-1.33,2.49,2.49,0,0,0,.83-.38l.26-.13s0,0,.08-.08a1.28,1.28,0,0,0,.2-.21l0-.06a.55.55,0,0,1,0-.14c0-.11.05-.13.06-.11s0-.11,0-.19C791.38,310.18,791.38,309.89,791.36,309.59Z" style="fill:#d8e9ff;opacity:0.5"/><path d="M423.35,388.73a5,5,0,0,1,.72-1.38,40.44,40.44,0,0,1,.9-7.54,4.84,4.84,0,0,1,.33-.95,7.78,7.78,0,0,0-.78,2.09,64.12,64.12,0,0,0-1.27,8.1Z" style="fill:#d8e9ff;opacity:0.5"/><path d="M228.79,330.28a108,108,0,0,1-6.36-12c-3.79-7.83-7.52-15-13.94-21a181.25,181.25,0,0,1-14.36-14.39,493.84,493.84,0,0,1-40.43-39.57c-6-6.61-11.61-14.13-19.78-18.25s-17.54-5.73-26.06-9.18c-9.81-4-19.13-9.15-28.34-14.33-6.4-3.6-20.19-9.22-16.73-18.74a8,8,0,0,0,.44-1.86c-2.81-.79-5.18-.75-7,.26a128.36,128.36,0,0,1-1.91,12.92c4,7.24,12.67,14.07,17.28,18.23A4,4,0,0,1,73,215.16l2.65,1.44c17.92,3.81,35.76,8.28,51,18.57a4.4,4.4,0,0,1,2,4.1,22.88,22.88,0,0,1,2.27,1.61c7.3,6,13.15,14.21,19.65,21q10.06,10.57,20.73,20.53,11,10.26,22.61,19.85c6.94,5.73,14.59,10.91,20.87,17.4a24.36,24.36,0,0,1,5.26,8c5.5,4,9.08,9.48,12.06,15.77,1.19,2.52,2.37,4.86,3.66,7.05.12-.87.23-1.73.34-2.59C231.43,343.87,229.79,337,228.79,330.28Z" style="fill:#d8e9ff;opacity:0.5"/><path d="M963.78,335a178.58,178.58,0,0,0-69.91-19.73,174,174,0,0,0-37.35,1.52c-12.72,1.85-25.09,5.82-37.89,7.14-13.38,1.38-26.85.72-40.26.57-13.85-.16-27.66.65-41.47,1.57l-40.36,2.7c-12.32.83-24.64,1.78-35.62,8-12.49,7-23.15,17.73-34.64,26.23-3.08,2.28-11.91,10.19-19.48,13.33a21.42,21.42,0,0,1-6.15,2.41A106.1,106.1,0,0,1,583,374c-4.69-1.68-9.45,2.67-9.49,7.23-.11,11.51-13.94,15-23.1,15.54-13.73.8-27.63.23-41.38.25l-41.7.06c-7.79,0-20.45,1.26-24.6-7.08a6.48,6.48,0,0,0-4-3.57l.34-1.51a7.21,7.21,0,0,0-1.89-6.86c-.19.74-.37,1.48-.56,2.22a4.88,4.88,0,0,1,1.17,4.34c-.92,4.47-2.63,8.41-6.77,10.7a21.28,21.28,0,0,0-.37,3.51c0,.07,0,.12,0,.18q.47.76,1,1.47c-.1.39-.2.78-.3,1.16-.91,3.38-4.43,3.84-6.75,2.45q.22.7.47,1.37a36.84,36.84,0,0,0-4.34-.69c-8.25-.83-16.65-.92-24.94-1.34a21.27,21.27,0,0,0,1.39-2.28,3.62,3.62,0,0,1-.83-5.42c1-1.32,1.91-2.68,2.79-4.06a4.45,4.45,0,0,1-1.78-3.4c-.6-9.05-2.65-18.18-3.79-27.31l-5,17.87-.16.59c-.49.46-1,.9-1.52,1.33-3.83,6.25-10.63,9.61-18.17,10.44a69.43,69.43,0,0,1-11.69,3.56,133,133,0,0,1-28.75-7.55c-14.8-5.69-28.4-14.11-43-20.28a107.32,107.32,0,0,0-22.53-7.13c-7.34-1.33-14.81-1.62-22.17-2.77a32.14,32.14,0,0,0,6.37,5.37c7.53,4.87,15.79,8.37,23.66,12.6a87.85,87.85,0,0,1,9.56,6q2.32,1,4.61,2.05c10.32,4.8,20.33,10.22,30.68,14.88,6.52,1.32,13.09,3.95,18.19,5.4,5.89,1.68,11.83,3.16,17.81,4.55,11.16,0,22.46-.35,33.26,2.56a24,24,0,0,0,3.52-1.05v.07c22.5.15,45.33,4.55,67.61,4.37,9.53-.08,19-.54,28.54-1,1.2-.22,2.4-.41,3.6-.61l15.55-.09c14.79-4,30.59-4.84,45.85-6.5,7-.76,13.82-1.4,20.83-1.63,2.16-.07,4.3-.18,6.43-.36a33.92,33.92,0,0,0,3.28-2.78,101.92,101.92,0,0,0,11.44-4.14,26.49,26.49,0,0,0,.73-4.44c3.73.84,7.5,1.47,11.31,2l1.39-.64c3.91-2.36,7.79-4.81,11.82-6.94a8.86,8.86,0,0,0-.28-1.27c1.7-1.16,3.38-2.37,5-3.64,7.56-5.95,14-13.48,21-20A190.28,190.28,0,0,1,659,347.81a8.62,8.62,0,0,0,.66.84l1.19,1.32a4.74,4.74,0,0,1,2.85-1,4.57,4.57,0,0,1,3.18,1.32,4.64,4.64,0,0,1,1.32,3.18V355a4.68,4.68,0,0,1-1.32,3.18,3.86,3.86,0,0,1-1.54,1,24.14,24.14,0,0,0,.75,2.62,18.94,18.94,0,0,0,5.7,8.25,4.93,4.93,0,0,1,.83-.08c11.18.05,22.95,1.53,34-.48,4.85-.88,9.7-2.27,14.58-3a80.81,80.81,0,0,1,19.82-10.46c1.57-.6,3.33-1.2,5.05-1.92q2.54-2.42,5.11-4.81c.08.11.16.2.24.31l1.1-.95A3.54,3.54,0,0,1,755.8,345c21.67-3.36,44.19-.07,66,.73,4.19.15,8.38.47,12.56.8a154.3,154.3,0,0,1,21-3.61c9-1,18.55-1.59,27.57.08a4.35,4.35,0,0,1,2.24-.58c18.89,0,38-.56,56.76-2.69,7.39-.84,14.75-2.21,22.12-3.39q.07-.65.11-1.32ZM748.3,336.72c-1.77,7.63-9.24,11.7-15.56,15.33-8.57,4.94-16.93,7.78-26.85,8.34-4.69.27-9.4.26-14.09.18-2.94,0-7,.17-9.64-1.45-2.92-1.79-2.75-6.22-3.85-9.2-1.53-4.15-4.19-7.58-7.09-10.85,9.61-6,24.31-4.95,34.82-4.13,6.79.53,13.6,1.62,20.42,1.78a156.51,156.51,0,0,0,22.32-1.44A8.27,8.27,0,0,0,748.3,336.72Zm168.52-5.48c-12.74-.65-25.59-1.82-38.35-1.23a97,97,0,0,0-24.34,4.32c-32.23,1.85-64.47,4.1-96.52,3.06a4.21,4.21,0,0,1,1.37-2.08c0-.18,0-.36,0-.55,0-5.15,7.13-5.71,8.69-1.72,11.2-1.19,22.4-2.06,33.69-2.19,13-.16,26,.23,38.93-.73C864,328.37,887,320,910.92,324.29c13.56,2.44,27,5.59,40.37,8.71Z" style="fill:#d8e9ff;opacity:0.5"/><path d="M284.58,328.06a7.53,7.53,0,0,0-2.79,3.28Q283.23,329.74,284.58,328.06Z" style="fill:#d8e9ff;opacity:0.5"/><path d="M326.28,335.17c-11.78-1.43-21.78,1.59-31.63,6.31a230.9,230.9,0,0,1,72.94,8C355.34,341.48,340.61,336.9,326.28,335.17Z" style="fill:#d8e9ff;opacity:0.5"/><path d="M213.72,257.65a70.52,70.52,0,0,1,9.6,2.44,62.76,62.76,0,0,0-7.3-3Z" style="fill:#d8e9ff;opacity:0.5"/><path d="M238.1,278.21c-9.13-7.63-20.19-11.43-31.73-12.47-.2.37-.39.75-.61,1.12l0,.17a4.09,4.09,0,0,1-1.32,2.3,8.23,8.23,0,0,0,1.29.41c21.39,4.81,35,22.49,45.44,40.56,2.34,4.06,6.6,4.36,9.81,2.65C256.07,299.82,249,287.29,238.1,278.21Z" style="fill:#d8e9ff;opacity:0.5"/><path d="M387.45,329.34,395.07,384a32.35,32.35,0,0,1-.27,10.58l-3.17,16.45,37.31,1.86,18.21-69.2s2.49-9.12,6.87-6.13" style="fill:none;stroke:#d0d2d3;stroke-linecap:round;stroke-miterlimit:10;stroke-width:5px"/><path d="M958.5,335.9l-10.15-2.25s-22.39-4-32.24-7.15-34.93-5.37-34.93-5.37-33.13,8.06-51.49,9.83-43.79-.42-59.55,0-21.64,6.41-79.7,4.93c-20.24-.52-29,8.06-29,8.06" style="fill:none;stroke:#d0d2d3;stroke-linecap:round;stroke-miterlimit:10;stroke-width:5px"/><path d="M631.93,280.38c-21.56.53-72.54,20.3-80.9,23.88-2.93,1.26-38.09,24.61-50.57,32.92a27.33,27.33,0,0,1-10.23,4.15c-9.72,1.78-28.79,4.05-36.21-3.73-10.15-10.65-26-22.29-44.18-17.51-19,5-22.39,9.25-22.39,9.25s-68.93-12.91-96.42-10a5,5,0,0,1-4.91-2.44c-4-6.85-14.85-24.4-28.51-36.71-17.31-15.61-85.07-48.44-85.07-48.44S152.38,222.42,158.6,206c2.39-6.31-4-10.92-6.45-12.46s-4.21-2.94-8.48-1.59a45.08,45.08,0,0,1-8.46,2.5c-9.25,1.49-43.28,2.39-59.4-5.67s-14.87-5.8-18.21-4.18c-1.94.94-4.18,15.82,14.33,26.57s42.52,13.35,57.45,25.29,90,89,95.69,95.6,8.06,22.69,27.76,32.24,58.81,35.52,87.76,41.19,88.36,7.46,88.36,7.46,56.42-.9,71.94-3.28,54.93-1.19,73.43-7.76,46-19.1,53.13-28.06,17.31-16.12,24.48-21.49,9.55-8.36,9.55-8.36l7.76,6.57S663.87,366.65,677,369s16.72,2.39,17.61,2.39,7.76-1.49,9-1.49,2.39,3,4.78,2.09,6.57-6.57,9.25-6.57,6.57-.3,11.94-4.48,22.09-12.84,24.78-17c0,0,91.94,6,113.73-2.09l12.24-2.09A39,39,0,0,0,906,344s29.25-6,46.27-4.18,9.25-2.69,6.27-3.88-12.84-2.69-12.84-2.69,23.88,5.07,12.24,0c0,0-59.7-27.46-74.63-26.57s-56.72-2.39-73.13-8.06-29-8.39-59.4-8.39-36.12,2.9-46.57,2.05-9.79-1.84-23.28-7.4C680.89,284.86,674.49,279.34,631.93,280.38Z" style="fill:none;stroke:#d0d2d3;stroke-linecap:round;stroke-miterlimit:10;stroke-width:5px"/><path d="M604.62,366.38a2.19,2.19,0,1,1,2.19,2.19A2.2,2.2,0,0,1,604.62,366.38ZM416.47,410.94,425,378.47" style="fill:#d1d7da;stroke:#d1d7da;stroke-linecap:round;stroke-miterlimit:10;stroke-width:5px"/><path d="M607.44,387.56s-13.06,10.86-27.06-10.14" style="fill:none;stroke:#d0d2d3;stroke-linecap:round;stroke-miterlimit:10;stroke-width:5px"/><path d="M261.28,311.44a2.36,2.36,0,0,1-4.06-.25c-20.66-41.57-48.6-42.11-48.88-42.11a2.37,2.37,0,0,1-2.36-2.34,2.32,2.32,0,0,1,2.34-2.36c1.24,0,31.07.38,53.06,44.7A2.38,2.38,0,0,1,261.28,311.44Z" style="fill:#d2d8db"/><path d="M368,347.19a2.36,2.36,0,0,1-3.48,2.11c-40.64-22.44-63.93-7-64.15-6.84a2.37,2.37,0,0,1-3.27-.58,2.32,2.32,0,0,1,.59-3.27c1-.71,25.77-17.36,69.07,6.59A2.38,2.38,0,0,1,368,347.19Z" style="fill:#d2d8db"/><path d="M792.08,310.14a1.66,1.66,0,0,1-.3.92,2.37,2.37,0,0,1-2.95.65c-36.61-18.8-58.4-7.26-58.61-7.14a2.4,2.4,0,0,1-3-.55,1.68,1.68,0,0,1,.63-2.56c.95-.53,24.12-13,63.13,7.08A1.85,1.85,0,0,1,792.08,310.14Z" style="fill:#d2d8db"/><path d="M754.38,344.42s3-6.67,0-9.33" style="fill:none;stroke:#d0d2d3;stroke-linecap:round;stroke-miterlimit:10;stroke-width:5px"/></g></g><g id="texts"><g id="hand1"><circle cx="908" cy="288.77" r="28.33" style="fill:#4991ff"/><path d="M917.68,294.22a1.16,1.16,0,0,0-1.11-.71h-3.67V277a.61.61,0,0,0-.18-.45.59.59,0,0,0-.43-.18H898.82a.58.58,0,0,0-.56.36.55.55,0,0,0,.08.65l3.06,3.67a.66.66,0,0,0,.48.21H908v12.24h-3.67a1.16,1.16,0,0,0-1.11.71,1.17,1.17,0,0,0,.17,1.32l6.12,7.34a1.25,1.25,0,0,0,1.87,0l6.12-7.34A1.13,1.13,0,0,0,917.68,294.22Z" style="fill:#fff"/><text transform="translate(898.17 249.79)" style="font-size:34.62871170043945px;fill:#4991ff;font-family:Ubuntu-Bold, Ubuntu;font-weight:700">1</text><text transform="translate(886.51 213.55)" style="font-size:17.048860549926758px;fill:#686868;font-family:Ubuntu-Medium, Ubuntu"><tspan style="letter-spacing:-0.05498901215448252em">T</tspan><tspan x="8.93" y="0">ekst</tspan></text></g><g id="middel1"><circle cx="477" cy="331.77" r="28.33" style="fill:#4991ff"/><path d="M486.68,337.22a1.16,1.16,0,0,0-1.11-.71h-3.67V320a.61.61,0,0,0-.18-.45.59.59,0,0,0-.43-.18H467.82a.58.58,0,0,0-.56.36.55.55,0,0,0,.08.65l3.06,3.67a.66.66,0,0,0,.48.21H477v12.24h-3.67a1.16,1.16,0,0,0-1.11.71,1.17,1.17,0,0,0,.17,1.32l6.12,7.34a1.25,1.25,0,0,0,1.87,0l6.12-7.34A1.13,1.13,0,0,0,486.68,337.22Z" style="fill:#fff"/><text transform="translate(467.17 292.79)" style="font-size:34.62871170043945px;fill:#4991ff;font-family:Ubuntu-Bold, Ubuntu;font-weight:700">1</text><text transform="translate(455.51 256.55)" style="font-size:17.048860549926758px;fill:#686868;font-family:Ubuntu-Medium, Ubuntu"><tspan style="letter-spacing:-0.05498901215448252em">T</tspan><tspan x="8.93" y="0">ekst</tspan></text></g><g id="knie1"><circle cx="307" cy="307.77" r="28.33" style="fill:#4991ff"/><path d="M316.68,313.22a1.16,1.16,0,0,0-1.11-.71h-3.67V296a.61.61,0,0,0-.18-.45.59.59,0,0,0-.43-.18H297.82a.58.58,0,0,0-.56.36.55.55,0,0,0,.08.65l3.06,3.67a.66.66,0,0,0,.48.21H307v12.24h-3.67a1.16,1.16,0,0,0-1.11.71,1.17,1.17,0,0,0,.17,1.32l6.12,7.34a1.25,1.25,0,0,0,1.87,0l6.12-7.34A1.13,1.13,0,0,0,316.68,313.22Z" style="fill:#fff"/><text transform="translate(297.17 268.79)" style="font-size:34.62871170043945px;fill:#4991ff;font-family:Ubuntu-Bold, Ubuntu;font-weight:700">1</text><text transform="translate(285.51 232.55)" style="font-size:17.048860549926758px;fill:#686868;font-family:Ubuntu-Medium, Ubuntu"><tspan style="letter-spacing:-0.05498901215448252em">T</tspan><tspan x="8.93" y="0">ekst</tspan></text></g><g id="enkel1"><circle cx="173" cy="198.77" r="28.33" style="fill:#4991ff"/><path d="M182.68,204.22a1.16,1.16,0,0,0-1.11-.71h-3.67V187a.61.61,0,0,0-.18-.45.59.59,0,0,0-.43-.18H163.82a.58.58,0,0,0-.56.36.55.55,0,0,0,.08.65l3.06,3.67a.66.66,0,0,0,.48.21H173v12.24h-3.67a1.16,1.16,0,0,0-1.11.71,1.17,1.17,0,0,0,.17,1.32l6.12,7.34a1.25,1.25,0,0,0,1.87,0l6.12-7.34A1.13,1.13,0,0,0,182.68,204.22Z" style="fill:#fff"/><text transform="translate(163.17 159.79)" style="font-size:34.62871170043945px;fill:#4991ff;font-family:Ubuntu-Bold, Ubuntu;font-weight:700">1</text><text transform="translate(151.51 123.55)" style="font-size:17.048860549926758px;fill:#686868;font-family:Ubuntu-Medium, Ubuntu"><tspan style="letter-spacing:-0.05498901215448252em">T</tspan><tspan x="8.93" y="0">ekst</tspan></text></g><g id="enkel2"><circle cx="103" cy="238.77" r="28.33" style="fill:#4991ff"/><path d="M112.68,244.22a1.16,1.16,0,0,0-1.11-.71h-3.67V227a.61.61,0,0,0-.18-.45.59.59,0,0,0-.43-.18H93.82a.58.58,0,0,0-.56.36.55.55,0,0,0,.08.65l3.06,3.67a.66.66,0,0,0,.48.21H103v12.24H99.33a1.16,1.16,0,0,0-1.11.71,1.17,1.17,0,0,0,.17,1.32l6.12,7.34a1.25,1.25,0,0,0,1.87,0l6.12-7.34A1.13,1.13,0,0,0,112.68,244.22Z" style="fill:#fff"/><text transform="translate(93.17 302.79)" style="font-size:34.62871170043945px;fill:#4991ff;font-family:Ubuntu-Bold, Ubuntu;font-weight:700">1</text><text transform="translate(81.51 325.55)" style="font-size:17.048860549926758px;fill:#686868;font-family:Ubuntu-Medium, Ubuntu"><tspan style="letter-spacing:-0.05498901215448252em">T</tspan><tspan x="8.93" y="0">ekst</tspan></text></g><g id="knie2"><circle cx="261" cy="384.77" r="28.33" style="fill:#4991ff"/><path d="M270.68,390.22a1.16,1.16,0,0,0-1.11-.71h-3.67V373a.61.61,0,0,0-.18-.45.59.59,0,0,0-.43-.18H251.82a.58.58,0,0,0-.56.36.55.55,0,0,0,.08.65l3.06,3.67a.66.66,0,0,0,.48.21H261v12.24h-3.67a1.16,1.16,0,0,0-1.11.71,1.17,1.17,0,0,0,.17,1.32l6.12,7.34a1.25,1.25,0,0,0,1.87,0l6.12-7.34A1.13,1.13,0,0,0,270.68,390.22Z" style="fill:#fff"/><text transform="translate(251.17 448.79)" style="font-size:34.62871170043945px;fill:#4991ff;font-family:Ubuntu-Bold, Ubuntu;font-weight:700">1</text><text transform="translate(239.51 471.55)" style="font-size:17.048860549926758px;fill:#686868;font-family:Ubuntu-Medium, Ubuntu"><tspan style="letter-spacing:-0.05498901215448252em">T</tspan><tspan x="8.93" y="0">ekst</tspan></text></g><g id="middel2"><circle cx="445" cy="419.77" r="28.33" style="fill:#4991ff"/><path d="M454.68,425.22a1.16,1.16,0,0,0-1.11-.71h-3.67V408a.61.61,0,0,0-.18-.45.59.59,0,0,0-.43-.18H435.82a.58.58,0,0,0-.56.36.55.55,0,0,0,.08.65l3.06,3.67a.66.66,0,0,0,.48.21H445v12.24h-3.67a1.16,1.16,0,0,0-1.11.71,1.17,1.17,0,0,0,.17,1.32l6.12,7.34a1.25,1.25,0,0,0,1.87,0l6.12-7.34A1.13,1.13,0,0,0,454.68,425.22Z" style="fill:#fff"/><text transform="translate(435.17 483.79)" style="font-size:34.62871170043945px;fill:#4991ff;font-family:Ubuntu-Bold, Ubuntu;font-weight:700">1</text><text transform="translate(423.51 506.55)" style="font-size:17.048860549926758px;fill:#686868;font-family:Ubuntu-Medium, Ubuntu"><tspan style="letter-spacing:-0.05498901215448252em">T</tspan><tspan x="8.93" y="0">ekst</tspan></text></g><g id="hand2"><circle cx="908" cy="368.77" r="28.33" style="fill:#4991ff"/><path d="M917.68,374.22a1.16,1.16,0,0,0-1.11-.71h-3.67V357a.61.61,0,0,0-.18-.45.59.59,0,0,0-.43-.18H898.82a.58.58,0,0,0-.56.36.55.55,0,0,0,.08.65l3.06,3.67a.66.66,0,0,0,.48.21H908v12.24h-3.67a1.16,1.16,0,0,0-1.11.71,1.17,1.17,0,0,0,.17,1.32l6.12,7.34a1.25,1.25,0,0,0,1.87,0l6.12-7.34A1.13,1.13,0,0,0,917.68,374.22Z" style="fill:#fff"/><text transform="translate(898.17 432.79)" style="font-size:34.62871170043945px;fill:#4991ff;font-family:Ubuntu-Bold, Ubuntu;font-weight:700">1</text><text transform="translate(886.51 455.55)" style="font-size:17.048860549926758px;fill:#686868;font-family:Ubuntu-Medium, Ubuntu"><tspan style="letter-spacing:-0.05498901215448252em">T</tspan><tspan x="8.93" y="0">ekst</tspan></text></g></g></svg>