<svg xmlns="http://www.w3.org/2000/svg" viewBox="0 0 922.5 598.05"><title>timeline</title><g id="vectors"><g id="afsprong"><path d="M716.18,294.41a68.71,68.71,0,0,0-6.62-2.8c-2.6-.55-5.19-1.15-7.74-1.9-2.07-.61-4.1-1.29-6.11-2a141.38,141.38,0,0,0-23.84-3.12l-.7.28a7.91,7.91,0,0,1,.4,6.17,6.36,6.36,0,0,1,1.34.28l1.9.65a91.86,91.86,0,0,1,20,4c9.17,3.14,17.32,8.14,25.59,13a79.83,79.83,0,0,1,9.57,2.75,8.78,8.78,0,0,0,.87.27C726.42,305.73,722.42,298.59,716.18,294.41Z" style="fill:#d8e9ff;opacity:0.5"/><path d="M330.7,266.11a65.77,65.77,0,0,0,12.69.08,4.29,4.29,0,0,1,2.61-.81l3.7,0a102.49,102.49,0,0,0,17.13-4.64,8,8,0,0,1,3.8-5.8v-.6q-10.52,1.36-21.17,1.71c-13,.4-26.93.56-39.5-3.12-4.92-1.44-8.35,2-9.1,5.87C310.72,261.59,320.48,265,330.7,266.11Z" style="fill:#d8e9ff;opacity:0.5"/><path d="M810.47,384.85c-9.8-6.49-19.55-13-28-21.22-8-7.7-15.33-16-25-21.67-10-5.84-21.25-8.94-31.71-13.77-.2-.09-.4-.16-.6-.24a7.49,7.49,0,0,1-4.1-.4,8.61,8.61,0,0,0-6.39,5.79c7.6,4.58,15.23,9.12,23.12,13.18,8.59,4.41,17.86,7.53,25.63,13.38,9,6.77,15.29,15.69,21,25.07,3.23,2.46,6.56,4.8,9.91,7.09,3.21.92,6.43,1.83,9.67,2.66a7.58,7.58,0,0,1,4,2.37c1.85.14,3.7.24,5.55.26a7.62,7.62,0,0,1,5,1.76c1.59.42,3.16.9,4.7,1.48,2.55,1,4.82,2.77,7.35,3.65a8.81,8.81,0,0,0,1.24.25c.22-.12.51-.28.89-.52a39.09,39.09,0,0,0,3.21-2.28Z" style="fill:#d8e9ff;opacity:0.5"/><path d="M191.22,263.72a63.9,63.9,0,0,1,22.26-8.6,5.52,5.52,0,0,0-2.61-1.2A174.52,174.52,0,0,0,93.69,276.1c-8.79,5.24-18.92,11.28-25,19.89A6.3,6.3,0,0,1,70,300.47a21.54,21.54,0,0,0,.34,6.79,49,49,0,0,0,6.91-2c1.25-.38,2.49-.72,3.73-1,2.42-3.27,6.25-5.77,9.39-8,3.91-2.79,8-5.39,12.11-7.82a94.41,94.41,0,0,1,37.28-20.09c15.88-4.33,32.59-4.91,49-4.93A8.36,8.36,0,0,1,191.22,263.72Z" style="fill:#d8e9ff;opacity:0.5"/><path d="M185.55,280.39c2.27,2.48,6.57,3.63,9.41,1.54,7.83-5.77,16.07-10,25.67-11.92s19.44-1.47,29.1-1.25a6.64,6.64,0,0,0,6.83-4.74C232.31,260.7,202.51,259.56,185.55,280.39Z" style="fill:#d8e9ff;opacity:0.5"/><path d="M700.42,315c-4.1-.86-8.12-2-12.17-3.21a5.41,5.41,0,0,1-.71-.28,8,8,0,0,0-.82,1.17,5,5,0,0,1,4.68,1,3.71,3.71,0,0,1,2.46,5.13c-2.79,7.16-7.85,13.68-14.29,17.37-.23.28-.46.57-.71.83-6,6.38-17.09,4.64-24.92,4.21-4.25-.23-8.75-.07-12.94-.86-3.75-.71-3.53-4.16-5.86-6.8a5.9,5.9,0,0,0-2.41-2.14c-2.28-1.07-4.51-2.23-6.7-3.45q-2.23-3-4.37-6a8.56,8.56,0,0,0-5.58-6.73c8.77-3.66,18.57-5.17,27.8-7.71a7,7,0,0,0,.78,1.35c3.95-1.44,8.09-2.48,10.76-5.84a3.45,3.45,0,0,1,2-1.17,6.84,6.84,0,0,0-6.89-5.08,7.16,7.16,0,0,0-4.35,1.34,8.33,8.33,0,0,1,0-1c-12.14-.07-24.46,2.71-36.21,5.48-9.86,2.32-19.72,4.54-29.9,4.52h-.32l-.79.14c-6.2,1-13.13,1.64-18.71-1.86-7.57-4.75-9.19-12.7-8.59-20.83-6.14,6.24-13.75,12.85-22.73,11.53-5.2-.77-9.86-3.72-14.25-6.43l-4.79-2.93a7.5,7.5,0,0,1-6.91-.4c-5.65-3.12-11.6-6.33-16-11.16a150.43,150.43,0,0,0-21.34-6.86c-4.39-1.05-10.48-.6-12.64-5.05a38.8,38.8,0,0,1-3.47-17.33,6.73,6.73,0,0,0-3.52-6.27c-2.45,11.3-1.45,23-1.68,34.65a6.76,6.76,0,0,0-5-1.71l-18.62.65a8.54,8.54,0,0,0-1.12.12,152.41,152.41,0,0,0,2.21-22.05A88.72,88.72,0,0,0,421,236a4.14,4.14,0,0,1-1.73-2.38c-.63-2.21-1.2-4.41-1.65-6.63a60.84,60.84,0,0,0-4.26-6.91,8.23,8.23,0,0,0,.12,2.19c2.24,12,4.94,25.56-.48,37.16s-18.7,14.62-30,17.49c-25,6.36-51,6.64-76.69,6.2-5.89-.1-11.79-.24-17.69-.38a7.5,7.5,0,0,0-2.39-.79c-51.93-8.52-105.85,1.66-150.76,29.25a7.55,7.55,0,0,0-2.55,2.5c-21,11.92-39.93,27.7-59.35,42l-.16.12a8.5,8.5,0,0,1,.16,2.13c-.15,3.08.18,5.41,1.08,6.44a6.54,6.54,0,0,0,1.16.37,18.11,18.11,0,0,0,2.7.19,37.54,37.54,0,0,0,10.28-1.94l20.57-15.19c.09-.15.18-.31.29-.46,5.76-7.78,12.47-14.31,19.62-20.77,3.91-5.56,9.73-9.92,15.24-13.61a137.39,137.39,0,0,1,28-14.07c22.85-8.62,47.79-4.94,71.77-7a20.88,20.88,0,0,1,9-1.1l1.74-.29a9.05,9.05,0,0,1,7.36,1.69c1.86.35,3.76.69,5.69.93a10.5,10.5,0,0,1,5.07,2q4.58.53,9.14,1.28a7.67,7.67,0,0,0,7.26-2.63c7.41.69,14.81,1.36,22.17,2.59a6.22,6.22,0,0,1,3.47,1.9c27.2.22,54.23-1.08,80.49-9.34a73.87,73.87,0,0,0,14.6-6.16,3.84,3.84,0,0,1,2.59-1.9,97.63,97.63,0,0,1,33.62-.86,8.6,8.6,0,0,0-.16-2,18.18,18.18,0,0,0,5.62,2.64c6.88,1.9,13.9,3,20.72,5.17a133.84,133.84,0,0,1,20.25,8.45c12.16,6.3,23.74,16.82,38.16,16.9a31.39,31.39,0,0,0,12.84-2.76c7.92,15,37,14.52,51.74,12.31,2.13-.32,4.27-.71,6.42-1.15,2-4,9.09-3.48,8.5,1.64-.31,2.73-1.5,6.9-.65,9.63s3.87,3.64,6.16,4.78c3.37,1.68,6.94,3.21,9.62,5.94s3.64,7.07,6.18,9.66c10-3.89,22.57-1.94,32.83-2.34,7.48-.29,15.19-2.37,20.92-7.38s9.25-12.14,12.11-19.08a4.65,4.65,0,0,1,2.39-2.52c.14-1.14.27-2.27.39-3.39A5.47,5.47,0,0,0,700.42,315Z" style="fill:#d8e9ff;opacity:0.5"/><path d="M646.27,297.86c17,3.5,59.62,22.14,89.42,37.29s68.13,4.66,74.52,9.32,11.71,18.64,13.84,18.64a4.45,4.45,0,0,0,3.19-1.17c11.71,17.48,19.16,16.31,25.55,17.48s-6.39-11.65-18.1-29.13-17-24.47-17-24.47c-55.36-24.47-82-31.8-82-31.8S695,272.55,683.53,264.89C668.13,254.61,642,244.26,642,244.26s-34.07-21-70.26-30.29S481.87,226.36,451,206.55c0,0-2.21,40.29-7,70,0,0,25,3.25,42.05,11.4,0,0,0,7,12.77,7a31.89,31.89,0,0,0,23.42,10.49s12.77,5.83,23.42,2.33c0,0,12.77,21,68.13,7,0,0,28.66-6.53,43.61-13.75" style="fill:none;stroke:#d2d8db;stroke-linecap:round;stroke-linejoin:round;stroke-width:5px"/><path d="M386.09,209.3a52.14,52.14,0,0,1,32.08-14C437.92,194.15,451.5,207,451.5,207l-7.4,69.91s-9.87,4.66-30.85,2.33c0,0,14.81-17.48,2.47-48.94S386.09,209.3,386.09,209.3Z" style="fill:none;stroke:#d2d8db;stroke-linecap:round;stroke-linejoin:round;stroke-width:5px"/><path d="M546.2,309.51s-3.19-5.83,0-16.31" style="fill:none;stroke:#d2d8db;stroke-miterlimit:10;stroke-width:5px"/><path d="M386.55,209.3s-6.23,9.32-14.54,12.82-56.09,7-88.29,24.47c0,0-16.62,3.5-42.59,0s-93.48,47.77-100.75,46.61-10.39,2.33-17.66-4.66-15.58,1.17-17.66,12.82-23.89,26.8-23.89,26.8-6.23,5.83-5.19,7-2.08,4.66,0,9.32-3.12,4.66-1,8.16-2.08,8.16,0,11.65,14.54-4.66,23.89-12.82,49.86-41.95,69.59-48.94,92.44-15.15,92.44-15.15,19.73,8.16,31.16,5.83c0,0,46.74,12.82,117.37-12.82" style="fill:none;stroke:#d2d8db;stroke-miterlimit:10;stroke-width:5px"/><path d="M372,222.12s-34.28-8.16-70.63,0-37.39-1.17-54,0-91.4,26.8-107,18.64-22.85-15.15-29.08-3.5-24.93,28-31.16,31.46S65.6,280.38,69.75,280.38c0,0-2.08,7,0,7,0,0-3.12,3.5-1,5.83s-1,14,5.19,11.65,41.88-31.54,60.24-36.12c18.7-4.66,31.94-9.14,59.08-6.9" style="fill:none;stroke:#d2d8db;stroke-miterlimit:10;stroke-width:5px"/><path d="M702.22,319.15s15.37,14.83,32.4,25.32,37.26,15.15,41.52,24.47,10.65,15.15,21.29,21,14.9,9.32,12.77,2.33c0,0,19.16,11.65,22.36,10.49s-2.13-7-13.84-16.31-41.9-36.8-47.57-42.87" style="fill:none;stroke:#d2d8db;stroke-miterlimit:10;stroke-width:5px"/><path d="M614.33,315.33s-9.58,15.15-4.26,17.48,8.52,1.17,8.52,3.5,6.39,1.17,6.39,1.17l1.06,7h4.26s-1.06,8.16,1.06,8.16,11.71-4.66,16-3.5,25.55,4.66,37.26-7a37.25,37.25,0,0,0,11.07-25.91" style="fill:none;stroke:#d2d8db;stroke-miterlimit:10;stroke-width:5px"/><path d="M581.5,305a4.14,4.14,0,1,1,4.12,4.5A4.34,4.34,0,0,1,581.5,305Z" style="fill:#d2d8db"/><path d="M300.73,258.53a2.36,2.36,0,0,1,3.22-2.5c43,17.57,64.31-.48,64.51-.66a2.37,2.37,0,0,1,3.31.2,2.32,2.32,0,0,1-.2,3.32c-.92.82-23.58,20.24-69.37,1.48A2.38,2.38,0,0,1,300.73,258.53Z" style="fill:#d2d8db"/><path d="M731.47,308.44a2.16,2.16,0,0,1-3.58,1.08c-31-29.22-55.18-20.83-55.42-20.74a2.17,2.17,0,0,1-2.77-1.26,2.13,2.13,0,0,1,1.27-2.77c1.06-.4,26.86-9.53,59.84,21.64A2.18,2.18,0,0,1,731.47,308.44Z" style="fill:#d2d8db"/><path d="M255.2,262.13a2.36,2.36,0,0,1-2.41,3.29c-46.14-5.1-61.71,18.1-61.86,18.33a2.37,2.37,0,0,1-3.24.72,2.32,2.32,0,0,1-.72-3.25c.66-1,17.12-25.93,66.3-20.45A2.38,2.38,0,0,1,255.2,262.13Z" style="fill:#d2d8db"/><line x1="434.54" y1="279.23" x2="438" y2="233.55" style="fill:none;stroke:#d2d8db;stroke-linecap:round;stroke-linejoin:round;stroke-width:5px"/></g></g><g id="texts"><g id="hand2"><circle cx="775.28" cy="374.9" r="28.33" style="fill:#4991ff"/><path d="M785,380.35a1.16,1.16,0,0,0-1.11-.71h-3.67V363.14a.61.61,0,0,0-.18-.45.59.59,0,0,0-.43-.18H766.1a.58.58,0,0,0-.56.36.55.55,0,0,0,.08.65l3.06,3.67a.66.66,0,0,0,.48.21h6.12v12.24h-3.67a1.16,1.16,0,0,0-1.11.71,1.17,1.17,0,0,0,.17,1.32l6.12,7.34a1.25,1.25,0,0,0,1.87,0l6.12-7.34A1.13,1.13,0,0,0,785,380.35Z" style="fill:#fff"/><text transform="translate(765.45 438.92)" style="font-size:34.62871170043945px;fill:#4991ff;font-family:Ubuntu-Bold, Ubuntu;font-weight:700">1</text><text transform="translate(753.79 461.68)" style="font-size:17.048860549926758px;fill:#686868;font-family:Ubuntu-Medium, Ubuntu"><tspan style="letter-spacing:-0.05498901215448252em">T</tspan><tspan x="8.93" y="0">ekst</tspan></text></g><g id="hand1"><circle cx="808.28" cy="295.9" r="28.33" style="fill:#4991ff"/><path d="M818,301.35a1.16,1.16,0,0,0-1.11-.71h-3.67V284.14a.61.61,0,0,0-.18-.45.59.59,0,0,0-.43-.18H799.1a.58.58,0,0,0-.56.36.55.55,0,0,0,.08.65l3.06,3.67a.66.66,0,0,0,.48.21h6.12v12.24h-3.67a1.16,1.16,0,0,0-1.11.71,1.17,1.17,0,0,0,.17,1.32l6.12,7.34a1.25,1.25,0,0,0,1.87,0l6.12-7.34A1.13,1.13,0,0,0,818,301.35Z" style="fill:#fff"/><text transform="translate(798.45 256.92)" style="font-size:34.62871170043945px;fill:#4991ff;font-family:Ubuntu-Bold, Ubuntu;font-weight:700">1</text><text transform="translate(786.79 220.68)" style="font-size:17.048860549926758px;fill:#686868;font-family:Ubuntu-Medium, Ubuntu"><tspan style="letter-spacing:-0.05498901215448252em">T</tspan><tspan x="8.93" y="0">ekst</tspan></text></g><g id="middel1"><circle cx="470.28" cy="187.9" r="28.33" style="fill:#4991ff"/><path d="M480,193.35a1.16,1.16,0,0,0-1.11-.71h-3.67V176.14a.61.61,0,0,0-.18-.45.59.59,0,0,0-.43-.18H461.1a.58.58,0,0,0-.56.36.55.55,0,0,0,.08.65l3.06,3.67a.66.66,0,0,0,.48.21h6.12v12.24h-3.67a1.16,1.16,0,0,0-1.11.71,1.17,1.17,0,0,0,.17,1.32l6.12,7.34a1.25,1.25,0,0,0,1.87,0l6.12-7.34A1.13,1.13,0,0,0,480,193.35Z" style="fill:#fff"/><text transform="translate(460.45 148.92)" style="font-size:34.62871170043945px;fill:#4991ff;font-family:Ubuntu-Bold, Ubuntu;font-weight:700">1</text><text transform="translate(448.79 112.68)" style="font-size:17.048860549926758px;fill:#686868;font-family:Ubuntu-Medium, Ubuntu"><tspan style="letter-spacing:-0.05498901215448252em">T</tspan><tspan x="8.93" y="0">ekst</tspan></text></g><g id="knie1"><circle cx="296.28" cy="204.9" r="28.33" style="fill:#4991ff"/><path d="M306,210.35a1.16,1.16,0,0,0-1.11-.71h-3.67V193.14a.61.61,0,0,0-.18-.45.59.59,0,0,0-.43-.18H287.1a.58.58,0,0,0-.56.36.55.55,0,0,0,.08.65l3.06,3.67a.66.66,0,0,0,.48.21h6.12v12.24h-3.67a1.16,1.16,0,0,0-1.11.71,1.17,1.17,0,0,0,.17,1.32l6.12,7.34a1.25,1.25,0,0,0,1.87,0l6.12-7.34A1.13,1.13,0,0,0,306,210.35Z" style="fill:#fff"/><text transform="translate(286.45 165.92)" style="font-size:34.62871170043945px;fill:#4991ff;font-family:Ubuntu-Bold, Ubuntu;font-weight:700">1</text><text transform="translate(274.79 129.68)" style="font-size:17.048860549926758px;fill:#686868;font-family:Ubuntu-Medium, Ubuntu"><tspan style="letter-spacing:-0.05498901215448252em">T</tspan><tspan x="8.93" y="0">ekst</tspan></text></g><g id="enkel1"><circle cx="141.28" cy="215.9" r="28.33" style="fill:#4991ff"/><path d="M151,221.35a1.16,1.16,0,0,0-1.11-.71h-3.67V204.14a.61.61,0,0,0-.18-.45.59.59,0,0,0-.43-.18H132.1a.58.58,0,0,0-.56.36.55.55,0,0,0,.08.65l3.06,3.67a.66.66,0,0,0,.48.21h6.12v12.24h-3.67a1.16,1.16,0,0,0-1.11.71,1.17,1.17,0,0,0,.17,1.32l6.12,7.34a1.25,1.25,0,0,0,1.87,0l6.12-7.34A1.13,1.13,0,0,0,151,221.35Z" style="fill:#fff"/><text transform="translate(131.45 176.92)" style="font-size:34.62871170043945px;fill:#4991ff;font-family:Ubuntu-Bold, Ubuntu;font-weight:700">1</text><text transform="translate(119.79 140.68)" style="font-size:17.048860549926758px;fill:#686868;font-family:Ubuntu-Medium, Ubuntu"><tspan style="letter-spacing:-0.05498901215448252em">T</tspan><tspan x="8.93" y="0">ekst</tspan></text></g><g id="enkel2"><circle cx="141.28" cy="332.9" r="28.33" style="fill:#4991ff"/><path d="M151,338.35a1.16,1.16,0,0,0-1.11-.71h-3.67V321.14a.61.61,0,0,0-.18-.45.59.59,0,0,0-.43-.18H132.1a.58.58,0,0,0-.56.36.55.55,0,0,0,.08.65l3.06,3.67a.66.66,0,0,0,.48.21h6.12v12.24h-3.67a1.16,1.16,0,0,0-1.11.71,1.17,1.17,0,0,0,.17,1.32l6.12,7.34a1.25,1.25,0,0,0,1.87,0l6.12-7.34A1.13,1.13,0,0,0,151,338.35Z" style="fill:#fff"/><text transform="translate(131.45 396.92)" style="font-size:34.62871170043945px;fill:#4991ff;font-family:Ubuntu-Bold, Ubuntu;font-weight:700">1</text><text transform="translate(119.79 419.68)" style="font-size:17.048860549926758px;fill:#686868;font-family:Ubuntu-Medium, Ubuntu"><tspan style="letter-spacing:-0.05498901215448252em">T</tspan><tspan x="8.93" y="0">ekst</tspan></text></g><g id="knie2"><circle cx="296.28" cy="304.9" r="28.33" style="fill:#4991ff"/><path d="M306,310.35a1.16,1.16,0,0,0-1.11-.71h-3.67V293.14a.61.61,0,0,0-.18-.45.59.59,0,0,0-.43-.18H287.1a.58.58,0,0,0-.56.36.55.55,0,0,0,.08.65l3.06,3.67a.66.66,0,0,0,.48.21h6.12v12.24h-3.67a1.16,1.16,0,0,0-1.11.71,1.17,1.17,0,0,0,.17,1.32l6.12,7.34a1.25,1.25,0,0,0,1.87,0l6.12-7.34A1.13,1.13,0,0,0,306,310.35Z" style="fill:#fff"/><text transform="translate(286.45 368.92)" style="font-size:34.62871170043945px;fill:#4991ff;font-family:Ubuntu-Bold, Ubuntu;font-weight:700">1</text><text transform="translate(274.79 391.68)" style="font-size:17.048860549926758px;fill:#686868;font-family:Ubuntu-Medium, Ubuntu"><tspan style="letter-spacing:-0.05498901215448252em">T</tspan><tspan x="8.93" y="0">ekst</tspan></text></g><g id="middel2"><circle cx="453.28" cy="297.9" r="28.33" style="fill:#4991ff"/><path d="M463,303.35a1.16,1.16,0,0,0-1.11-.71h-3.67V286.14a.61.61,0,0,0-.18-.45.59.59,0,0,0-.43-.18H444.1a.58.58,0,0,0-.56.36.55.55,0,0,0,.08.65l3.06,3.67a.66.66,0,0,0,.48.21h6.12v12.24h-3.67a1.16,1.16,0,0,0-1.11.71,1.17,1.17,0,0,0,.17,1.32l6.12,7.34a1.25,1.25,0,0,0,1.87,0l6.12-7.34A1.13,1.13,0,0,0,463,303.35Z" style="fill:#fff"/><text transform="translate(443.45 361.92)" style="font-size:34.62871170043945px;fill:#4991ff;font-family:Ubuntu-Bold, Ubuntu;font-weight:700">1</text><text transform="translate(431.79 384.68)" style="font-size:17.048860549926758px;fill:#686868;font-family:Ubuntu-Medium, Ubuntu"><tspan style="letter-spacing:-0.05498901215448252em">T</tspan><tspan x="8.93" y="0">ekst</tspan></text></g></g></svg>