<svg xmlns="http://www.w3.org/2000/svg" viewBox="0 0 864.56 581.46"><title>timeline</title><g class="vectors"><g class="keerpunt"><path d="M592.49,261.23a17.91,17.91,0,0,0-6.39-1.36q.18,1.63.36,3.25a4.23,4.23,0,0,1,2,2.59c1,3.48,2,7,2.86,10.53a4.55,4.55,0,0,1,1.6,3.1c.1.94.18,1.88.27,2.82,7.21,11,6.23,30.55-1.7,40.9a56.9,56.9,0,0,1-2.66,7,4.88,4.88,0,0,1,1.49.87c1.14-.61,2.26-1.25,3.37-1.94l0,0A58.7,58.7,0,0,0,592.49,261.23Z" style="fill:#d8e9ff;opacity:0.5"/><path d="M269.68,322.59c-10-1.28-22.24-1.72-25.83-12.95-1.75-5.48-5.36-20.81,1.15-24.35a6.63,6.63,0,0,0,3.35-8.19c-3.63,5-7.48,9.84-10.77,15.07a43.78,43.78,0,0,0-6.6,20.34,3.75,3.75,0,0,1,.7,2.82,24.88,24.88,0,0,0-.14,3.11c.4.8.81,1.59,1.26,2.34a5.72,5.72,0,0,0-1.08.54,27.89,27.89,0,0,0,1.63,6.35,5.19,5.19,0,0,0-1.38-.41,191.1,191.1,0,0,0-19.07-1.82c-11.69,1.73-23.76.62-35.51,1.81q-8.53,1.28-16.93,3.39c-4.63,2.34-9.3,4.59-14,6.8-.11.12-.23.25-.35.37a72.71,72.71,0,0,1-14.36,10.54c-4.5,4.52-9.05,9-14,13-6.09,5-13,10.06-20.52,12.54a84.66,84.66,0,0,1-6,6.69,17.76,17.76,0,0,0,7.37-2.55c4.95-2.86,9.74-6,14.6-9a7.39,7.39,0,0,0,2.86-3.1c10.73-6.43,21.63-12.22,33.5-16.37q5-1.75,10.11-3.18a4.44,4.44,0,0,1,1.85-2.39c13.12-8.69,27.54-10.24,42.29-10,8.48-2.52,18.33-.43,26.9-.33A4.19,4.19,0,0,1,234,335c1.15,0,2.29,0,3.44,0a8.17,8.17,0,0,0-.24-2.36c5.17,0,10.83.14,15.63,1.9a4.9,4.9,0,0,1,1.3.71c13.25,3,27.4,4,41.06,4.68,11.14-2.42,21.51-5.83,30-14.57A366.91,366.91,0,0,1,269.68,322.59Z" style="fill:#d8e9ff;opacity:0.5"/><path d="M765.5,245.53a18.68,18.68,0,0,1,.33-2.53,5.31,5.31,0,0,0-.35.66c-.55,1.23-1.12,2.48-1.71,3.74-1.31,8.76-4.14,18.11-12.17,23a24,24,0,0,1-11.06,3.25c-.5.19-1,.38-1.52.54a6,6,0,0,0-2-.57l-.42,0a5.35,5.35,0,0,0-.67,0,11.22,11.22,0,0,1-7.34-1.92,24.17,24.17,0,0,1-3.18-1.56,30,30,0,0,1-10.14-10.14c-3.74-2.51-8.9-5.81-9.19-9.21a7.76,7.76,0,0,0-1.25-3.69c0-.28,0-.55,0-.81-4-2.07-8.25-3-12.27-4.71a6.35,6.35,0,0,0-.56.49A65.5,65.5,0,0,1,701,252.38c2.44,3.38,4.69,7.06,7,10.67a4.16,4.16,0,0,1,4.74,2,66.64,66.64,0,0,0,5.94,9.09,3.23,3.23,0,0,1,1.84.19c6.54,2.75,13.3,4.91,18.57,9.88.12.11.23.23.33.34,3.43.39,6.88.73,10.3,1.16,1.19-.63,2.35-1.32,3.48-2.05a62.36,62.36,0,0,1,7.82-10.13c3.4-7.92,6.47-16,10.33-23.72C768.76,250.53,765.33,248.65,765.5,245.53Z" style="fill:#d8e9ff;opacity:0.5"/><path d="M785.74,262.43c-1.25-4.42-2.46-8.85-3.82-13.23-.05.11-.11.23-.17.34l-.12.22-12.49,49.63-3.39,13.45c-.79,3.12-1.26,7.94-3.9,10.16-4.94,4.14-12.43-2-15.73-5.37-5.58-5.73-10.22-12-16.58-17s-13.66-9.09-21-12.88c-16.44-8.54-33.15-16.65-49.38-25.58-6.75-3.71-13.79-7.95-19.4-13.35A50.47,50.47,0,0,1,627.34,238a40.43,40.43,0,0,1-8.63-9.11c-.47-.69-.9-1.41-1.32-2.13a6.17,6.17,0,0,0-.62.58c-9.35,10.36-9.39,23.81-7.79,36.94,1.8,14.78,2.67,29.35.85,44.2a149.18,149.18,0,0,1-12,43.12c-3,6.63-6.28,14.05-11.07,19.61-4.45,5.17-11.06,6.86-17.68,7-12.75.3-25.46-5.35-31.09-17.22a6.11,6.11,0,0,0-5.81-3.84c3.43,5.79,4.64,12.41,4.92,19.09,4.5,6.1,11,11.21,17.91,15.5-5,.07-10.34.24-15-1.36-5.53-1.88-10.81-5.33-15.93-8.11q-8.61-4.68-17.1-9.6a7.74,7.74,0,0,0-2.74-1c1.06-2.33,2.12-4.67,3.16-7a54,54,0,0,0-12.46-2.7c-55.07-14.26-116.57,9.18-172.57,10.15-6.11.11-12.19-.07-18.23-.57l-1.25-.37c-13.51-4.24-24.72-13.37-38.56-17-28.06-7.28-56.81.72-85.11,1.54-14.42.42-31.27-3.77-44.16,4.69-6.46,4.24-10.31,11-17.23,14.68-6.51,3.5-13.89,5.17-21,6.91-4.59,1.12-6,5.15-5.1,8.71C105.75,388,118,381,130.8,374.69c2.9-1.43,5.8-2.76,8.74-4a69.21,69.21,0,0,1,10.32-6.9,4.34,4.34,0,0,1,6.08,1.78,75.49,75.49,0,0,1,11.9-1.52C183.5,363.35,199,361,214.65,360c15.34-1,30.27-.21,45.11,4,3.55,1,7.08,2.13,10.57,3.33a7.14,7.14,0,0,0-6.14,4.5c9.9,3.46,20.21,5.31,30.47,7.39a7.77,7.77,0,0,0-.21-2.44q4.17,1.79,8.3,3.62a3.59,3.59,0,0,1,2.31,2.87c33.66,0,67.29-1.79,100.84-4.47,16.75-1.34,33.49-2.9,50.21-4.55,13.59-1.34,27.3-2.41,40.32,2.14a8.26,8.26,0,0,0-.65,2.26c15.77-.67,27.62,14.52,41,20.95a57.93,57.93,0,0,0,28.68,5.05c6.74-.62,12.93-3.14,18.75-6.4a8.24,8.24,0,0,0-.57-2c1-.59,1.92-1.16,2.88-1.76a84.17,84.17,0,0,1,10.7-10l0-.06a6.58,6.58,0,0,0-1-1.35c.76-.77,1.51-1.56,2.21-2.42,8.7-10.66,14.66-24.48,19-37.87a167.1,167.1,0,0,1,1.63-17.9,268.41,268.41,0,0,0,1.79-30.35c.24-13,.71-26.08.74-39.12-.44-.47-.87-.94-1.3-1.43-3.8-4.34,2.54-10.73,6.36-6.36C646,269.8,675.25,276.15,699,292.26a4.41,4.41,0,0,1,2,3.23,5.16,5.16,0,0,1,.62.26c7.71,3.85,15.65,7.5,22.65,12.58a80.55,80.55,0,0,1,11.43,10.74c3.23,3,6.39,6.39,9.81,9.29a31.27,31.27,0,0,0,19.24,5.52,25.38,25.38,0,0,0,6.34-3.73c1.88-6.5,3.26-13.16,4.55-19.78,1.88-9.67,3.4-19.41,5.32-29.07,1.22-6.12,2.46-12.52,5-18.28A5.15,5.15,0,0,1,785.74,262.43Z" style="fill:#d8e9ff;opacity:0.5"/><path d="M381.31,319.65a5.05,5.05,0,1,1,5,5.5A5.3,5.3,0,0,1,381.31,319.65Z" style="fill:#d1d7da"/><path d="M337.77,321.66c-13.35,0-17.17,7.63-17.17,7.63-15.26,17.17-63,3.82-95.38,1.91s-43.87,1.91-64.86,11.45-59.14,36.24-59.14,36.24c-17.17,13.35-13.35,13.35-13.35,13.35,7.63-3.82,22.89-9.54,32.43-11.45s17.17-15.26,24.8-17.17,43.87,1.91,61-1.91,45.78,0,74.4,13.35,83.93,5.72,83.93,5.72c28.61,1.91,74.4-5.72,74.4-5.72s49.6-13.35,78.21,11.45,51.51,24.8,82-5.72,19.08-143.07,19.08-143.07c13.35,28.61,82,53.41,104.92,66.77s13.35,19.08,30.52,26.71,19.08-15.26,21-24.8,7.63-34.34,9.54-38.15a9.21,9.21,0,0,0,0-7.63,19.73,19.73,0,0,0-1.91-7.63,8.36,8.36,0,0,0-1.91-5.72c1.91-3.82-1.91-5.72-1.91-5.72-3.82-1.91-13.35,26.71-24.8,38.15s-30.52-3.82-30.52-3.82c-32.43-36.24-83.93-87.75-83.93-87.75s-24.8-30.52-59.14,9.54-42,127.81-42,127.81-21.77,57.17,34.43,73.05" style="fill:none;stroke:#d0d2d3;stroke-linecap:round;stroke-miterlimit:10;stroke-width:5px"/><path d="M656.67,205.81s73.12,74.84,88.38,59.57c0,0,3.82-3.82,11.45-13.35s7.63-7.63,7.63-7.63,1.91,1.91,1.91,3.82,1.91,1.91,1.91,3.82a7.12,7.12,0,0,0,1,3.47" style="fill:none;stroke:#d0d2d3;stroke-linecap:round;stroke-miterlimit:10;stroke-width:5px"/><path d="M540.19,308.42s-35.51-10.61-56.49-12.52-21-9.54-55.32-5.72-42-13.35-82,22.89a22.29,22.29,0,0,1-17.17,0s11.45-17.17,5.72-22.89-11.45-1.91-11.45-3.82-5.72-3.82-5.72-3.82,3.82-3.82,1.91-5.72c-3.82-3.82-19.28.85-21,0-3.82-1.91-25.33-7.21-30.52-5.72-13.35,3.82-32.43,13.35-34.34,34.34s1.3,25.67,1.3,25.67" style="fill:none;stroke:#d0d2d3;stroke-linecap:round;stroke-miterlimit:10;stroke-width:5px"/><path d="M233.2,319.45s-45.18,1.26-87.14,20.33c0,0-3.82,0-17.17,1.91s-19.08,15.26-26.71,26.71-28.61,26.71-21,26.71c1.91,0,7.63-5.72,7.63-5.72" style="fill:none;stroke:#d0d2d3;stroke-linecap:round;stroke-miterlimit:10;stroke-width:5px"/><line x1="519.04" y1="302.7" x2="502.06" y2="374.96" style="fill:none;stroke:#d0d2d3;stroke-linecap:round;stroke-miterlimit:10;stroke-width:5px"/><path d="M403.61,290s12.51,1,12.51,10.79" style="fill:none;stroke:#d0d2d3;stroke-linecap:round;stroke-miterlimit:10;stroke-width:5px"/><line x1="527.06" y1="304.76" x2="519.06" y2="340.96" style="fill:none;stroke:#d0d2d3;stroke-linecap:round;stroke-miterlimit:10;stroke-width:5px"/><path d="M589.51,260.47c22,44.32,4.28,68.31,3.53,69.29a2.32,2.32,0,0,1-3.29.44,2.37,2.37,0,0,1-.44-3.29c.17-.22,16.63-22.8-4-64.39a2.34,2.34,0,1,1,4.2-2.05Z" style="fill:#d1d7da"/><path d="M698.39,278.42c-48.69-8.79-57.36-37.34-57.7-38.53A2.32,2.32,0,0,1,642.3,237a2.37,2.37,0,0,1,2.9,1.61c.08.26,8.37,26.95,54,35.23a2.34,2.34,0,1,1-.86,4.59Z" style="fill:#d1d7da"/></g></g><g class="texts"><g class="hand2"><circle cx="151.34" cy="318.31" r="28.33" style="fill:#4991ff"/><path d="M161,323.76a1.16,1.16,0,0,0-1.11-.71h-3.67V306.55a.61.61,0,0,0-.18-.45.59.59,0,0,0-.43-.18H142.16a.58.58,0,0,0-.56.36.55.55,0,0,0,.08.65l3.06,3.67a.66.66,0,0,0,.48.21h6.12v12.24h-3.67a1.16,1.16,0,0,0-1.11.71,1.17,1.17,0,0,0,.17,1.32l6.12,7.34a1.25,1.25,0,0,0,1.87,0l6.12-7.34A1.13,1.13,0,0,0,161,323.76Z" style="fill:#fff"/><text transform="translate(141.51 279.33)" style="font-size:34.62871170043945px;fill:#4991ff;font-family:Ubuntu-Bold, Ubuntu;font-weight:700">1</text><text transform="translate(129.85 243.09)" style="font-size:17.048860549926758px;fill:#686868;font-family:Ubuntu-Medium, Ubuntu"><tspan style="letter-spacing:-0.05498901215448252em">T</tspan><tspan x="8.93" y="0">ekst</tspan></text></g><g class="middel2"><circle cx="500.34" cy="282.31" r="28.33" style="fill:#4991ff"/><path d="M510,287.76a1.16,1.16,0,0,0-1.11-.71h-3.67V270.55a.61.61,0,0,0-.18-.45.59.59,0,0,0-.43-.18H491.16a.58.58,0,0,0-.56.36.55.55,0,0,0,.08.65l3.06,3.67a.66.66,0,0,0,.48.21h6.12v12.24h-3.67a1.16,1.16,0,0,0-1.11.71,1.17,1.17,0,0,0,.17,1.32l6.12,7.34a1.25,1.25,0,0,0,1.87,0l6.12-7.34A1.13,1.13,0,0,0,510,287.76Z" style="fill:#fff"/><text transform="translate(490.51 243.33)" style="font-size:34.62871170043945px;fill:#4991ff;font-family:Ubuntu-Bold, Ubuntu;font-weight:700">1</text><text transform="translate(478.85 207.09)" style="font-size:17.048860549926758px;fill:#686868;font-family:Ubuntu-Medium, Ubuntu"><tspan style="letter-spacing:-0.05498901215448252em">T</tspan><tspan x="8.93" y="0">ekst</tspan></text></g><g class="knie2"><circle cx="618.34" cy="178.31" r="28.33" style="fill:#4991ff"/><path d="M628,183.76a1.16,1.16,0,0,0-1.11-.71h-3.67V166.55a.61.61,0,0,0-.18-.45.59.59,0,0,0-.43-.18H609.16a.58.58,0,0,0-.56.36.55.55,0,0,0,.08.65l3.06,3.67a.66.66,0,0,0,.48.21h6.12v12.24h-3.67a1.16,1.16,0,0,0-1.11.71,1.17,1.17,0,0,0,.17,1.32l6.12,7.34a1.25,1.25,0,0,0,1.87,0l6.12-7.34A1.13,1.13,0,0,0,628,183.76Z" style="fill:#fff"/><text transform="translate(608.51 139.33)" style="font-size:34.62871170043945px;fill:#4991ff;font-family:Ubuntu-Bold, Ubuntu;font-weight:700">1</text><text transform="translate(596.85 103.09)" style="font-size:17.048860549926758px;fill:#686868;font-family:Ubuntu-Medium, Ubuntu"><tspan style="letter-spacing:-0.05498901215448252em">T</tspan><tspan x="8.93" y="0">ekst</tspan></text></g><g class="enkel2"><circle cx="775.34" cy="230.31" r="28.33" style="fill:#4991ff"/><path d="M785,235.76a1.16,1.16,0,0,0-1.11-.71h-3.67V218.55a.61.61,0,0,0-.18-.45.59.59,0,0,0-.43-.18H766.16a.58.58,0,0,0-.56.36.55.55,0,0,0,.08.65l3.06,3.67a.66.66,0,0,0,.48.21h6.12v12.24h-3.67a1.16,1.16,0,0,0-1.11.71,1.17,1.17,0,0,0,.17,1.32l6.12,7.34a1.25,1.25,0,0,0,1.87,0l6.12-7.34A1.13,1.13,0,0,0,785,235.76Z" style="fill:#fff"/><text transform="translate(765.51 191.33)" style="font-size:34.62871170043945px;fill:#4991ff;font-family:Ubuntu-Bold, Ubuntu;font-weight:700">1</text><text transform="translate(753.85 155.09)" style="font-size:17.048860549926758px;fill:#686868;font-family:Ubuntu-Medium, Ubuntu"><tspan style="letter-spacing:-0.05498901215448252em">T</tspan><tspan x="8.93" y="0">ekst</tspan></text></g><g class="hand1"><circle cx="131.34" cy="385.31" r="28.33" style="fill:#4991ff"/><path d="M141,390.76a1.16,1.16,0,0,0-1.11-.71h-3.67V373.55a.61.61,0,0,0-.18-.45.59.59,0,0,0-.43-.18H122.16a.58.58,0,0,0-.56.36.55.55,0,0,0,.08.65l3.06,3.67a.66.66,0,0,0,.48.21h6.12v12.24h-3.67a1.16,1.16,0,0,0-1.11.71,1.17,1.17,0,0,0,.17,1.32l6.12,7.34a1.25,1.25,0,0,0,1.87,0l6.12-7.34A1.13,1.13,0,0,0,141,390.76Z" style="fill:#fff"/><text transform="translate(121.51 449.33)" style="font-size:34.62871170043945px;fill:#4991ff;font-family:Ubuntu-Bold, Ubuntu;font-weight:700">1</text><text transform="translate(109.85 472.09)" style="font-size:17.048860549926758px;fill:#686868;font-family:Ubuntu-Medium, Ubuntu"><tspan style="letter-spacing:-0.05498901215448252em">T</tspan><tspan x="8.93" y="0">ekst</tspan></text></g><g class="middel1"><circle cx="502.34" cy="386.31" r="28.33" style="fill:#4991ff"/><path d="M512,391.76a1.16,1.16,0,0,0-1.11-.71h-3.67V374.55a.61.61,0,0,0-.18-.45.59.59,0,0,0-.43-.18H493.16a.58.58,0,0,0-.56.36.55.55,0,0,0,.08.65l3.06,3.67a.66.66,0,0,0,.48.21h6.12v12.24h-3.67a1.16,1.16,0,0,0-1.11.71,1.17,1.17,0,0,0,.17,1.32l6.12,7.34a1.25,1.25,0,0,0,1.87,0l6.12-7.34A1.13,1.13,0,0,0,512,391.76Z" style="fill:#fff"/><text transform="translate(492.51 450.33)" style="font-size:34.62871170043945px;fill:#4991ff;font-family:Ubuntu-Bold, Ubuntu;font-weight:700">1</text><text transform="translate(480.85 473.09)" style="font-size:17.048860549926758px;fill:#686868;font-family:Ubuntu-Medium, Ubuntu"><tspan style="letter-spacing:-0.05498901215448252em">T</tspan><tspan x="8.93" y="0">ekst</tspan></text></g><g class="knie1"><circle cx="640.34" cy="273.31" r="28.33" style="fill:#4991ff"/><path d="M650,278.76a1.16,1.16,0,0,0-1.11-.71h-3.67V261.55a.61.61,0,0,0-.18-.45.59.59,0,0,0-.43-.18H631.16a.58.58,0,0,0-.56.36.55.55,0,0,0,.08.65l3.06,3.67a.66.66,0,0,0,.48.21h6.12v12.24h-3.67a1.16,1.16,0,0,0-1.11.71,1.17,1.17,0,0,0,.17,1.32l6.12,7.34a1.25,1.25,0,0,0,1.87,0l6.12-7.34A1.13,1.13,0,0,0,650,278.76Z" style="fill:#fff"/><text transform="translate(630.51 337.33)" style="font-size:34.62871170043945px;fill:#4991ff;font-family:Ubuntu-Bold, Ubuntu;font-weight:700">1</text><text transform="translate(618.85 360.09)" style="font-size:17.048860549926758px;fill:#686868;font-family:Ubuntu-Medium, Ubuntu"><tspan style="letter-spacing:-0.05498901215448252em">T</tspan><tspan x="8.93" y="0">ekst</tspan></text></g><g class="enkel1"><circle cx="765.34" cy="328.31" r="28.33" style="fill:#4991ff"/><path d="M775,333.76a1.16,1.16,0,0,0-1.11-.71h-3.67V316.55a.61.61,0,0,0-.18-.45.59.59,0,0,0-.43-.18H756.16a.58.58,0,0,0-.56.36.55.55,0,0,0,.08.65l3.06,3.67a.66.66,0,0,0,.48.21h6.12v12.24h-3.67a1.16,1.16,0,0,0-1.11.71,1.17,1.17,0,0,0,.17,1.32l6.12,7.34a1.25,1.25,0,0,0,1.87,0l6.12-7.34A1.13,1.13,0,0,0,775,333.76Z" style="fill:#fff"/><text transform="translate(755.51 392.33)" style="font-size:34.62871170043945px;fill:#4991ff;font-family:Ubuntu-Bold, Ubuntu;font-weight:700">1</text><text transform="translate(743.85 415.09)" style="font-size:17.048860549926758px;fill:#686868;font-family:Ubuntu-Medium, Ubuntu"><tspan style="letter-spacing:-0.05498901215448252em">T</tspan><tspan x="8.93" y="0">ekst</tspan></text></g></g></svg>