<svg id="vectors" xmlns="http://www.w3.org/2000/svg" viewBox="0 0 90.82 91.04"><title>timeline</title><g id="voetcontact"><path d="M72.2,49.77l-.29-.64a21.14,21.14,0,0,1-2.18-10.44V27.17a1,1,0,1,0-2.1,0v11.5A23.14,23.14,0,0,0,70,50l.28.63c1.87,4.22,2.21,7.59,1,9.75A5.79,5.79,0,0,1,67.41,63H25.23c-5.11-.15-6.44-3.12-6.41-4.86,0-1,.42-1.62.69-1.62a61.24,61.24,0,0,0,9.22-.92c6.59-1.29,19.46-8.1,23.06-14.49,1.09-1.92,1.51-6.36,1.3-13.57V27A1,1,0,1,0,51,27v.54c.26,8.81-.53,11.6-1,12.47-3.23,5.72-15.4,12.24-21.64,13.46a59.71,59.71,0,0,1-8.81.87c-1.58,0-2.76,1.55-2.79,3.68,0,3.25,2.58,6.82,8.48,7H67.52a7.8,7.8,0,0,0,5.55-3.61C74.69,58.64,74.4,54.72,72.2,49.77Z" style="fill:#4991ff"/><path d="M55.42,54a19,19,0,0,0,2.79.23c2.75,0,4.74-.78,5.94-2.32,2.55-3.28.36-8.62.26-8.85a1,1,0,0,0-1.93.81c.51,1.22,1.52,4.82,0,6.74-1.08,1.38-3.36,1.83-6.76,1.31A1,1,0,0,0,55.42,54Z" style="fill:#d8e9ff"/></g></svg>